<?xml version="1.0" standalone="no"?><!DOCTYPE svg PUBLIC "-//W3C//DTD SVG 1.1//EN" "http://www.w3.org/Graphics/SVG/1.1/DTD/svg11.dtd" ><svg xmlns="http://www.w3.org/2000/svg"><metadata></metadata><defs><font id="-UMI-W.A.T.E.R:Version 1.00" horiz-adv-x="1420"><font-face font-family="-UMI-W.A.T.E.R" font-weight="400" font-stretch="normal" units-per-em="1000" panose-1="2 0 6 0 0 0 0 0 0 0" ascent="966" descent="-306" x-height="0" bbox="-66 -303 1317 878" underline-thickness="84" underline-position="-118" unicode-range="U+0009-ff5e" /><missing-glyph horiz-adv-x="1024"  /><glyph glyph-name="exclam" unicode="!" d="M301.5 112.5 q33.5 -33.5 33.5 -82 q0 -48.5 -33.5 -82.5 q-33.5 -34 -82 -34 q-48.5 0 -82.5 34 q-34 34 -34 82.5 q0 48.5 34 82 q34 33.5 82.5 33.5 q48.5 0 82 -33.5 ZM407 612 q0 -49 -22 -120.5 q-22 -71.5 -80 -216.5 q-7 -20 -12.5 -29.5 q-5.5 -9.5 -19.5 -18.5 q-14 -9 -34 -9 q-32 0 -45 18 q-13 18 -18 53 q-34 233 -34 282 q0 84 34 136.5 q34 52.5 99 52.5 q72 0 102 -43 q30 -43 30 -105 Z" /><glyph glyph-name="quotedbl" unicode="&quot;" d="M271 652 q0 -18 -5 -38 l-26 -96 q-11 -40 -26.5 -57 q-15.5 -17 -43.5 -17 q-58 0 -58 74 l1 115 q2 91 85 91 q36 0 54.5 -20.5 q18.5 -20.5 18.5 -51.5 ZM486 652 q0 -13 -7 -38 l-25 -96 q-11 -40 -27 -57 q-16 -17 -43 -17 q-60 0 -58 74 l2 115 q0 42 20.5 66.5 q20.5 24.5 62.5 24.5 q38 0 56.5 -20.5 q18.5 -20.5 18.5 -51.5 Z" /><glyph glyph-name="numbersign" unicode="#" d="M293 199 l130 0 l27 124 l-131 0 l-26 -124 ZM478 462 l28 130 q5 28 29.5 42.5 q24.5 14.5 52 9 q27.5 -5.5 43 -29.5 q15.5 -24 10.5 -51 l-21 -101 l56 0 q28 0 48 -20.5 q20 -20.5 20 -49 q0 -28.5 -20 -49 q-20 -20.5 -48 -20.5 l-85 0 l-26 -124 l62 0 q27 0 47 -20.5 q20 -20.5 20 -49 q0 -28.5 -20 -49 q-20 -20.5 -47 -20.5 l-91 0 l-27 -130 q-6 -27 -30 -42 q-24 -15 -51.5 -9.5 q-27.5 5.5 -43.5 29 q-16 23.5 -10 51.5 l21 101 l-131 0 l-27 -130 q-5 -27 -30 -42 q-25 -15 -52.5 -9.5 q-27.5 5.5 -43.5 29 q-16 23.5 -10 51.5 l22 101 l-57 0 q-28 0 -47.5 20.5 q-19.5 20.5 -19.5 49 q0 28.5 19.5 49 q19.5 20.5 47.5 20.5 l85 0 l27 124 l-62 0 q-27 0 -47 20.5 q-20 20.5 -20 49 q0 28.5 20 49 q20 20.5 47 20.5 l90 0 l28 130 q5 28 29 42.5 q24 14.5 52 8.5 q28 -5 44 -29 q16 -24 10 -51 l-21 -101 l130 0 Z" /><glyph glyph-name="dollar" unicode="$" d="M586 558 q0 -34 -23 -56 q-23 -22 -58 -22 q-31 0 -68 15 q-5 2 -19.5 7.5 q-14.5 5.5 -22.5 8 q-8 2.5 -21.5 5.5 q-13.5 3 -26.5 3 q-32 0 -49 -13 q-17 -14 -17 -36 q0 -35 64 -67 q4 -2 33.5 -15.5 q29.5 -13.5 42 -21 q12.5 -7.5 34 -21.5 q21.5 -14 36.5 -30 q56 -56 56 -142 q0 -106 -78 -164 q-62 -47 -170 -56 l-7 -47 q-6 -46 -50 -46 q-50 0 -50 47 q0 6 0.5 11.5 q0.5 5.5 1.5 12.5 q1 7 1 11 l2 16 q-63 7 -105 24 q-79 33 -79 98 q0 35 23.5 58 q23.5 23 58.5 23 q32 0 74 -24 q61 -34 105 -34 q37 0 59 15 q21 16 21 42 q0 29 -52 60 q-8 4 -47.5 23 q-39.5 19 -66.5 36.5 q-27 17.5 -48 39.5 q-51 55 -51 132 q0 99 68 156 q54 45 140 59 l8 60 q7 46 51 46 q21 0 35.5 -12 q14.5 -12 14.5 -37 q0 -17 -4 -35 l-3 -19 q69 -3 114 -22 q73 -27 73 -89 Z" /><glyph glyph-name="percent" unicode="%" d="M732 144 q0 -80 -42 -131 q-46 -59 -126 -59 q-67 0 -107 42 q-39 40 -39 106 q0 78 40 131 q47 58 127 58 q67 0 107 -43 q40 -38 40 -104 ZM628 133 q0 28 -12 46 q-12 21 -37 21 q-29 0 -46 -35 q-12 -25 -12 -53 q0 -28 12 -45 q12 -21 35 -21 q32 0 49 34 q11 21 11 53 ZM387 576 q0 -79 -42 -131 q-46 -58 -126 -58 q-65 0 -107 42 q-40 41 -40 105 q0 78 41 131 q46 58 126 58 q68 0 107 -43 q41 -38 41 -104 ZM282 565 q0 29 -12 46 q-12 21 -36 21 q-30 0 -46 -35 q-12 -24 -12 -53 q0 -27 12 -45 q12 -21 35 -21 q32 0 48 34 q11 21 11 53 ZM91 0 q0 16 14 34 l524 667 q15 22 38 22 q20 0 32.5 -13 q12.5 -13 12.5 -33 q0 -14 -15 -35 l-522 -667 q-16 -21 -39 -21 q-19 0 -32 13.5 q-13 13.5 -13 32.5 Z" /><glyph glyph-name="ampersand" unicode="&amp;" d="M615 -47 q-51 0 -117 49 q-86 -49 -188 -49 q-112 0 -172 48 q-69 51 -69 153 q0 84 45.5 139 q45.5 55 123.5 97 l6 3 q-15 54 -15 114 q0 89 48 143 q53 59 154 59 q83 0 128 -49 q39 -42 39 -113 q0 -69 -44 -116.5 q-44 -47.5 -122 -92.5 q15 -32 28 -49 q17 -28 37 -53 l5 19 q13 55 32 74 q19 19 52 19 q33 0 53.5 -22.5 q20.5 -22.5 20.5 -53.5 q0 -71 -39 -144 l1 0 q45 -24 65 -45.5 q20 -21.5 20 -54.5 q0 -37 -25.5 -56 q-25.5 -19 -66.5 -19 ZM322 90 q36 0 69 15 q-33 43 -57 82 q-22 33 -40 69 q-57 -44 -57 -95 q0 -37 23 -55 q22 -16 62 -16 ZM380 529 q0 -32 7 -65 q59 35 59 73 q0 18 -8 27 q-7 11 -22 11 q-17 0 -26 -12 q-10 -13 -10 -34 Z" /><glyph glyph-name="quotesingle" unicode="&#39;" d="M271 652 q0 -18 -5 -38 l-26 -96 q-11 -40 -26.5 -57 q-15.5 -17 -43.5 -17 q-58 0 -58 74 l1 115 q2 91 85 91 q36 0 54.5 -20.5 q18.5 -20.5 18.5 -51.5 Z" /><glyph glyph-name="parenleft" unicode="(" d="M380 727 q0 -37 -42 -116 q-23 -43 -36 -70 q-13 -27 -32 -78.5 q-19 -51.5 -28 -113 q-9 -61.5 -9 -133.5 q0 -94 15.5 -168 q15.5 -74 31.5 -119.5 q16 -45.5 16 -70.5 q0 -40 -26 -64 q-26 -24 -66 -24 q-52 0 -76 40 q-40 71 -62 183.5 q-22 112.5 -22 229.5 q0 142 43 291 q43 149 126 250 q33 41 83 41 q38 0 61 -22.5 q23 -22.5 23 -55.5 Z" /><glyph glyph-name="parenright" unicode=")" d="M356 352 q0 -142 -43.5 -291 q-43.5 -149 -124.5 -251 q-33 -40 -84 -40 q-37 0 -60.5 22 q-23.5 22 -23.5 55 q0 17 6.5 38.5 q6.5 21.5 14.5 37 q8 15.5 24 45 q16 29.5 25 48.5 q77 156 77 342 q0 94 -16 167.5 q-16 73.5 -32 119 q-16 45.5 -16 71.5 q0 40 26.5 64.5 q26.5 24.5 66.5 24.5 q52 0 76 -41 q40 -70 62 -182.5 q22 -112.5 22 -229.5 Z" /><glyph glyph-name="asterisk" unicode="*" d="M362 553 l-50 -9 l36 -37 q17 -18 25 -28 q12 -15 10.5 -36 q-1.5 -21 -20.5 -35 q-39 -30 -71 10 q-8 9 -20 31 l-26 47 l-27 -47 q-12 -22 -20 -31 q-13 -17 -31 -21 q-18 -4 -40 11 q-39 30 -10 71 q8 10 25 28 l37 37 l-51 9 l-15 3 q-15 3 -22 6 q-20 6 -30 23 q-10 17 -2 40 q6 24 24.5 31.5 q18.5 7.5 38.5 0.5 q15 -4 36 -14 l46 -21 l-7 52 q-3 26 -3 37 q0 21 13 36 q13 15 37.5 15 q24.5 0 37.5 -15 q13 -15 13 -36 q0 -11 -3 -37 l-7 -52 l46 21 q21 10 36 14 q21 7 39 -0.5 q18 -7.5 24 -31.5 q8 -23 -2 -40 q-10 -17 -29 -23 q-8 -3 -22.5 -6 q-14.5 -3 -15.5 -3 Z" /><glyph glyph-name="plus" unicode="+" d="M401 436 l119 0 q33 0 56.5 -25 q23.5 -25 23.5 -58 q0 -34 -23.5 -59 q-23.5 -25 -56.5 -25 l-119 0 l0 -119 q0 -33 -24.5 -56.5 q-24.5 -23.5 -58.5 -23.5 q-34 0 -59 23.5 q-25 23.5 -25 56.5 l0 119 l-118 0 q-34 0 -57.5 24 q-23.5 24 -23.5 60 q0 33 24 58 q24 25 57 25 l118 0 l0 118 q0 34 24.5 57.5 q24.5 23.5 59.5 23.5 q34 0 58.5 -23.5 q24.5 -23.5 24.5 -57.5 l0 -118 Z" /><glyph glyph-name="comma" unicode="," d="M125 -60 q0 18 -10.5 30.5 q-10.5 12.5 -23 21 q-12.5 8.5 -23 27.5 q-10.5 19 -10.5 48 q0 44 29.5 71 q29.5 27 79.5 27 q55 0 88.5 -35 q33.5 -35 33.5 -99 q0 -96 -74.5 -164.5 q-74.5 -68.5 -140.5 -68.5 q-14 0 -23.5 9.5 q-9.5 9.5 -9.5 22.5 q0 16 13.5 29.5 q13.5 13.5 29 22.5 q15.5 9 28.5 24 q13 15 13 34 Z" /><glyph glyph-name="hyphen" unicode="-" d="M417 184 l-237 0 q-34 0 -57.5 24.5 q-23.5 24.5 -23.5 59.5 q0 33 24 58.5 q24 25.5 57 25.5 l237 0 q33 0 56.5 -25.5 q23.5 -25.5 23.5 -58.5 q0 -34 -23.5 -59 q-23.5 -25 -56.5 -25 Z" /><glyph glyph-name="period" unicode="." d="M237.5 135 q30.5 -31 30.5 -75 q0 -44 -30.5 -75 q-30.5 -31 -74.5 -31 q-44 0 -75 31 q-31 31 -31 75 q0 44 31 75 q31 31 75 31 q44 0 74.5 -31 Z" /><glyph glyph-name="slash" unicode="/" d="M72 93 l296 580 q29 55 86 55 q36 0 63.5 -26.5 q27.5 -26.5 27.5 -60.5 q0 -27 -14 -54 l-296 -580 q-29 -55 -86 -55 q-36 0 -63.5 26.5 q-27.5 26.5 -27.5 60.5 q0 27 14 54 Z" /><glyph glyph-name="zero" unicode="0" d="M622 430 q0 -173 -64 -297 q-91 -180 -281 -180 q-128 0 -190 88 q-55 77 -55 209 q0 179 67 302 q93 172 281 172 q125 0 187 -82 q55 -76 55 -212 ZM431 423 q0 56 -16 90 q-20 40 -56 40 q-82 0 -119 -123 q-20 -73 -20 -172 q0 -62 14 -95 q19 -41 63 -41 q82 0 116 135 q18 71 18 166 Z" /><glyph glyph-name="one" unicode="1" d="M506 632 q0 -26 -6 -67 l-60 -433 l91 0 q35 0 59.5 -25 q24.5 -25 24.5 -60 q0 -34 -24.5 -58.5 q-24.5 -24.5 -59.5 -24.5 l-416 0 q-35 0 -59 24 q-24 24 -24 59 q0 35 24 60 q24 25 59 25 l131 0 l55 393 l-81 -24 q-19 -6 -36 -6 q-35 0 -57.5 23 q-22.5 23 -22.5 57 q0 60 69 80 l190 58 q33 10 49 10 q41 0 67.5 -22.5 q26.5 -22.5 26.5 -68.5 Z" /><glyph glyph-name="two" unicode="2" d="M642 523 q0 -118 -118 -201 q-30 -22 -94 -55 q-64 -33 -78 -41 q-77 -43 -91 -94 l255 0 q35 0 59.5 -25 q24.5 -25 24.5 -60 q0 -34 -24.5 -58.5 q-24.5 -24.5 -59.5 -24.5 l-370 0 q-35 0 -59.5 22.5 q-24.5 22.5 -24.5 60.5 q0 131 92 222 q58 58 190 122 q42 20 62 31.5 q20 11.5 37.5 32 q17.5 20.5 17.5 44.5 q0 26 -16 45 q-20 20 -58 20 q-53 0 -116 -27 q-48 -22 -65 -22 q-34 0 -56 20.5 q-22 20.5 -22 54.5 q0 53 76 90 q88 43 198 43 q125 0 184 -56 q56 -53 56 -144 Z" /><glyph glyph-name="three" unicode="3" d="M587 546 q0 -62 -33 -113 q-33 -51 -94 -77 q106 -53 106 -175 q0 -107 -88 -170 q-79 -58 -194 -58 q-102 0 -161 27 q-60 28 -60 81 q0 33 23.5 56 q23.5 23 56.5 23 q29 0 60 -16 q39 -20 81 -20 q48 0 76 22 q27 21 27 61 q0 82 -118 82 l-16 0 q-30 0 -52 22 q-22 22 -22 53 q0 31 22 53 q22 22 52 22 l27 0 q132 0 132 88 q0 25 -18 40 q-20 18 -49 18 q-35 0 -78 -19 q-47 -20 -63 -20 q-33 0 -54 19 q-21 19 -21 53 q0 52 73 87 q77 38 170 38 q99 0 158 -48 q57 -46 57 -129 Z" /><glyph glyph-name="four" unicode="4" d="M660 173 q0 -34 -23.5 -56.5 q-23.5 -22.5 -57.5 -22.5 l-60 0 l-8 -57 q-6 -42 -31.5 -63 q-25.5 -21 -60.5 -21 q-39 0 -64.5 21.5 q-25.5 21.5 -25.5 65.5 q0 17 4 54 l-239 0 q-40 0 -63.5 19 q-23.5 19 -23.5 55 q0 50 55 113 l344 396 q22 27 42 36.5 q20 9.5 53 9.5 q39 0 64 -21.5 q25 -21.5 25 -65.5 q0 -26 -5 -64 l-44 -319 l38 0 q34 0 57.5 -23.5 q23.5 -23.5 23.5 -56.5 ZM379 421 l-146 -168 l122 0 l24 168 Z" /><glyph glyph-name="five" unicode="5" d="M589 629 q0 -34 -24.5 -58.5 q-24.5 -24.5 -60.5 -24.5 l-187 0 l-18 -87 q23 11 57 11 q121 0 180 -66 q53 -59 53 -165 q0 -122 -73 -198 q-84 -88 -234 -88 q-100 0 -159 27 q-60 28 -60 81 q0 33 23 57.5 q23 24.5 56 24.5 q16 0 28 -4 q12 -4 27 -11 q15 -7 24 -11 q36 -14 69 -14 q61 0 90 42 q22 32 22 78 q0 44 -19 69 q-21 28 -66 28 q-26 0 -61 -17 q-35 -17 -64 -17 q-81 0 -81 75 q0 13 4 35 l46 222 q19 95 112 95 l231 0 q36 0 60.5 -24.5 q24.5 -24.5 24.5 -59.5 Z" /><glyph glyph-name="six" unicode="6" d="M320 108 q43 0 68 29 q26 30 26 77 q0 39 -20 61 q-22 24 -61 24 q-46 0 -98 -32 q-2 -20 -2 -31 q0 -51 19 -87 q22 -41 68 -41 ZM596 622 q0 -35 -23 -58.5 q-23 -23.5 -58 -23.5 q-16 0 -47 8 q-40 13 -73 13 q-61 0 -102 -44 q-34 -38 -44 -93 q64 31 131 31 q91 0 148 -45 q72 -60 72 -183 q0 -117 -76 -193 q-78 -81 -205 -81 q-139 0 -210 89 q-65 82 -65 225 q0 202 92 327 q97 129 271 129 q71 0 121 -18 q68 -25 68 -83 Z" /><glyph glyph-name="seven" unicode="7" d="M632 629 q0 -43 -33 -97 l-308 -518 q-20 -34 -40 -47.5 q-20 -13.5 -53 -13.5 q-36 0 -61 20.5 q-25 20.5 -25 60.5 q0 35 37 95 l173 275 q41 66 96 142 l-170 0 l-5 -37 q-10 -75 -84 -75 q-34 0 -57 19.5 q-23 19.5 -23 57.5 q0 6 5 58 l10 69 q10 75 84 75 l368 0 q39 0 62.5 -24 q23.5 -24 23.5 -60 Z" /><glyph glyph-name="eight" unicode="8" d="M45 151 q0 75 54 131 q37 35 115 78 q-41 36 -64 74 q-28 45 -28 100 q0 85 57 133 q63 57 194 57 q97 0 161 -50 q58 -47 58 -127 q0 -59 -28 -109 q-25 -44 -79 -83 q49 -39 72 -73 q33 -49 33 -104 q0 -108 -76 -166 q-77 -58 -227 -58 q-101 0 -165 46 q-77 55 -77 151 ZM400 166 q0 28 -21 56 q-16 21 -45 45 q-51 -27 -63 -35 q-42 -29 -42 -65 q0 -33 21 -51 q20 -19 63 -19 q39 0 62 17 q25 19 25 52 ZM362 444 q23 18 37 40 q15 24 15 53 q0 24 -15 37 q-15 12 -37 12 q-24 0 -39 -10 q-19 -12 -19 -36 q0 -28 18 -54 q14 -21 40 -42 Z" /><glyph glyph-name="nine" unicode="9" d="M327 568 q-42 0 -69 -28 q-25 -29 -25 -78 q0 -39 21 -61 q21 -23 60 -23 q46 0 98 32 q1 10 1 31 q0 54 -18 87 q-24 40 -68 40 ZM51 55 q0 35 23.5 58 q23.5 23 58.5 23 q20 0 46 -9 q35 -11 74 -11 q59 0 100 43 q35 36 45 94 q-64 -31 -131 -31 q-92 0 -147 45 q-73 58 -73 182 q0 116 75 193 q79 81 207 81 q138 0 209 -89 q64 -80 64 -224 q0 -203 -92 -327 q-96 -130 -269 -130 q-74 0 -121 18 q-69 25 -69 84 Z" /><glyph glyph-name="colon" unicode=":" d="M315 477 q0 -44 -31 -75 q-31 -31 -75 -31 q-44 0 -74.5 31 q-30.5 31 -30.5 75 q0 43 30.5 73.5 q30.5 30.5 74.5 30.5 q44 0 75 -30.5 q31 -30.5 31 -73.5 ZM239 234 q31 -31 31 -75 q0 -44 -31 -75 q-31 -31 -75 -31 q-44 0 -74.5 31 q-30.5 31 -30.5 75 q0 44 30.5 75 q30.5 31 74.5 31 q44 0 75 -31 Z" /><glyph glyph-name="semicolon" unicode=";" d="M319 477 q0 -44 -31 -75 q-31 -31 -75 -31 q-44 0 -74.5 31 q-30.5 31 -30.5 75 q0 43 30.5 73.5 q30.5 30.5 74.5 30.5 q44 0 75 -30.5 q31 -30.5 31 -73.5 ZM127 40 q0 18 -10.5 30.5 q-10.5 12.5 -23.5 21 q-13 8.5 -23.5 27.5 q-10.5 19 -10.5 48 q0 44 30 71 q30 27 79 27 q55 0 88.5 -35 q33.5 -35 33.5 -99 q0 -96 -74 -164.5 q-74 -68.5 -140 -68.5 q-14 0 -23.5 9.5 q-9.5 9.5 -9.5 22.5 q0 16 13 29.5 q13 13.5 28.5 22.5 q15.5 9 29 24 q13.5 15 13.5 34 Z" /><glyph glyph-name="less" unicode="&lt;" d="M148 498 l364 132 q25 10 43 10 q38 0 64.5 -27.5 q26.5 -27.5 26.5 -68.5 q0 -30 -16 -53.5 q-16 -23.5 -42 -31.5 l-339 -106 l339 -107 q26 -8 42 -32 q16 -24 16 -54 q0 -41 -27.5 -68.5 q-27.5 -27.5 -64.5 -27.5 q-17 0 -42 10 l-364 132 q-114 41 -114 147 q0 104 114 145 Z" /><glyph glyph-name="equal" unicode="=" d="M521 143 l-405 0 q-34 0 -57.5 24 q-23.5 24 -23.5 59 q0 33 24 58.5 q24 25.5 57 25.5 l405 0 q33 0 57 -25.5 q24 -25.5 24 -58.5 q0 -34 -24 -58.5 q-24 -24.5 -57 -24.5 ZM521 393 l-405 0 q-34 0 -57.5 24.5 q-23.5 24.5 -23.5 59.5 q0 33 24 58.5 q24 25.5 57 25.5 l405 0 q33 0 57 -25.5 q24 -25.5 24 -58.5 q0 -34 -24 -59 q-24 -25 -57 -25 Z" /><glyph glyph-name="greater" unicode="&gt;" d="M182 630 l364 -132 q113 -41 113 -145 q0 -106 -113 -147 l-364 -132 q-26 -10 -42 -10 q-38 0 -65.5 27.5 q-27.5 27.5 -27.5 68.5 q0 30 16 54 q16 24 43 32 l339 107 l-339 106 q-27 8 -43 31.5 q-16 23.5 -16 53.5 q0 41 26.5 68.5 q26.5 27.5 65.5 27.5 q17 0 43 -10 Z" /><glyph glyph-name="question" unicode="?" d="M374 112.5 q34 -33.5 34 -82 q0 -48.5 -34 -82.5 q-34 -34 -82.5 -34 q-48.5 0 -82.5 34 q-34 34 -34 82.5 q0 48.5 34 82 q34 33.5 82.5 33.5 q48.5 0 82.5 -33.5 ZM635 549 q0 -71 -38 -124 q-25 -33 -67 -62.5 q-42 -29.5 -78 -57 q-36 -27.5 -52 -58.5 q-30 -65 -89 -65 q-38 0 -62.5 25 q-24.5 25 -24.5 64 q0 45 36 87 q28 33 120 98 q30 22 43.5 38.5 q13.5 16.5 13.5 36.5 q0 28 -18 43 q-20 15 -53.5 15 q-33.5 0 -84.5 -28 q-37 -20 -73 -20 q-34 0 -57.5 25 q-23.5 25 -23.5 61 q0 65 82 101 q70 33 166 33 q132 0 196 -58 q64 -60 64 -154 Z" /><glyph glyph-name="at" unicode="@" d="M478 -200 q-180 0 -303 106 q-59 53 -94 137 q-35 84 -35 189 q0 156 70.5 278 q70.5 122 185.5 187 q116 65 255 65 q183 0 293 -113 q111 -113 111 -293 q0 -76 -24 -138 q-22 -63 -61 -101 q-80 -80 -175 -80 q-52 0 -89 24 q-39 25 -44 49 q-14 -18 -55 -41 q-40 -22 -78 -22 q-69 0 -113 48 q-43 49 -43 130 q0 107 68.5 195.5 q68.5 88.5 167.5 88.5 q66 0 92 -54 l-10 1 q16 44 68 44 q58 0 48 -52 l-41 -204 q-23 -95 44 -95 q50 0 90 55 q41 57 41 147 q0 132 -76 216 q-75 84 -226 84 q-71 0 -139 -30 q-68 -29 -122 -82 q-53 -53 -86 -132 q-32 -79 -32 -171 q0 -156 92 -240 q92 -85 232 -85 q90 0 132 27 q48 23 68 -28 q21 -50 -24 -72 q-63 -38 -188 -38 ZM410 233 q0 -72 60 -72 q30 0 70 49 l28 154 q-17 29 -49 29 q-45 0 -77 -51.5 q-32 -51.5 -32 -108.5 Z" /><glyph glyph-name="A" unicode="A" d="M668 51 q0 -42 -27 -70 q-27 -28 -70 -28 q-39 0 -65 23.5 q-26 23.5 -31 59.5 l-10 64 l-231 0 l-32 -84 q-27 -63 -99 -63 q-37 0 -61 25 q-24 25 -24 66 q0 28 14 59 l227 513 q48 107 161 107 q60 0 94 -31.5 q34 -31.5 49 -101.5 l102 -515 q3 -23 3 -24 ZM394 511 l-100 -256 l144 0 l-42 256 l-2 0 Z" /><glyph glyph-name="B" unicode="B" d="M678 185 q0 -107 -78 -166 q-72 -55 -191 -55 l-254 0 q-46 0 -73.5 28 q-27.5 28 -19.5 80 l78 552 q5 43 32 66 q27 23 65 23 l193 0 q109 0 171 -51 q54 -49 54 -130 q0 -53 -22 -94 q-25 -46 -84 -70 l0 -2 q61 -23 92 -65 q37 -46 37 -116 ZM482 508 q0 23 -14 37 q-16 16 -42 16 l-102 0 l-19 -132 l92 0 q42 0 64 22 q21 20 21 57 ZM486 200 q0 43 -32 60 q-24 15 -73 15 l-97 0 l-22 -153 l112 0 q57 0 84.5 18.5 q27.5 18.5 27.5 59.5 Z" /><glyph glyph-name="C" unicode="C" d="M433 -47 q-160 0 -264.5 90.5 q-104.5 90.5 -104.5 268.5 q0 173 123 292 q123 119 316 119 q74 0 132 -15 q98 -28 98 -99 q0 -39 -26.5 -65.5 q-26.5 -26.5 -63.5 -26.5 q-15 0 -70 17 q-39 14 -87 14 q-100 0 -159 -67.5 q-59 -67.5 -59 -157.5 q0 -87 49.5 -140.5 q49.5 -53.5 131.5 -53.5 q45 0 87 11 q55 18 70 18 q38 0 60 -23 q22 -23 22 -61 q0 -65 -87 -95 q-70 -26 -168 -26 Z" /><glyph glyph-name="D" unicode="D" d="M322 -36 l-167 0 q-46 0 -73 28 q-27 28 -21 80 l78 552 q6 43 33 66 q27 23 64 23 l133 0 q205 0 313 -112 q91 -97 91 -258 q0 -178 -122 -280 q-122 -99 -329 -99 ZM581 337 q0 97 -51 153 q-53 61 -161 61 l-47 0 l-59 -424 l100 0 q95 0 154 51 q64 56 64 159 Z" /><glyph glyph-name="E" unicode="E" d="M654.5 688 q25.5 -25 25.5 -60.5 q0 -35.5 -25.5 -60.5 q-25.5 -25 -60.5 -25 l-272 0 l-15 -115 l180 0 q35 0 60.5 -25 q25.5 -25 25.5 -60.5 q0 -35.5 -25.5 -60.5 q-25.5 -25 -60.5 -25 l-204 0 l-18 -120 l284 0 q35 0 60.5 -25.5 q25.5 -25.5 25.5 -60.5 q0 -35 -25.5 -60.5 q-25.5 -25.5 -60.5 -25.5 l-393 0 q-46 0 -73 28 q-27 28 -20 80 l78 552 q5 43 32 66 q27 23 65 23 l356 0 q35 0 60.5 -25 Z" /><glyph glyph-name="F" unicode="F" d="M627.5 688 q25.5 -25 25.5 -60.5 q0 -35.5 -25.5 -60.5 q-25.5 -25 -60.5 -25 l-252 0 l-15 -115 l174 0 q35 0 60 -25 q25 -25 25 -60.5 q0 -35.5 -25 -60.5 q-25 -25 -60 -25 l-198 0 l-31 -216 q-7 -43 -33.5 -65 q-26.5 -22 -63.5 -22 q-41 0 -67 22.5 q-26 22.5 -26 68.5 q0 20 6 67 l73 513 q5 43 32 66 q27 23 65 23 l336 0 q35 0 60.5 -25 Z" /><glyph glyph-name="G" unicode="G" d="M775 300 q0 -28 -6 -64 l-27 -200 q-6 -41 -31.5 -62 q-25.5 -21 -61.5 -21 q-54 0 -76 37 q-62 -37 -175 -37 q-157 0 -250 100 q-86 92 -86 249 q0 169 113 288 q128 133 327 133 q77 0 137 -15 q98 -28 98 -99 q0 -39 -26.5 -65.5 q-26.5 -26.5 -64.5 -26.5 q-21 0 -69 17 q-48 14 -90 14 q-101 0 -169 -80 q-54 -66 -54 -156 q0 -81 43 -131 q50 -55 136 -55 q62 0 130 26 l9 62 l-93 0 q-37 0 -62 24 q-25 24 -25 60.5 q0 36.5 25 62 q25 25.5 62 25.5 l196 0 q39 0 64.5 -21.5 q25.5 -21.5 25.5 -64.5 Z" /><glyph glyph-name="H" unicode="H" d="M777 632 q0 -26 -6 -67 l-72 -525 q-7 -43 -33.5 -65 q-26.5 -22 -63.5 -22 q-41 0 -67.5 22.5 q-26.5 22.5 -26.5 68.5 q0 28 6 67 l20 144 l-261 0 l-30 -215 q-5 -43 -32 -65 q-27 -22 -64 -22 q-41 0 -67.5 22.5 q-26.5 22.5 -26.5 68.5 q0 20 7 67 l72 524 q7 44 33.5 66 q26.5 22 63.5 22 q41 0 67.5 -22.5 q26.5 -22.5 26.5 -68.5 q0 -19 -7 -67 l-19 -140 l261 0 l29 210 q6 44 32.5 66 q26.5 22 63.5 22 q41 0 67.5 -22.5 q26.5 -22.5 26.5 -68.5 Z" /><glyph glyph-name="I" unicode="I" d="M323 632 q0 -19 -7 -67 l-73 -525 q-6 -43 -32.5 -65 q-26.5 -22 -63.5 -22 q-41 0 -67.5 22.5 q-26.5 22.5 -26.5 68.5 q0 20 7 67 l72 524 q7 44 33.5 66 q26.5 22 63.5 22 q41 0 67.5 -22.5 q26.5 -22.5 26.5 -68.5 Z" /><glyph glyph-name="J" unicode="J" d="M590 606 l-51 -372 q-18 -129 -81 -196 q-78 -85 -238 -85 q-111 0 -172 37 q-61 34 -61 96 q0 38 26.5 64.5 q26.5 26.5 64.5 26.5 q25 0 58 -17 q57 -31 94 -31 q62 0 88 33 q19 25 30 93 l52 379 q6 43 33 66 q27 23 63 23 q44 0 73 -33 q29 -33 21 -84 Z" /><glyph glyph-name="K" unicode="K" d="M700 631 q0 -40 -33 -73 l-186 -180 l158 -276 q15 -27 15 -53 q0 -40 -28 -68.5 q-28 -28.5 -67 -28.5 q-56 0 -86 52 l-135 232 l-66 -65 l-18 -129 q-7 -42 -33.5 -65.5 q-26.5 -23.5 -63.5 -23.5 q-44 0 -72.5 33 q-28.5 33 -20.5 85 l78 563 q5 43 32.5 66 q27.5 23 64.5 23 q44 0 72 -32.5 q28 -32.5 21 -84.5 l-23 -163 l234 253 q26 26 65 26 q38 0 65 -27 q27 -27 27 -64 Z" /><glyph glyph-name="L" unicode="L" d="M511.5 110.5 q25.5 -25.5 25.5 -60.5 q0 -35 -25.5 -60.5 q-25.5 -25.5 -60.5 -25.5 l-306 0 q-40 0 -66.5 22.5 q-26.5 22.5 -26.5 68.5 q0 28 5 67 l72 513 q5 44 32 66 q27 22 65 22 q40 0 66.5 -22.5 q26.5 -22.5 26.5 -68.5 q0 -19 -6 -67 l-60 -429 l198 0 q35 0 60.5 -25.5 Z" /><glyph glyph-name="M" unicode="M" d="M886 621 l0 -576 q0 -39 -26 -65.5 q-26 -26.5 -64.5 -26.5 q-38.5 0 -65 26.5 q-26.5 26.5 -26.5 65.5 l0 331 l-142 -292 q-31 -65 -102 -65 q-44 0 -73.5 26 q-29.5 26 -35.5 69 l-39 262 l-106 -354 q-9 -31 -34 -50 q-25 -19 -56 -19 q-39 0 -64.5 24.5 q-25.5 24.5 -25.5 64.5 q0 22 9 49 l185 559 q11 35 38.5 54 q27.5 19 63.5 19 q95 0 109 -93 l58 -385 l202 419 q27 59 93 59 q42 0 72 -30 q30 -30 30 -72 Z" /><glyph glyph-name="N" unicode="N" d="M775 612 l-80 -575 q-6 -41 -31 -62.5 q-25 -21.5 -61 -21.5 q-50 0 -78 44 l-236 377 l-47 -337 q-7 -41 -32 -62.5 q-25 -21.5 -60 -21.5 q-42 0 -68 30.5 q-26 30.5 -20 79.5 l81 576 q5 40 30.5 61.5 q25.5 21.5 60.5 21.5 q49 0 72 -37 l242 -384 l48 338 q5 40 31 61.5 q26 21.5 60 21.5 q42 0 68.5 -30 q26.5 -30 19.5 -80 Z" /><glyph glyph-name="O" unicode="O" d="M438 546 q-79 0 -128.5 -74 q-49.5 -74 -43.5 -168 q3 -76 44.5 -124 q41.5 -48 105.5 -48 q79 0 128.5 74 q49.5 74 43.5 168 q-3 75 -45 123.5 q-42 48.5 -105 48.5 ZM450 724 q142 0 232.5 -89 q90.5 -89 98.5 -234 q10 -184 -96 -315.5 q-106 -131.5 -280 -131.5 q-143 0 -233.5 89 q-90.5 89 -98.5 234 q-8 181 98.5 314 q106.5 133 278.5 133 Z" /><glyph glyph-name="P" unicode="P" d="M702 445 q0 -131 -91 -201 q-87 -70 -245 -70 l-104 0 l-19 -134 q-5 -43 -32 -65 q-27 -22 -64 -22 q-41 0 -67.5 22.5 q-26.5 22.5 -26.5 68.5 q0 20 7 67 l72 513 q6 43 33 66 q27 23 64 23 l131 0 q143 0 223 -44 q119 -69 119 -224 ZM509 451 q0 50 -31 73 q-27 20 -76 20 l-87 0 l-29 -200 l109 0 q53 0 84 30 q30 31 30 77 Z" /><glyph glyph-name="Q" unicode="Q" d="M450 724 q142 0 232.5 -89 q90.5 -89 98.5 -234 q9 -159 -72 -283 q-81 -124 -221 -155 l1 0 q2 -6 12 -10 q83 -25 207 -51 q82 -17 82 -87 q0 -35 -25 -60 q-25 -25 -60 -25 q-30 0 -73.5 12 q-43.5 12 -78.5 25.5 q-35 13.5 -110.5 44 q-75.5 30.5 -120.5 48.5 q-41 16 -48 51 q-7 35 16 60 q-96 32 -153.5 112 q-57.5 80 -63.5 194 q-8 181 98.5 314 q106.5 133 278.5 133 ZM438 546 q-79 0 -128.5 -74 q-49.5 -74 -43.5 -168 q3 -76 44.5 -124 q41.5 -48 105.5 -48 q79 0 128.5 74 q49.5 74 43.5 168 q-3 75 -45 123.5 q-42 48.5 -105 48.5 Z" /><glyph glyph-name="R" unicode="R" d="M539 -47 q-35 0 -55 14.5 q-20 14.5 -35 44.5 l-103 197 l-80 0 l-23 -169 q-6 -43 -33 -65 q-27 -22 -64 -22 q-41 0 -67 22.5 q-26 22.5 -26 68.5 q0 20 6 67 l73 513 q5 43 32 66 q27 23 65 23 l159 0 q130 0 207 -57 q86 -61 86 -177 q0 -94 -45 -162 q-35 -50 -94 -78 l73 -131 q21 -34 21 -66 q0 -39 -26 -64 q-26 -25 -71 -25 ZM491 464 q0 43 -28 66 q-24 20 -68 20 l-81 0 l-25 -179 l95 0 q50 0 78 23 q29 25 29 70 Z" /><glyph glyph-name="S" unicode="S" d="M632 603 q0 -37 -24 -60 q-24 -23 -62 -23 q-30 0 -72 15 q-68 26 -97 26 q-35 0 -54 -15 q-17 -13 -17 -37 q0 -38 68 -72 q9 -4 37 -18 q28 -14 43.5 -22 q15.5 -8 38 -23 q22.5 -15 38.5 -31 q61 -61 61 -153 q0 -113 -84 -176 q-79 -61 -221 -61 q-107 0 -184 32 q-85 35 -85 105 q0 37 25.5 62 q25.5 25 63.5 25 q34 0 79 -26 q65 -36 112 -36 q42 0 64 16.5 q22 16.5 22 44.5 q0 31 -55 63 q-10 6 -51.5 26.5 q-41.5 20.5 -70.5 38.5 q-29 18 -52 42 q-55 58 -55 142 q0 107 73 167 q80 69 221 69 q98 0 161 -25 q77 -30 77 -96 Z" /><glyph glyph-name="T" unicode="T" d="M729.5 688 q24.5 -25 24.5 -61.5 q0 -36.5 -24.5 -60.5 q-24.5 -24 -60.5 -24 l-168 0 l-69 -502 q-6 -43 -33 -65 q-27 -22 -64 -22 q-40 0 -66.5 22.5 q-26.5 22.5 -26.5 68.5 q0 8 5 67 l61 431 l-156 0 q-37 0 -62 24 q-25 24 -25 60.5 q0 36.5 25 61.5 q25 25 62 25 l517 0 q36 0 60.5 -25 Z" /><glyph glyph-name="U" unicode="U" d="M768 632 q0 -26 -5 -67 l-43 -305 q-18 -120 -83 -194 q-97 -113 -278 -113 q-135 0 -209 69 q-75 68 -75 185 q0 30 8 76 l48 352 q6 44 33 66 q27 22 64 22 q41 0 67 -22.5 q26 -22.5 26 -68.5 q0 -19 -6 -67 l-36 -261 l-7 -66 q0 -55 29 -83 q26 -27 79 -27 q75 0 111 49 q27 35 38 106 l49 352 q6 44 32.5 66 q26.5 22 64.5 22 q40 0 66.5 -22.5 q26.5 -22.5 26.5 -68.5 Z" /><glyph glyph-name="V" unicode="V" d="M762 629 q0 -18 -13 -46 l-281 -545 q-44 -86 -128 -86 q-111 0 -137 111 l-117 538 q-4 12 -4 24 q0 41 27.5 69 q27.5 28 69.5 28 q40 0 64.5 -22.5 q24.5 -22.5 31.5 -59.5 l80 -436 l2 0 l228 468 q25 50 84 50 q38 0 65.5 -27 q27.5 -27 27.5 -66 Z" /><glyph glyph-name="W" unicode="W" d="M1078 640 q0 -34 -15 -70 l-210 -528 q-35 -90 -128 -90 q-105 0 -125 111 l-49 289 l-2 0 l-124 -304 q-37 -96 -127 -96 q-112 0 -131 111 l-79 513 q-6 44 -6 56 q0 41 24 65.5 q24 24.5 65 24.5 q85 0 94 -86 l48 -431 l2 0 l173 446 q27 71 94 71 q44 0 65.5 -22.5 q21.5 -22.5 27.5 -64.5 l65 -430 l2 0 l155 445 q28 72 92 72 q89 0 89 -82 Z" /><glyph glyph-name="X" unicode="X" d="M697 632 q0 -35 -26 -63 l-208 -234 l141 -231 q19 -29 19 -56 q0 -40 -28 -67.5 q-28 -27.5 -67 -27.5 q-56 0 -83 48 l-108 191 l-178 -209 q-24 -30 -66 -30 q-37 0 -62.5 25.5 q-25.5 25.5 -25.5 61.5 q0 35 26 64 l215 233 l-147 241 q-13 22 -13 49 q0 39 28 67.5 q28 28.5 68 28.5 q57 0 87 -52 l102 -183 l163 198 q30 37 72 37 q38 0 64.5 -27 q26.5 -27 26.5 -64 Z" /><glyph glyph-name="Y" unicode="Y" d="M717 631 q0 -34 -23 -63 l-249 -313 l-29 -215 q-7 -43 -33.5 -65 q-26.5 -22 -63.5 -22 q-41 0 -67.5 22.5 q-26.5 22.5 -26.5 68.5 q0 20 7 67 l20 144 l-156 326 q-10 25 -10 43 q0 42 27 70 q27 28 67 28 q66 0 94 -66 l94 -223 l179 251 q29 38 77 38 q40 0 66.5 -26.5 q26.5 -26.5 26.5 -64.5 Z" /><glyph glyph-name="Z" unicode="Z" d="M693 627 q0 -38 -34 -76 l-344 -415 l233 0 q36 0 61.5 -25.5 q25.5 -25.5 25.5 -61.5 q0 -36 -25.5 -60.5 q-25.5 -24.5 -61.5 -24.5 l-429 0 q-36 0 -61 24.5 q-25 24.5 -25 60.5 q0 32 25 63 l358 430 l-235 0 q-37 0 -62 24 q-25 24 -25 60.5 q0 36.5 25 61.5 q25 25 62 25 l425 0 q37 0 62 -25 q25 -25 25 -61 Z" /><glyph glyph-name="bracketleft" unicode="[" d="M529 697 q0 -34 -23.5 -57 q-23.5 -23 -58.5 -23 l-118 0 l-94 -669 l95 0 q36 0 59.5 -23.5 q23.5 -23.5 23.5 -59.5 q0 -34 -23.5 -57 q-23.5 -23 -59.5 -23 l-201 0 q-40 0 -65.5 22 q-25.5 22 -25.5 67 q0 28 5 66 l106 754 q6 43 32.5 64 q26.5 21 63.5 21 l202 0 q35 0 58.5 -23.5 q23.5 -23.5 23.5 -58.5 Z" /><glyph glyph-name="backslash" unicode="\" d="M84 624 q-6 36 16 64.5 q22 28.5 58.5 34 q36.5 5.5 66 -16 q29.5 -21.5 34.5 -56.5 l83 -599 q6 -35 -16.5 -63.5 q-22.5 -28.5 -58.5 -34.5 q-36 -5 -66 16.5 q-30 21.5 -35 56.5 l-82 598 Z" /><glyph glyph-name="bracketright" unicode="]" d="M471 690 q0 -19 -7 -66 l-106 -753 q-5 -43 -31 -64.5 q-26 -21.5 -63 -21.5 l-204 0 q-34 0 -57.5 23.5 q-23.5 23.5 -23.5 58 q0 34.5 23.5 58 q23.5 23.5 57.5 23.5 l119 0 l94 669 l-96 0 q-34 0 -57.5 23.5 q-23.5 23.5 -23.5 57.5 q0 34 23.5 57.5 q23.5 23.5 57.5 23.5 l201 0 q40 0 66.5 -22.5 q26.5 -22.5 26.5 -66.5 Z" /><glyph glyph-name="underscore" unicode="_" d="M6 -84 l490 0 q27 0 45.5 -20 q18.5 -20 18.5 -46 q0 -28 -18.5 -47 q-18.5 -19 -45.5 -19 l-490 0 q-28 0 -46.5 19 q-18.5 19 -18.5 47 q0 26 19 46 q19 20 46 20 Z" /><glyph glyph-name="grave" unicode="`" d="M461 638 q0 -24 -17.5 -40.5 q-17.5 -16.5 -41.5 -16.5 q-36 0 -56 37 l-56 90 q-17 27 -17 45 q0 26 21 45.5 q21 19.5 49 19.5 q41 0 61 -43 l46 -98 q11 -22 11 -39 Z" /><glyph glyph-name="a" unicode="a" d="M547 397 q0 -22 -4 -62 l-44 -307 q-5 -37 -28 -56 q-23 -19 -55 -19 q-50 0 -69 36 l-5 0 q-53 -36 -118 -36 q-78 0 -127 58 q-53 62 -53 160 q0 129 87 214 q50 48 118 73.5 q68 25.5 137 25.5 q62 0 96 -7 q65 -13 65 -80 ZM364 332 q-19 0 -45 -8 q-34 -14 -56 -38 q-38 -44 -38 -109 q0 -37 16.5 -56.5 q16.5 -19.5 41.5 -19.5 q30 0 51 18 l30 213 Z" /><glyph glyph-name="b" unicode="b" d="M548 258 q0 -137 -79 -214 q-90 -90 -250 -90 q-91 0 -126 14 q-47 15 -47 73 q0 20 5 51 l77 550 q5 40 30 60.5 q25 20.5 59 20.5 q36 0 61 -20.5 q25 -20.5 25 -62.5 q0 -27 -6 -62 l-14 -101 q30 5 57 5 q100 0 160 -71 q48 -63 48 -153 ZM299 331 q-18 0 -38 -7 l-31 -224 q3 -1 11 -1 q50 0 82 29 q44 41 44 120 q0 35 -17 58 q-19 25 -51 25 Z" /><glyph glyph-name="c" unicode="c" d="M525 392 q0 -29 -21 -51 q-21 -22 -52 -22 q-16 0 -43 6 q-30 8 -55 8 q-54 0 -90 -36 q-37 -38 -37 -92 q0 -48 22 -73 q26 -30 78 -30 q24 0 53 11 q24 10 41 10 q32 0 50 -19.5 q18 -19.5 18 -50.5 q0 -53 -72 -79 q-55 -20 -133 -20 q-108 0 -173 62 q-65 62 -65 167 q0 130 91 215 q91 86 221 86 q69 0 112 -19 q55 -23 55 -73 Z" /><glyph glyph-name="d" unicode="d" d="M363 326 q-29 0 -60 -14 q-39 -21 -57 -51 q-20 -30 -20 -76 q0 -40 22 -60 q22 -21 66 -21 q12 0 18 1 l31 221 ZM582 640 q0 -20 -5 -62 l-76 -536 q-4 -33 -23.5 -52 q-19.5 -19 -65.5 -28 q-38 -6 -100 -6 q-119 0 -190 59 q-76 62 -76 172 q0 96 56 169 q47 63 137 97 q72 26 146 26 l23 163 q5 41 29.5 61 q24.5 20 58.5 20 q37 0 61.5 -20.5 q24.5 -20.5 24.5 -62.5 Z" /><glyph glyph-name="e" unicode="e" d="M513 343 q0 -101 -102 -159 q-51 -28 -127 -39 q-39 -5 -53 -6 q5 -14 15 -24 q22 -24 67 -24 q25 0 51 9 q32 10 43 10 q32 0 49 -19.5 q17 -19.5 17 -45.5 q0 -52 -69 -75 q-45 -16 -127 -16 q-103 0 -163 55 q-69 59 -69 174 q0 123 75 206 q85 95 221 95 q75 0 122 -37 q50 -39 50 -104 ZM260 310 q-22 -28 -32 -63 q14 0 30 3 q30 6 51 15 q50 21 50 57 q0 12 -8 19 q-6 6 -19 6 q-41 0 -72 -37 Z" /><glyph glyph-name="f" unicode="f" d="M531 627 q0 -32 -21.5 -54.5 q-21.5 -22.5 -52.5 -22.5 q-12 0 -35 7 q-38 16 -53 16 q-26 0 -38 -18 q-9 -12 -16 -45 l-5 -37 l43 0 q30 0 50 -21 q20 -21 20 -50 q0 -30 -20 -49.5 q-20 -19.5 -50 -19.5 l-63 0 l-72 -505 q-6 -40 -30 -60 q-24 -20 -58 -20 q-38 0 -62.5 20 q-24.5 20 -24.5 62 q0 8 5 63 l63 440 l-18 0 q-29 0 -49.5 19.5 q-20.5 19.5 -20.5 49.5 q0 29 20.5 50 q20.5 21 49.5 21 l40 0 l13 81 q13 75 62 118 q58 49 157 49 q76 0 122 -26 q44 -26 44 -68 Z" /><glyph glyph-name="g" unicode="g" d="M561 408 q0 -17 -5 -54 l-56 -398 q-21 -145 -108 -206 q-70 -51 -187 -51 q-91 0 -160 31 q-56 24 -56 76 q0 32 23 54.5 q23 22.5 55 22.5 q19 0 47 -14 q53 -26 102 -26 q51 0 77.5 23.5 q26.5 23.5 32.5 64.5 l7 45 q-38 -22 -93 -22 q-87 0 -139 54 q-54 60 -54 158 q0 115 64 205 q78 110 201 110 q49 0 110 -30 q23 30 64 30 q32 0 53.5 -18.5 q21.5 -18.5 21.5 -54.5 ZM287 101 q42 0 68 28 l28 191 q-27 13 -51 13 q-46 0 -75 -47 q-26 -44 -26 -103 q0 -37 13 -59 q14 -23 43 -23 Z" /><glyph glyph-name="h" unicode="h" d="M302 640 q0 -20 -4 -62 l-19 -129 l5 0 q29 16 48 22 q33 10 70 10 q78 0 121 -51 q44 -52 44 -141 q0 -33 -7 -87 l-23 -168 q-6 -40 -30.5 -60.5 q-24.5 -20.5 -59.5 -20.5 q-37 0 -61 20.5 q-24 20.5 -24 62.5 q0 26 5 63 l14 103 q6 42 6 65 q0 36 -15 53 q-14 16 -38 16 q-38 0 -59 -34 q-21 -34 -28 -80 l-26 -188 q-6 -40 -30.5 -60.5 q-24.5 -20.5 -58.5 -20.5 q-38 0 -62 20.5 q-24 20.5 -24 62.5 q0 26 5 63 l77 543 q6 41 30 61 q24 20 58 20 q38 0 62 -20.5 q24 -20.5 24 -62.5 Z" /><glyph glyph-name="i" unicode="i" d="M334 684 q0 -43 -30 -73.5 q-30 -30.5 -74 -30.5 q-43 0 -74 30.5 q-31 30.5 -31 73.5 q0 44 31 74 q31 30 74 30 q44 0 74 -30 q30 -30 30 -74 ZM271 398 q0 -20 -4 -62 l-43 -302 q-5 -40 -30 -60.5 q-25 -20.5 -59 -20.5 q-37 0 -61.5 20.5 q-24.5 20.5 -24.5 62.5 q0 26 6 63 l43 301 q5 41 29.5 61 q24.5 20 58.5 20 q37 0 61 -20.5 q24 -20.5 24 -62.5 Z" /><glyph glyph-name="j" unicode="j" d="M340 684 q0 -43 -30.5 -73.5 q-30.5 -30.5 -74.5 -30.5 q-43 0 -73.5 30.5 q-30.5 30.5 -30.5 73.5 q0 44 30.5 74 q30.5 30 73.5 30 q44 0 74.5 -30 q30.5 -30 30.5 -74 ZM21 -303 q-38 0 -62.5 22.5 q-24.5 22.5 -24.5 56.5 q0 29 11.5 46.5 q11.5 17.5 33.5 39.5 q22 22 35 46 q27 45 36 119 l52 373 q6 40 30.5 60.5 q24.5 20.5 58.5 20.5 q37 0 61.5 -20.5 q24.5 -20.5 24.5 -62.5 q0 -27 -5 -62 l-47 -333 q-23 -164 -102 -252 q-48 -54 -102 -54 Z" /><glyph glyph-name="k" unicode="k" d="M593 403 q0 -39 -35 -64 l-118 -81 l84 -165 q16 -32 16 -55 q0 -37 -24.5 -61.5 q-24.5 -24.5 -63.5 -24.5 q-56 0 -81 55 l-72 153 l-65 -44 l-11 -82 q-5 -40 -30 -60.5 q-25 -20.5 -59 -20.5 q-37 0 -61 20.5 q-24 20.5 -24 62.5 q0 26 5 63 l77 543 q6 41 30 61 q24 20 58 20 q37 0 61.5 -20.5 q24.5 -20.5 24.5 -62.5 q0 -20 -5 -62 l-37 -264 l205 150 q24 16 48 16 q32 0 54.5 -22.5 q22.5 -22.5 22.5 -54.5 Z" /><glyph glyph-name="l" unicode="l" d="M304 640 q0 -20 -4 -62 l-77 -544 q-6 -40 -30.5 -60.5 q-24.5 -20.5 -58.5 -20.5 q-38 0 -62 20.5 q-24 20.5 -24 62.5 q0 26 5 63 l77 543 q6 41 30 61 q24 20 58 20 q38 0 62 -20.5 q24 -20.5 24 -62.5 Z" /><glyph glyph-name="m" unicode="m" d="M877 289 q0 -33 -7 -87 l-23 -168 q-6 -40 -30.5 -60.5 q-24.5 -20.5 -58.5 -20.5 q-38 0 -62 20.5 q-24 20.5 -24 62.5 q0 26 5 63 l15 103 q5 42 5 65 q0 39 -13 54 q-13 15 -36 15 q-37 0 -61 -33 q-19 -26 -31 -101 l-23 -168 q-5 -40 -30 -60.5 q-25 -20.5 -59 -20.5 q-37 0 -61.5 20.5 q-24.5 20.5 -24.5 62.5 q0 26 6 63 l14 103 q7 38 7 65 q0 38 -15 54 q-13 15 -36 15 q-36 0 -58 -32 q-20 -27 -30 -89 l-25 -181 q-7 -41 -31 -61 q-24 -20 -58 -20 q-38 0 -62 20.5 q-24 20.5 -24 62.5 q0 26 5 63 l43 309 q6 36 28.5 54.5 q22.5 18.5 53.5 18.5 q60 0 74 -51 l5 0 q38 28 67 38 q36 13 80 13 q48 0 81 -18 q25 -14 46 -42 l4 0 q35 27 76 43 q51 17 98 17 q77 0 118 -38 q52 -52 52 -154 Z" /><glyph glyph-name="n" unicode="n" d="M567 289 q0 -33 -7 -87 l-23 -168 q-6 -40 -30.5 -60.5 q-24.5 -20.5 -59.5 -20.5 q-37 0 -61 20.5 q-24 20.5 -24 62.5 q0 26 5 63 l14 103 q6 32 6 65 q0 36 -15 53 q-14 16 -38 16 q-36 0 -58 -32 q-20 -27 -30 -89 l-25 -181 q-7 -41 -31 -61 q-24 -20 -58 -20 q-38 0 -62 20.5 q-24 20.5 -24 62.5 q0 26 5 63 l43 309 q6 36 28.5 54.5 q22.5 18.5 53.5 18.5 q60 0 75 -51 l4 0 q38 28 67 38 q36 13 80 13 q78 0 121 -51 q44 -52 44 -141 Z" /><glyph glyph-name="o" unicode="o" d="M551 253 q0 -125 -67 -207 q-74 -92 -203 -92 q-107 0 -173 66 q-64 66 -64 165 q0 125 66 206 q75 93 204 93 q105 0 173 -68 q64 -62 64 -163 ZM377 235 q0 43 -18 71 q-19 32 -54 32 q-46 0 -69 -54 q-17 -36 -17 -82 q0 -45 17 -72 q21 -30 53 -33 q45 0 71 57 q17 35 17 81 Z" /><glyph glyph-name="p" unicode="p" d="M554 262 q0 -152 -102 -235 q-88 -70 -224 -70 l-13 0 l-25 -175 q-6 -40 -30.5 -60.5 q-24.5 -20.5 -58.5 -20.5 q-37 0 -61.5 21 q-24.5 21 -24.5 62 q0 26 5 63 l80 561 q4 36 26.5 54.5 q22.5 18.5 53.5 18.5 q41 0 63 -26 l1 0 q53 27 120 27 q78 0 131 -55 q59 -61 59 -165 ZM372 249 q0 38 -17 60 q-17 22 -44 22 q-20 0 -45 -8 l-31 -222 q5 -1 15 -1 q48 0 80 29 q42 42 42 120 Z" /><glyph glyph-name="q" unicode="q" d="M554 393 q0 -12 -6 -50 l-78 -561 q-5 -40 -30 -60.5 q-25 -20.5 -59 -20.5 q-37 0 -61.5 20.5 q-24.5 20.5 -24.5 62.5 q0 26 6 63 l17 125 q-34 -13 -80 -13 q-84 0 -136 55 q-58 59 -58 154 q0 136 83 222 q92 94 239 94 q90 0 141 -17 q47 -15 47 -74 ZM320 119 q20 21 29 75 l20 139 q-20 4 -41 4 q-44 0 -72 -42 q-32 -44 -32 -108 q0 -48 17 -70 q13 -16 35 -16 q26 0 44 18 Z" /><glyph glyph-name="r" unicode="r" d="M527 389 q0 -35 -24.5 -59 q-24.5 -24 -58.5 -24 q-13 0 -47 13 q-29 11 -52 11 q-42 0 -66 -32 q-21 -27 -30 -83 l-25 -181 q-7 -41 -31 -61 q-24 -20 -58 -20 q-37 0 -61.5 20.5 q-24.5 20.5 -24.5 62.5 q0 26 6 63 l43 309 q5 36 27.5 54.5 q22.5 18.5 53.5 18.5 q67 0 77 -61 l4 0 q26 28 55 43 q39 18 91 18 q50 0 81 -21 q40 -25 40 -71 Z" /><glyph glyph-name="s" unicode="s" d="M420 397 q0 -29 -20 -49 q-20 -20 -49 -20 q-15 0 -45 10 q-32 14 -56 14 q-15 0 -27 -7 q-9 -7 -9 -18 q0 -12 12.5 -20.5 q12.5 -8.5 42.5 -23.5 q68 -30 100 -71 q30 -35 30 -86 q0 -84 -68 -131 q-59 -42 -157 -42 q-91 0 -138 26 q-50 25 -50 70 q0 29 19.5 46 q19.5 17 47.5 17 q20 0 58 -16 q44 -17 73 -17 q22 0 34 7 q12 7 12 25 q0 8 -8 17 q-8 9 -16.5 14 q-8.5 5 -27.5 16 q-81 42 -109 82 q-23 35 -23 79 q0 78 59 119 q58 44 156 44 q70 0 114 -20 q45 -22 45 -65 Z" /><glyph glyph-name="t" unicode="t" d="M81 114 q0 27 10 95 l18 124 l-19 0 q-29 0 -49.5 19.5 q-20.5 19.5 -20.5 49.5 q0 29 20.5 50 q20.5 21 49.5 21 l39 0 l12 81 q5 41 29.5 61 q24.5 20 58.5 20 q37 0 62 -20.5 q25 -20.5 25 -62.5 q0 -26 -6 -62 l-3 -17 l69 0 q29 0 50 -21 q21 -21 21 -50 q0 -30 -20.5 -49.5 q-20.5 -19.5 -50.5 -19.5 l-88 0 l-16 -117 q-8 -54 -8 -66 q0 -23 9 -33 q8 -11 27 -11 q19 0 43 10 q20 9 35 9 q29 0 46.5 -18.5 q17.5 -18.5 17.5 -50.5 q0 -44 -48 -73 q-56 -31 -141 -31 q-84 0 -129 43 q-43 42 -43 119 Z" /><glyph glyph-name="u" unicode="u" d="M580 398 q0 -27 -6 -62 l-23 -166 q-14 -106 -83.5 -161 q-69.5 -55 -188.5 -55 q-121 0 -172 48 q-50 44 -50 133 q0 25 6 61 l28 204 q6 41 30 61 q24 20 58 20 q38 0 62 -20.5 q24 -20.5 24 -62.5 q0 -27 -6 -62 l-18 -135 q-5 -33 -5 -44 q0 -27 11 -41 q14 -19 44 -19 q39 0 61 26 q17 21 23 57 l31 220 q5 41 29.5 61 q24.5 20 58.5 20 q37 0 61.5 -20.5 q24.5 -20.5 24.5 -62.5 Z" /><glyph glyph-name="v" unicode="v" d="M572 400 q0 -20 -11 -42 l-175 -329 q-40 -77 -121 -77 q-113 0 -137 107 l-68 307 q-3 23 -3 24 q0 40 25 67 q25 27 66 27 q76 0 88 -81 l41 -259 l3 0 l134 293 q22 47 74 47 q35 0 59.5 -24.5 q24.5 -24.5 24.5 -59.5 Z" /><glyph glyph-name="w" unicode="w" d="M792 411 q0 -30 -16 -66 l-129 -305 q-17 -47 -43 -67.5 q-26 -20.5 -69 -20.5 q-56 0 -85.5 26 q-29.5 26 -38.5 81 l-10 132 l-3 0 l-53 -151 q-32 -88 -118 -88 q-56 0 -85.5 26 q-29.5 26 -38.5 81 l-43 307 q-3 21 -3 33 q0 38 23.5 61.5 q23.5 23.5 64.5 23.5 q81 0 89 -88 l20 -224 l2 0 l88 244 q12 35 33.5 51.5 q21.5 16.5 63.5 16.5 q44 0 63 -23 q19 -23 22 -65 l18 -224 l2 0 l77 225 q17 47 38.5 67 q21.5 20 58.5 20 q35 0 53.5 -20 q18.5 -20 18.5 -53 Z" /><glyph glyph-name="x" unicode="x" d="M531.5 457.5 q23.5 -23.5 23.5 -56.5 q0 -33 -30 -60 l-141 -125 l107 -122 q23 -27 23 -58 q0 -33 -24.5 -57.5 q-24.5 -24.5 -58.5 -24.5 q-40 0 -66 32 l-94 119 l-133 -130 q-21 -21 -52 -21 q-34 0 -55.5 23 q-21.5 23 -21.5 53 q0 38 28 61 l144 126 l-105 128 q-18 21 -18 53 q0 33 24 58 q24 25 59 25 q43 0 70 -36 l84 -118 l123 129 q24 25 59 25 q31 0 54.5 -23.5 Z" /><glyph glyph-name="y" unicode="y" d="M583 402 q0 -27 -12 -49 l-199 -417 q-52 -106 -124 -165 q-83 -68 -194 -68 q-37 0 -59.5 21 q-22.5 21 -22.5 56.5 q0 35.5 24 59 q24 23.5 58 23.5 q54 0 84 17 q29 15 53 47 l-118 407 q-11 38 -11 56 q0 43 24.5 68.5 q24.5 25.5 69.5 25.5 q74 0 94 -91 l52 -245 l3 0 l114 287 q9 22 30.5 35.5 q21.5 13.5 46.5 13.5 q38 0 62.5 -23 q24.5 -23 24.5 -59 Z" /><glyph glyph-name="z" unicode="z" d="M503 396 q0 -39 -30 -69 l-210 -210 l134 0 q32 0 54.5 -22.5 q22.5 -22.5 22.5 -54.5 q0 -32 -22.5 -54 q-22.5 -22 -54.5 -22 l-308 0 q-31 0 -54 22 q-23 22 -23 54 q0 33 27 60 l217 220 l-129 0 q-32 0 -54.5 22 q-22.5 22 -22.5 53.5 q0 31.5 22.5 54.5 q22.5 23 54.5 23 l299 0 q32 0 54.5 -23 q22.5 -23 22.5 -54 Z" /><glyph glyph-name="braceleft" unicode="{" d="M495 729 q0 -63 -68 -71 q-37 -3 -55 -34 q-6 -10 -10.5 -21.5 q-4.5 -11.5 -7.5 -28.5 q-3 -17 -5.5 -29 q-2.5 -12 -5.5 -36 q-3 -24 -5 -36 q-15 -88 -54 -130 q-38 -38 -101 -63 q46 -22 69 -44 q36 -38 36 -99 q0 -29 -10 -87.5 q-10 -58.5 -10 -79.5 q0 -39 22 -57 q9 -8 26.5 -17 q17.5 -9 24.5 -13 q25 -18 25 -50 q0 -29 -20 -49 q-20 -20 -57 -20 q-75 0 -128 35 q-64 42 -64 128 q0 31 12.5 94.5 q12.5 63.5 12.5 91.5 q0 50 -25 76 q-8 7 -44 25 q-42 21 -42 70 q0 68 80 83 q43 9 64 44 q14 25 22 79 q1 9 3.5 36 q2.5 27 4 38.5 q1.5 11.5 5.5 35.5 q4 24 8.5 38.5 q4.5 14.5 12 33 q7.5 18.5 18.5 34 q11 15.5 24 28.5 q65 62 174 62 q33 0 50.5 -18.5 q17.5 -18.5 17.5 -48.5 Z" /><glyph glyph-name="bar" unicode="|" d="M66 -200 l0 838 q0 35 26 60 q26 25 63 25 q37 0 63 -25 q26 -25 26 -60 l0 -838 q0 -36 -26 -61 q-26 -25 -63 -25 q-37 0 -63.5 25 q-26.5 25 -25.5 61 Z" /><glyph glyph-name="braceright" unicode="}" d="M462 276 q0 -67 -80 -83 q-42 -9 -63 -44 q-17 -28 -22 -79 q-1 -11 -4.5 -42 q-3.5 -31 -5 -45 q-1.5 -14 -7 -41 q-5.5 -27 -13 -44 q-7.5 -17 -19.5 -37 q-12 -20 -27 -35 q-65 -62 -174 -62 q-34 0 -51.5 19 q-17.5 19 -17.5 48 q0 63 69 71 q36 3 54 34 q5 10 10 21.5 q5 11.5 8.5 29 q3.5 17.5 5.5 28.5 q2 11 5.5 36.5 q3.5 25.5 5.5 36.5 q13 85 54 129 q34 37 101 63 q-46 22 -69 44 q-36 39 -36 99 q0 29 9.5 87.5 q9.5 58.5 9.5 79.5 q0 38 -22 57 q-8 8 -26.5 17 q-18.5 9 -24.5 13 q-25 17 -25 50 q0 30 20 49.5 q20 19.5 56 19.5 q76 0 130 -35 q64 -42 64 -128 q0 -31 -12.5 -94.5 q-12.5 -63.5 -12.5 -91.5 q0 -51 24 -76 q4 -4 44 -25 q42 -20 42 -70 Z" /><glyph glyph-name="asciitilde" unicode="~" d="M669 325 q0 -69 -53.5 -120 q-53.5 -51 -124.5 -51 q-43 0 -80 14.5 q-37 14.5 -58 33 q-21 18.5 -46.5 33 q-25.5 14.5 -47.5 14.5 q-21 0 -35 -13 q-14 -13 -21 -29.5 q-7 -16.5 -25 -30 q-18 -13.5 -45 -13.5 q-37 0 -58 25.5 q-21 25.5 -21 64.5 q0 72 55 122.5 q55 50.5 123 50.5 q42 0 79 -15 q37 -15 58.5 -33.5 q21.5 -18.5 47 -34 q25.5 -15.5 47.5 -15.5 q20 0 34.5 13.5 q14.5 13.5 21.5 30 q7 16.5 24.5 29.5 q17.5 13 45.5 13 q37 0 58 -24.5 q21 -24.5 21 -64.5 Z" /><glyph glyph-name="periodcentered" unicode="·" d="M275 422 q31 -31 31 -75 q0 -44 -31 -74.5 q-31 -30.5 -75 -30.5 q-44 0 -74.5 30.5 q-30.5 30.5 -30.5 74.5 q0 44 30.5 75 q30.5 31 74.5 31 q44 0 75 -31 Z" /><glyph glyph-name="uni0437" unicode="&#x437;" d="M434 345 q0 -44 -27 -76 q-22 -27 -64 -45 q37 -18 57 -44 q21 -29 21 -70 q0 -73 -60 -115 q-60 -42 -160 -42 q-88 0 -142 26 q-52 23 -52 69 q0 27 20.5 47 q20.5 20 49.5 20 q17 0 41 -11 q45 -20 78 -20 q26 0 41 8 q19 9 19 28.5 q0 19.5 -21 30.5 q-19 9 -54 9 l-52 0 q-25 0 -42.5 17.5 q-17.5 17.5 -17.5 43 q0 25.5 17.5 43 q17.5 17.5 42.5 17.5 l63 0 q33 0 53 9 q22 9 22 27 q0 13 -8 18 q-9 8 -25 8 q-28 0 -61 -13 q-27 -10 -49 -10 q-28 0 -46 16.5 q-18 16.5 -18 43.5 q0 50 64 76 q61 25 136 25 q83 0 127 -34 q47 -35 47 -102 Z" /><glyph glyph-name="emdash" unicode="&#x2014;" d="M169 328 l1063 0 q34 0 59.5 -25.5 q25.5 -25.5 25.5 -60.5 q0 -37 -24.5 -62 q-24.5 -25 -60.5 -25 l-1063 0 q-36 0 -60 25 q-24 25 -24 62 q0 35 25 60.5 q25 25.5 59 25.5 Z" /><glyph glyph-name="quoteleft" unicode="&#x2018;" d="M280.5 613.5 q-12.5 -15.5 -12.5 -33 q0 -17.5 10.5 -30.5 q10.5 -13 23 -21 q12.5 -8 23 -27.5 q10.5 -19.5 10.5 -47.5 q0 -44 -29.5 -71 q-29.5 -27 -79.5 -27 q-55 0 -88.5 34.5 q-33.5 34.5 -33.5 98.5 q0 97 73.5 164.5 q73.5 67.5 139.5 67.5 q15 0 24 -9.5 q9 -9.5 9 -22.5 q0 -15 -12.5 -29 q-12.5 -14 -28.5 -22.5 q-16 -8.5 -28.5 -24 Z" /><glyph glyph-name="quoteright" unicode="&#x2019;" d="M173 500 q0 18 -10.5 30.5 q-10.5 12.5 -23 20.5 q-12.5 8 -23 27.5 q-10.5 19.5 -10.5 48.5 q0 44 29.5 70.5 q29.5 26.5 79.5 26.5 q55 0 88.5 -34.5 q33.5 -34.5 33.5 -98.5 q0 -96 -74.5 -164.5 q-74.5 -68.5 -140.5 -68.5 q-14 0 -23.5 9.5 q-9.5 9.5 -9.5 22.5 q0 15 13.5 29 q13.5 14 28.5 23 q15 9 28.5 24 q13.5 15 13.5 34 Z" /><glyph glyph-name="quotedblleft" unicode="&#x201c;" d="M554 581 q0 -17 10.5 -29.5 q10.5 -12.5 23 -21 q12.5 -8.5 23 -27.5 q10.5 -19 10.5 -48 q0 -44 -29.5 -71 q-29.5 -27 -79.5 -27 q-55 0 -88.5 34.5 q-33.5 34.5 -33.5 98.5 q0 97 74.5 165 q74.5 68 140.5 68 q14 0 23.5 -9 q9.5 -9 9.5 -23 q0 -15 -13.5 -28.5 q-13.5 -13.5 -29 -22.5 q-15.5 -9 -28.5 -24.5 q-13 -15.5 -13 -34.5 ZM268 581 q0 -17 10.5 -29.5 q10.5 -12.5 23 -21 q12.5 -8.5 23 -27.5 q10.5 -19 10.5 -48 q0 -44 -29.5 -71 q-29.5 -27 -79.5 -27 q-55 0 -88.5 34.5 q-33.5 34.5 -33.5 98.5 q0 97 74.5 165 q74.5 68 140.5 68 q14 0 23.5 -9 q9.5 -9 9.5 -23 q0 -15 -13.5 -28.5 q-13.5 -13.5 -29 -22.5 q-15.5 -9 -28.5 -24.5 q-13 -15.5 -13 -34.5 Z" /><glyph glyph-name="quotedblright" unicode="&#x201d;" d="M173 500 q0 18 -10.5 30.5 q-10.5 12.5 -23 20.5 q-12.5 8 -23 27.5 q-10.5 19.5 -10.5 48.5 q0 44 29.5 70.5 q29.5 26.5 79.5 26.5 q55 0 88.5 -34.5 q33.5 -34.5 33.5 -98.5 q0 -96 -74.5 -164.5 q-74.5 -68.5 -140.5 -68.5 q-14 0 -23.5 9.5 q-9.5 9.5 -9.5 22.5 q0 15 13.5 29 q13.5 14 28.5 23 q15 9 28.5 24 q13.5 15 13.5 34 ZM459 500 q0 18 -10.5 30.5 q-10.5 12.5 -23 20.5 q-12.5 8 -23 27.5 q-10.5 19.5 -10.5 48.5 q0 44 29.5 70.5 q29.5 26.5 79.5 26.5 q55 0 88.5 -34.5 q33.5 -34.5 33.5 -98.5 q0 -96 -74.5 -164.5 q-74.5 -68.5 -140.5 -68.5 q-14 0 -23.5 9.5 q-9.5 9.5 -9.5 22.5 q0 15 13.5 29 q13.5 14 28.5 23 q15 9 28.5 24 q13.5 15 13.5 34 Z" /><glyph glyph-name="bullet" unicode="&#x2022;" d="M118.5 182.5 q-65.5 65.5 -65.5 157 q0 91.5 65.5 157 q65.5 65.5 157 65.5 q91.5 0 156.5 -65.5 q65 -65.5 65 -157 q0 -91.5 -65 -157 q-65 -65.5 -156.5 -65.5 q-91.5 0 -157 65.5 Z" /><glyph glyph-name="ellipsis" unicode="&#x2026;" d="M1067 135 q31 -31 31 -75 q0 -44 -31 -75 q-31 -31 -75 -31 q-44 0 -74.5 31 q-30.5 31 -30.5 75 q0 44 30.5 75 q30.5 31 74.5 31 q44 0 75 -31 ZM652.5 135 q30.5 -31 30.5 -75 q0 -44 -30.5 -75 q-30.5 -31 -74.5 -31 q-44 0 -75 31 q-31 31 -31 75 q0 44 31 75 q31 31 75 31 q44 0 74.5 -31 ZM237.5 135 q30.5 -31 30.5 -75 q0 -44 -30.5 -75 q-30.5 -31 -74.5 -31 q-44 0 -75 31 q-31 31 -31 75 q0 44 31 75 q31 31 75 31 q44 0 74.5 -31 Z" /><glyph glyph-name="angle" unicode="&#x2220;" d="M846 130 q41 0 41 -51 q0 -50 -41 -50 l-690 0 q-60 0 -18 42 l586 592 q28 29 64 -7 q36 -36 7 -64 l-441 -441 q-18 -18 8 -18 l484 -3 Z" /><glyph glyph-name="uni2E9F" unicode="&#x2e9f;&#x6bcd;" d="M542 183 l162 0 l19 204 l-439 0 l-28 -179 q-4 -25 22 -25 l249 0 q-57 60 -127 100 q-41 26 -4 61 q38 35 82 9 q83 -43 103 -70 q33 -31 -1 -64 l-38 -36 ZM735 669 q1 26 -25 26 l-360 0 q-26 0 -29 -25 l-23 -173 l219 0 q41 0 -20 45 q-61 45 -85 84 l15 22 q35 36 78 13 q72 -34 93 -59 q37 -31 5 -66 l-37 -39 l162 0 l7 172 ZM911 497 q41 0 41 -55 q0 -55 -41 -55 l-68 0 l-17 -204 l61 0 q41 0 41 -54 q0 -54 -41 -54 l-78 0 q-14 -67 -35 -96 q-35 -52 -92 -60 q-57 -9 -115 -5 q-50 2 -67 55 q-16 52 21 48 q22 -2 97 -2 q30 0 45 20 l20 40 l-518 0 q-60 0 -51 48 q16 74 46 264 l-69 0 q-41 0 -41 55 q0 55 41 55 l85 0 q18 125 29 251 q6 55 53 55 l554 0 q49 0 47 -50 q-1 -105 -10 -256 l62 0 Z" /><glyph glyph-name="uni2EA0" unicode="&#x2ea0;&#x6c11;" d="M237 364 l233 0 l-15 113 l-218 0 l0 -113 ZM719 666 q0 26 -26 26 l-430 0 q-26 0 -26 -26 l0 -79 l456 0 q26 0 26 26 l0 53 ZM910 308 q0 -55 -41 -55 l-244 0 q32 -93 77 -152 q46 -58 87 -58 q33 0 34 72 q6 69 57 41 q52 -28 44 -83 q-4 -65 -38 -106 q-33 -42 -104 -42 q-92 0 -168 90 q-75 91 -118 238 l-259 0 l0 -161 q0 -25 25 -20 l183 42 q40 9 46 -47 q6 -56 -65 -73 q-260 -65 -281 -72 l0 0 q-31 -14 -58 39 q-26 52 7 82 q18 2 18 56 l0 655 q0 48 48 48 l632 0 q48 0 48 -48 l0 -229 q0 -48 -48 -48 l-214 0 l16 -113 l275 0 q41 0 41 -56 Z" /><glyph glyph-name="uni2EC5" unicode="&#x2ec5;&#x89c1;" d="M307 681 q-26 0 -26 -26 l0 -389 q0 -41 -62 -41 q-62 0 -62 41 l0 488 q0 48 48 48 l590 0 q47 0 47 -48 l0 -488 q0 -41 -65 -41 q-65 0 -65 41 l0 389 q0 26 -26 26 l-379 0 ZM668 51 l131 0 q32 0 41 24 q9 25 9 64 q4 57 58 34 q54 -23 47 -78 q-3 -69 -35 -111 q-31 -42 -111 -42 l-153 0 q-90 0 -124 31 q-33 30 -33 114 l0 117 q-43 -106 -136 -178 q-92 -72 -205 -100 q-52 -16 -74 24 l-9 15 q-39 49 29 67 l118 48 q36 21 64 41 q29 21 50 49 q21 29 36 54 q15 25 25 62 q10 38 16 68 q6 30 9 76 q8 123 7 147 q1 29 64 29 q63 0 61 -53 q-3 -145 -20 -224 q-4 -21 22 -21 l12 0 q48 0 48 -48 l0 -171 q0 -25 9 -32 q10 -6 44 -6 Z" /><glyph glyph-name="uni2ECB" unicode="&#x2ecb;&#x8f66;" d="M910 201 q41 0 41 -58 q0 -58 -41 -58 l-289 0 l0 -131 q0 -41 -64 -41 q-64 0 -64 41 l0 131 l-402 0 q-41 0 -41 58 q0 58 41 58 l402 0 l0 110 l-212 0 q-98 0 -93 -7 q-22 -8 -44 53 q-21 61 4 76 q5 -6 50 61 l56 98 l-142 0 q-41 0 -41 57 q0 58 41 58 l197 0 l43 111 q14 38 84 20 q70 -17 54 -54 l-35 -77 l435 0 q41 0 41 -58 q0 -57 -41 -57 l-495 0 l-91 -146 q-13 -22 13 -22 l176 0 l0 89 q0 41 64 41 q64 0 64 -41 l0 -89 l204 0 q41 0 41 -57 q0 -56 -41 -56 l-204 0 l0 -110 l289 0 Z" /><glyph glyph-name="uni2ED3" unicode="&#x2ed3;&#x957f;" d="M724 801 q27 27 87 1 q61 -26 34 -54 q-42 -48 -146 -119 q-103 -70 -171 -100 q-35 -17 -84 32 q-48 50 -10 64 q66 23 162 80 q96 58 128 96 ZM948 412 q0 -59 -41 -59 l-309 0 q110 -227 329 -282 q45 -12 3 -69 q-41 -57 -83 -42 q-111 34 -211 135 q-100 101 -161 258 l-125 0 l0 -262 l174 38 q40 8 45 -49 q6 -57 -51 -71 q-142 -34 -207 -53 q-65 -19 -61 -20 q-28 -14 -51 37 q-23 50 10 77 q15 -3 15 50 l0 253 l-129 0 q-41 0 -41 59 q0 60 41 60 l129 0 l0 330 q0 41 63 41 q63 0 63 -41 l0 -330 l557 0 q41 0 41 -60 Z" /><glyph glyph-name="uni2ED4" unicode="&#x2ed4;&#x95e8;" d="M204 -44 q0 -41 -61 -41 q-61 0 -61 41 l0 631 q0 41 61 41 q61 0 61 -41 l0 -631 ZM150 746 q-37 46 8 77 q46 31 87 -17 q76 -86 94 -119 q14 -20 -36 -55 q-49 -35 -64 -9 q-22 46 -89 123 ZM647 -30 q-19 56 37 53 q55 -3 90 1 q15 0 21 5 q6 6 6 21 l0 624 q0 26 -26 26 l-369 0 q-41 0 -41 57 q0 57 41 57 l468 0 q48 0 48 -48 l0 -717 q0 -49 -13 -75 q-12 -26 -44 -40 q-47 -22 -141 -19 q-57 -1 -77 55 Z" /><glyph glyph-name="uni2EDA" unicode="&#x2eda;&#x9875;" d="M150 552 q0 48 48 48 l187 0 l26 90 l-301 0 q-41 0 -41 55 q0 55 41 55 l788 0 q41 0 41 -55 q0 -55 -41 -55 l-352 0 l-43 -90 l313 0 q48 0 48 -48 l0 -371 q0 -41 -64 -41 q-64 0 -64 41 l0 283 q0 26 -26 26 l-412 0 q-26 0 -26 -26 l0 -286 q0 -41 -61 -41 q-61 0 -61 41 l0 374 ZM502 449 q62 0 62 -41 l0 -140 q0 -58 -19 -106 q-18 -47 -65 -96 q-95 -98 -311 -141 q-54 -13 -91 35 q-36 48 20 59 q222 40 301 135 q25 31 33 58 l8 196 q1 41 62 41 ZM570 79 q-35 17 -1 57 q34 41 69 26 q53 -20 154 -70 q102 -49 130 -70 q28 -17 -8 -63 q-36 -47 -64 -28 q-26 20 -126 72 q-99 53 -154 76 Z" /><glyph glyph-name="uni2EDB" unicode="&#x2edb;&#x98ce;" d="M570 601 q14 41 66 26 q52 -15 38 -55 q-30 -98 -97 -224 q103 -141 134 -208 q15 -28 -39 -59 q-54 -30 -69 -1 q-18 43 -91 157 q-86 -128 -156 -185 q-28 -24 -71 21 q-42 46 -13 69 q79 57 170 198 q-66 96 -133 180 q-28 37 20 62 q48 26 75 -8 q42 -50 100 -127 q47 91 66 154 ZM147 765 q0 48 48 48 l599 0 q49 0 48 -70 q-4 -362 3 -528 q8 -166 46 -166 q15 0 15 78 q4 71 40 24 q36 -46 30 -99 q-2 -47 -24 -88 q-22 -41 -71 -41 q-107 0 -133 164 q-25 165 -25 574 q1 38 -25 38 l-401 0 q-26 0 -26 -26 l0 -140 q0 -425 -121 -591 q-21 -34 -58 1 l-10 9 l-13 9 q-39 27 -15 65 q54 75 76 236 q17 130 17 271 l0 232 Z" /><glyph glyph-name="uni2EDC" unicode="&#x2edc;&#x98de;" d="M935 370 q24 -17 -6 -65 q-30 -48 -53 -31 q-36 34 -185 116 q16 -164 53 -249 q38 -85 101 -84 q31 0 32 98 q4 72 48 34 q44 -37 38 -91 q-3 -70 -31 -118 q-28 -48 -93 -48 q-64 0 -113 35 q-48 34 -79 94 q-31 61 -51 157 q-34 163 -40 423 q0 33 -26 33 l-433 0 q-41 0 -41 62 q0 62 41 62 l531 0 q49 0 48 -52 q-1 -76 4 -186 q101 94 139 147 q23 29 76 0 q54 -29 25 -60 q-69 -77 -157 -149 q-23 -18 11 -35 q119 -57 161 -93 Z" /><glyph glyph-name="uni2EDD" unicode="&#x2edd;&#x98df;" d="M570 574 l108 0 q-101 59 -176 134 q-72 -71 -176 -134 l120 0 l-11 20 q-20 35 32 49 q53 15 74 -20 l29 -49 ZM722 182 q22 15 -4 15 l-186 0 q39 -17 121 -57 q48 26 69 42 ZM324 82 q0 -26 25 -23 l186 28 l-49 24 q-54 26 -10 66 l22 20 l-174 0 l0 -115 ZM324 344 l0 -55 l323 0 q26 0 26 26 l0 29 l-349 0 ZM673 482 l-349 0 l0 -52 l349 0 l0 52 ZM540 834 q54 -25 31 -55 l0 0 q70 -68 182 -121 q112 -53 195 -69 q41 -9 3 -61 q-38 -51 -76 -40 q-17 4 -81 30 l0 -285 l0 0 q21 16 64 -20 q44 -35 7 -59 q-40 -28 -112 -66 q101 -55 127 -76 q27 -18 -15 -58 q-42 -41 -69 -21 q-71 55 -247 146 q-3 -41 -2 -42 q4 -50 -64 -61 l-190 -33 l-45 -14 q-39 -11 -59 39 q-20 49 9 76 q7 -12 7 36 l0 430 q-46 -23 -61 -28 q-39 -15 -76 32 q-37 47 2 60 q104 33 226 110 q123 78 168 144 q23 31 76 6 Z" /><glyph glyph-name="uni2EE2" unicode="&#x2ee2;&#x9a6c;" d="M673 213 q41 0 41 -57 q0 -57 -41 -57 l-576 0 q-41 0 -41 57 q0 57 41 57 l576 0 ZM762 415 l132 0 q41 0 39 -26 q-2 -25 -7 -78 q-12 -138 -32 -230 q-19 -92 -51 -126 q-32 -34 -91 -40 q-59 -6 -113 -2 q-49 1 -68 58 q-19 56 21 53 q32 -3 105 -3 q31 0 46 13 q38 32 57 227 q5 43 -20 43 l-553 0 q-51 0 -44 49 q15 88 24 233 q4 47 64 43 q60 -4 55 -55 q-7 -85 -14 -135 q-2 -24 24 -24 l307 0 q16 124 25 237 q3 28 -23 28 l-477 0 q-41 0 -41 57 q0 58 41 58 l582 -3 q49 0 46 -39 q-6 -103 -34 -338 Z" /><glyph glyph-name="uni2EE5" unicode="&#x2ee5;&#x9c7c;" d="M543 653 q15 20 -11 20 l-201 0 l-57 -62 q-17 -19 9 -19 l213 0 l47 61 ZM738 406 l0 62 q0 26 -26 26 l-152 0 l0 -88 l178 0 ZM712 227 q26 0 26 26 l0 63 l-178 0 l0 -89 l152 0 ZM271 406 l173 0 l0 88 l-173 0 l0 -88 ZM444 316 l-173 0 l0 -63 q0 -26 26 -26 l147 0 l0 89 ZM204 129 q-48 0 -48 47 l0 329 l-3 -3 q-42 -30 -81 19 q-38 49 -2 72 q143 88 217 222 q24 39 88 25 q65 -13 43 -47 l-10 -16 l201 5 q41 0 81 -25 q40 -25 18 -59 l-70 -106 l172 0 q48 0 48 -48 l0 -367 q0 -48 -48 -48 l-606 0 ZM96 -51 q-41 0 -41 56 q0 56 41 56 l806 0 q41 0 41 -56 q0 -56 -41 -56 l-806 0 Z" /><glyph glyph-name="uni2EE7" unicode="&#x2ee7;&#x5364;" d="M783 59 l0 405 q0 26 -26 26 l-125 0 l46 -17 q56 -21 20 -73 q-20 -34 -85 -102 q88 -68 109 -95 q23 -24 -21 -73 q-43 -49 -67 -23 q-27 34 -112 103 q-84 -75 -150 -113 q-35 -21 -87 23 q-52 45 -15 63 q67 32 153 104 q-86 60 -128 84 q-32 20 7 62 q40 43 78 20 q59 -32 133 -83 l92 120 l-369 0 q-26 0 -26 -26 l0 -405 l573 0 ZM885 767 q41 0 41 -53 q0 -53 -41 -53 l-342 0 l0 -69 l310 0 q48 0 48 -48 l0 -591 q0 -41 -59 -41 q-59 0 -59 45 l-573 0 l0 -6 q0 -41 -56 -41 q-56 0 -56 41 l0 593 q0 48 48 48 l276 0 l0 214 q0 41 60 41 q61 0 61 -41 l0 -39 l342 0 Z" /><glyph glyph-name="uni2EE8" unicode="&#x2ee8;&#x9ea6;" d="M640 235 l-238 0 q-26 0 -10 -17 q32 -36 113 -81 q84 45 135 98 ZM703 336 q41 0 81 -23 q40 -23 19 -58 q-44 -85 -174 -170 q140 -47 297 -59 q48 -4 12 -58 q-35 -55 -82 -49 q-193 20 -354 97 q-164 -73 -353 -99 q-46 -7 -72 46 q-25 52 19 57 q144 14 291 66 q-65 46 -119 113 q-71 -44 -104 -58 q-35 -16 -76 27 q-41 43 2 60 q139 52 235 161 l-236 0 q-41 0 -41 49 q0 49 41 49 l349 0 l0 52 l-240 0 q-41 0 -41 46 q0 46 41 46 l240 0 l0 49 l-302 0 q-41 0 -41 49 q0 49 41 49 l302 0 l0 28 q0 41 59 41 q59 0 59 -41 l0 -28 l307 0 q41 0 41 -49 q0 -49 -41 -49 l-307 0 l0 -49 l250 0 q41 0 41 -46 q0 -46 -41 -46 l-250 0 l0 -52 l357 0 q41 0 41 -49 q0 -49 -41 -49 l-436 0 l-50 -58 l276 5 Z" /><glyph glyph-name="uni2EE9" unicode="&#x2ee9;&#x9ec4;" d="M408 669 l0 -60 l187 0 l0 60 l-187 0 ZM740 343 q0 26 -26 26 l-152 0 l0 -55 l178 0 l0 29 ZM714 179 q26 0 26 26 l0 32 l-178 0 l0 -58 l152 0 ZM266 237 l0 -32 q0 -26 26 -26 l147 0 l0 58 l-173 0 ZM292 369 q-26 0 -26 -26 l0 -29 l173 0 l0 55 l-147 0 ZM910 609 q41 0 41 -54 q0 -54 -41 -54 l-348 0 l0 -50 l250 0 q48 0 48 -48 l0 -258 q0 -48 -48 -48 l-138 0 q169 -59 239 -91 q31 -12 -12 -52 q-42 -40 -76 -23 q-91 45 -186 78 q-67 26 -27 71 l15 17 l-272 0 l39 -28 q49 -34 -5 -65 q-74 -47 -214 -82 q-43 -12 -85 30 q-41 42 3 53 q121 27 234 92 l-128 0 q-48 0 -48 48 l0 258 q0 48 48 48 l240 0 l0 50 l-346 0 q-41 0 -41 54 q0 54 41 54 l194 0 l0 60 l-123 0 q-41 0 -41 52 q0 53 41 53 l123 0 l0 32 q0 41 60 41 q61 0 61 -41 l0 -32 l187 0 l0 32 q0 41 61 41 q62 0 62 -41 l0 -32 l124 0 q41 0 41 -53 q0 -52 -41 -52 l-124 0 l0 -60 l192 0 Z" /><glyph glyph-name="uni2EEC" unicode="&#x2eec;&#x9f50;" d="M243 224 l0 66 q0 41 59 41 q60 0 60 -41 l0 -70 q0 -161 -80 -242 q-35 -37 -51 -43 q-37 -23 -84 22 q-46 44 -5 67 q48 21 77 84 q24 52 24 116 ZM761 -47 q0 -41 -62 -41 q-62 0 -62 41 l0 334 q0 41 62 41 q62 0 62 -41 l0 -334 ZM639 654 l-293 0 q63 -66 159 -113 q81 46 134 113 ZM896 754 q41 0 41 -50 q0 -50 -41 -50 l-111 0 q-63 -98 -156 -162 q146 -47 300 -59 q46 -3 11 -58 q-35 -54 -82 -49 q-188 19 -352 94 q-162 -75 -361 -106 q-46 -7 -79 46 q-32 53 15 58 q164 18 307 69 q-98 65 -171 167 l-116 0 q-41 0 -41 50 q0 50 41 50 l358 0 l-22 36 q-21 35 36 50 q58 16 79 -19 l42 -67 l302 0 Z" /><glyph glyph-name="uni2EEE" unicode="&#x2eee;&#x9f7f;" d="M784 54 l0 341 q0 41 61 41 q62 0 62 -41 l0 -440 q0 -41 -62 -41 q-61 0 -61 37 l0 0 l-629 0 q-48 0 -48 48 l0 395 q0 41 61 41 q62 0 62 -41 l0 -314 q0 -26 26 -26 l528 0 ZM458 402 q13 49 69 39 q56 -9 44 -50 q-3 -20 -27 -72 q175 -121 211 -156 q19 -15 -21 -54 q-39 -39 -58 -23 q-29 31 -179 145 q-71 -104 -139 -144 q-33 -22 -80 13 q-46 36 -9 56 q153 74 189 246 ZM567 580 l348 0 q41 0 41 -54 q0 -53 -41 -53 l-824 0 q-41 0 -41 53 q0 54 41 54 l102 0 l0 176 q0 41 59 41 q59 0 59 -41 l0 -176 l132 0 l0 225 q0 41 62 41 q62 0 62 -41 l0 -40 l257 0 q41 0 41 -50 q0 -49 -41 -49 l-257 0 l0 -86 Z" /><glyph glyph-name="uni2EF0" unicode="&#x2ef0;&#x9f99;" d="M625 735 q-48 38 -9 69 q40 32 88 -2 q79 -53 111 -86 q22 -19 -20 -55 q-41 -36 -60 -18 q-26 29 -110 92 ZM687 44 l126 0 q27 0 36 21 q9 21 8 39 q6 54 60 31 q54 -23 46 -76 q-3 -49 -34 -87 q-31 -38 -105 -38 l-153 0 q-69 0 -102 18 q-33 17 -44 60 q-66 -42 -92 -54 q-34 -18 -75 29 q-41 47 -3 64 q71 31 162 98 l0 365 l-83 0 q-31 -210 -104 -355 q-73 -144 -176 -212 q-34 -25 -80 26 q-46 51 -10 73 q88 50 154 170 q66 121 93 298 l-220 0 q-41 0 -41 55 q0 56 41 56 l234 0 q10 97 11 177 q2 46 64 43 q63 -2 60 -46 q-2 -72 -12 -174 l461 0 q41 0 41 -56 q0 -55 -41 -55 l-271 0 l0 -263 q107 107 148 191 q19 35 74 12 q56 -23 35 -59 q-85 -155 -257 -298 q0 -36 8 -45 q9 -8 41 -8 Z" /><glyph glyph-name="uni2F1D" unicode="&#x2f1d;&#x53e3;" d="M233 137 l530 0 l0 465 q0 26 -26 26 l-478 0 q-26 0 -26 -26 l0 -465 ZM108 701 q0 48 48 48 l690 0 q48 0 48 -48 l0 -725 q0 -41 -66 -41 q-65 0 -65 41 l0 38 l-530 0 l0 -40 q0 -41 -63 -41 q-62 0 -62 41 l0 727 Z" /><glyph glyph-name="uni2F29" unicode="&#x2f29;&#x5c0f;" d="M271 -24 q-23 62 36 59 q62 -2 90 -1 q28 2 35 8 q7 6 7 20 l0 730 q0 41 64 41 q65 0 65 -41 l0 -730 q0 -54 -14 -82 q-14 -29 -47 -43 q-57 -23 -156 -22 q-56 -1 -80 61 ZM695 536 q-18 36 40 58 q59 22 78 -14 q46 -78 98 -201 q53 -122 63 -178 q8 -33 -57 -59 q-65 -25 -72 8 q-8 55 -57 181 q-49 127 -93 205 ZM169 565 q8 40 76 28 q68 -11 54 -67 q-57 -257 -140 -365 q-17 -24 -75 7 q-58 31 -37 60 q34 41 73 153 q39 112 49 184 Z" /><glyph glyph-name="uni2F4A" unicode="&#x2f4a;&#x6728;" d="M898 615 q41 0 41 -59 q0 -59 -40 -59 l-287 0 q63 -117 162 -220 q99 -103 174 -143 q34 -19 -11 -71 q-44 -52 -76 -31 q-155 99 -297 332 l0 -410 q0 -41 -64 -41 q-63 0 -63 41 l0 405 q-140 -233 -299 -331 q-31 -21 -76 30 q-44 51 -11 70 q76 40 173 144 q98 104 161 225 l-281 0 q-40 0 -40 59 q0 59 41 59 l332 0 l0 191 q0 41 63 41 q64 0 64 -41 l0 -191 l334 0 Z" /><glyph glyph-name="uni2F51" unicode="&#x2f51;&#x6bdb;" d="M577 45 l199 0 q44 0 58 24 q14 24 13 52 q6 55 64 30 q58 -24 49 -77 q-5 -61 -42 -103 q-37 -43 -132 -43 l-220 0 q-111 0 -150 38 q-39 37 -39 143 l0 71 l-269 -35 q-40 -5 -48 52 q-8 58 32 63 l285 35 l0 111 l-235 -32 q-40 -5 -49 52 q-8 57 32 62 l252 33 l0 111 q-134 -24 -239 -37 q-42 -5 -60 47 q-18 52 23 57 q156 20 340 60 q184 40 269 74 q32 13 81 -36 q50 -48 18 -60 q-98 -37 -308 -81 l0 -118 l319 43 q40 5 48 -51 q9 -55 -31 -60 l-336 -47 l0 -112 l382 49 q40 5 48 -51 q8 -56 -32 -61 l-398 -52 l0 -87 q0 -42 13 -53 q13 -11 63 -11 Z" /><glyph glyph-name="uni2F7D" unicode="&#x2f7d;&#x800c;" d="M955 749 q0 -60 -41 -60 l-362 0 l-36 -105 l347 0 q48 0 48 -48 l0 -497 q0 -43 -10 -66 q-10 -24 -36 -38 q-42 -20 -99 -18 q-54 -2 -73 52 q-19 54 7 53 q-6 0 72 0 q10 0 14 4 q4 4 4 14 l0 407 q0 26 -26 26 l-92 0 l0 -488 q0 -41 -60 -41 q-59 0 -59 41 l0 488 l-110 0 l0 -488 q0 -41 -59 -41 q-59 0 -59 41 l0 488 l-81 0 q-26 0 -26 -26 l0 -493 q0 -41 -62 -41 q-61 0 -61 41 l0 582 q0 48 48 48 l243 0 l25 105 l-322 0 q-41 0 -41 60 q0 61 41 61 l825 0 q41 0 41 -61 Z" /><glyph glyph-name="uni2F7F" unicode="&#x2f7f;&#x8033;" d="M336 253 l0 -110 q88 6 330 23 l0 87 l-330 0 ZM666 689 l-330 0 l0 -111 l330 0 l0 111 ZM336 468 l0 -104 l330 0 l0 104 l-330 0 ZM46 63 q-6 62 35 64 l127 8 l0 554 l-106 0 q-41 0 -41 59 q0 60 41 60 l799 0 q41 0 41 -60 q0 -59 -41 -59 l-106 0 l0 -514 l119 9 q41 3 39 -56 q-2 -58 -43 -61 l-115 -10 l0 -102 q0 -41 -65 -41 q-64 0 -64 41 l0 93 q-76 -6 -544 -41 q-69 -5 -76 56 Z" /><glyph glyph-name="uni2F9B" unicode="&#x2f9b;&#x8d70;" d="M558 200 l0 -148 q67 -12 160 -12 q85 -2 200 0 q53 1 32 -56 q-21 -58 -62 -58 l-177 0 q-164 0 -276 40 q-111 39 -185 145 q-55 -132 -110 -173 q-27 -25 -72 13 q-44 38 -15 64 q48 35 90 142 q42 108 48 187 q6 42 67 35 q62 -7 54 -51 q-4 -29 -20 -88 q49 -102 120 -138 q24 -12 24 14 l0 311 l-337 0 q-41 0 -41 55 q0 56 41 56 l337 0 l0 97 l-249 0 q-41 0 -41 54 q0 55 41 55 l249 0 l0 61 q0 41 61 41 q61 0 61 -41 l0 -61 l267 0 q41 0 41 -55 q0 -54 -41 -54 l-267 0 l0 -97 l345 0 q41 0 41 -56 q0 -55 -41 -55 l-345 0 l0 -121 l278 0 q41 0 41 -53 q0 -53 -41 -53 l-278 0 Z" /><glyph glyph-name="uni3001" unicode="&#x3001;" d="M308 -23 q-53 -46 -79 -15 q-69 85 -154 158 q-35 32 17 77 q52 45 79 21 q25 -18 88 -83 q64 -64 80 -85 q23 -27 -31 -73 Z" /><glyph glyph-name="uni3002" unicode="&#x3002;" d="M32 86 q0 67 47.5 114.5 q47.5 47.5 114 47.5 q66.5 0 114 -47.5 q47.5 -47.5 47.5 -114.5 q0 -67 -47.5 -114.5 q-47.5 -47.5 -114 -47.5 q-66.5 0 -114 47.5 q-47.5 47.5 -47.5 114.5 ZM104 86 q0 -37 26.5 -63.5 q26.5 -26.5 63 -26.5 q36.5 0 63 26 q26.5 26 26.5 64 q0 38 -26.5 64 q-26.5 26 -63 26 q-36.5 0 -63 -26.5 q-26.5 -26.5 -26.5 -63.5 Z" /><glyph glyph-name="uni300A" unicode="&#x300a;" d="M611 380 l173 -409 q16 -37 -26 -50 q-41 -13 -56 24 l-184 435 l184 435 q15 37 56 24 q42 -13 26 -50 l-173 -409 ZM783 380 l174 -409 q16 -37 -26 -50 q-42 -13 -57 24 l-183 435 l183 435 q15 37 57 24 q42 -13 26 -50 l-174 -409 Z" /><glyph glyph-name="uni300B" unicode="&#x300b;" d="M298 -55 q-15 -37 -57 -24 q-41 13 -25 50 l173 409 l-173 409 q-16 37 25 50 q42 13 57 -24 l184 -435 l-184 -435 ZM126 -55 q-15 -37 -57 -24 q-42 13 -26 50 l174 409 l-174 409 q-16 37 26 50 q42 13 57 -24 l183 -435 l-183 -435 Z" /><glyph glyph-name="uni300C" unicode="&#x300c;" d="M931 852 q41 0 41 -54 q0 -54 -41 -54 l-146 0 q-26 0 -26 -26 l0 -464 q0 -41 -59 -41 q-59 0 -59 41 l0 550 q0 48 48 48 l242 0 Z" /><glyph glyph-name="uni300D" unicode="&#x300d;" d="M69 -92 q-41 0 -41 54 q0 54 41 54 l146 0 q26 0 26 26 l0 464 q0 41 59 41 q60 0 60 -41 l0 -550 q0 -48 -48 -48 l-243 0 Z" /><glyph glyph-name="uni300E" unicode="&#x300e;" d="M792 239 q0 -48 -48 -48 l-96 0 q-48 0 -48 47 l0 566 q0 48 48 48 l276 0 q48 0 48 -48 l0 -82 q0 -48 -48 -48 l-106 0 q-26 0 -26 -26 l0 -409 ZM644 261 q0 -26 26 -26 l53 0 q26 0 26 26 l0 409 q0 48 48 48 l105 0 q26 0 26 25 l0 39 q0 26 -26 26 l-232 0 q-26 0 -26 -26 l0 -521 Z" /><glyph glyph-name="uni300F" unicode="&#x300f;" d="M208 521 q0 48 48 48 l96 0 q48 0 48 -47 l0 -566 q0 -48 -48 -48 l-276 0 q-48 0 -48 48 l0 82 q0 48 48 48 l106 0 q26 0 26 26 l0 409 ZM356 499 q0 26 -26 26 l-53 0 q-26 0 -26 -26 l0 -409 q0 -48 -48 -48 l-105 0 q-26 0 -26 -25 l0 -39 q0 -26 26 -26 l232 0 q26 0 26 26 l0 521 Z" /><glyph glyph-name="uni3010" unicode="&#x3010;" d="M931 847 q41 0 12 -27 q-58 -48 -114 -171 q-55 -122 -55 -269 q0 -147 55 -270 q56 -122 114 -174 q29 -28 -12 -28 l-223 0 q-48 0 -48 48 l0 848 q0 48 48 48 l223 -5 Z" /><glyph glyph-name="uni3011" unicode="&#x3011;" d="M69 -87 q-41 0 -13 27 q59 48 114 170 q56 123 56 270 q0 147 -56 269 q-55 123 -114 175 q-28 28 13 28 l223 0 q48 0 48 -48 l0 -848 q0 -48 -48 -48 l-223 5 Z" /><glyph glyph-name="uni301C" unicode="&#x301c;&#xff5e;" d="M455 337 q-36 38 -68 55 q-32 17 -80 17 q-48 0 -89 -33 q-41 -32 -48 -50 q-23 -37 -78 -7 q-55 30 -32 68 q26 53 96 99 q71 47 153 47 q135 0 236 -110 q35 -38 67 -55 q33 -17 81 -17 q48 0 89 32 q41 33 47 50 q24 38 79 8 q55 -30 31 -69 q-25 -52 -96 -99 q-70 -46 -152 -46 q-135 0 -236 110 Z" /><glyph glyph-name="uni3044" unicode="&#x3044;" d="M200 716 q60 -1 52 -49 q-16 -76 2 -286 q24 -243 107 -243 q32 0 60 60 q28 61 29 76 q17 61 55 15 l35 -43 q27 -33 6 -84 q-27 -76 -77 -130 q-49 -54 -111 -54 q-89 0 -151 88 q-62 89 -82 279 q-11 101 -11 216 q0 115 -4 113 q-4 43 56 43 l34 -1 ZM696 671 q64 21 84 -6 q48 -55 100 -212 q53 -157 58 -244 q4 -35 -62 -61 q-65 -25 -70 14 q-9 106 -54 255 q-45 150 -97 206 q-22 28 41 48 Z" /><glyph glyph-name="uni3057" unicode="&#x3057;" d="M213 177 l-3 569 q0 49 49 49 l63 -2 q49 0 45 -50 l-9 -83 q-12 -324 -12 -457 q0 -133 138 -133 q207 0 313 164 q29 40 74 -15 q46 -55 23 -87 q-33 -51 -131 -118 q-53 -37 -126 -58 q-73 -22 -154 -22 q-128 0 -199 60 q-71 59 -71 183 Z" /><glyph glyph-name="uni3059" unicode="&#x3059;" d="M645 577 l1 -150 l36 -137 q0 -106 -68 -204 q-35 -51 -100 -93 q-65 -43 -111 -53 q-41 -14 -95 39 q-53 53 -3 64 q122 25 176 85 q18 18 -7 16 l-20 -3 q-65 0 -119 49 q-53 50 -53 134 q0 84 58 136 q58 52 142 52 l40 0 l0 64 q-218 -3 -391 -13 q-40 -2 -42 58 q-1 61 7 61 q16 0 424 6 l-7 68 q-5 50 45 50 l46 0 q49 0 47 -49 l-3 -68 l246 1 q41 0 40 -59 q0 -59 -31 -58 q-69 4 -258 4 ZM485 407 q-37 0 -60 -21 q-23 -21 -23 -57 q0 -35 23 -56 q23 -21 56 -21 q33 0 53 29 q20 30 10 91 q-21 35 -59 35 Z" /><glyph glyph-name="uni3066" unicode="&#x3066;" d="M77 619 q-6 69 41 70 q18 1 57 5 q557 49 690 53 q19 1 19 -63 q1 -64 -58 -66 q-89 -1 -134 -11 q-89 -24 -150 -107 q-61 -83 -61 -174 q0 -59 26 -104 q26 -45 73 -71 q89 -50 177 -54 q47 -4 23 -73 q-23 -68 -68 -63 q-118 5 -236 91 q-58 41 -92 105 q-34 64 -34 152 q0 89 45 172 q45 83 103 127 q-295 -31 -389 -52 q-25 -5 -32 63 Z" /><glyph glyph-name="uni3067" unicode="&#x3067;" d="M75 617 q-6 69 44 70 q16 1 43 3 q489 47 692 54 q28 2 28 -62 q1 -64 -57 -66 q-89 -1 -135 -12 q-89 -24 -151 -107 q-61 -82 -61 -173 q0 -120 99 -176 q87 -49 177 -53 q48 -4 24 -73 q-23 -68 -68 -63 q-118 5 -238 90 q-57 41 -91 105 q-34 64 -34 153 q0 89 45 172 q45 83 104 127 q-295 -31 -389 -52 q-25 -5 -32 63 ZM703 504 q37 16 57 -19 l39 -66 q21 -35 -17 -52 q-38 -17 -57 18 l-39 69 q-20 35 17 50 ZM815 549 q37 17 58 -17 l41 -65 q22 -34 -16 -52 q-37 -18 -58 17 l-40 65 q-21 35 15 52 Z" /><glyph glyph-name="uni306F" unicode="&#x306f;" d="M474 130 q0 -58 93 -58 q44 0 63 22 q19 23 19 69 l0 18 l-82 11 q-41 0 -67 -17 q-26 -17 -26 -45 ZM636 606 l-6 128 q-2 49 47 49 l44 0 q50 0 47 -31 q-5 -37 -6 -137 q79 7 114 15 q41 8 41 -55 q0 -62 -42 -68 q-36 -5 -113 -11 q2 -89 11 -245 q96 -39 159 -99 q35 -30 0 -83 q-34 -52 -71 -20 q-37 36 -85 69 q-10 -164 -195 -164 q-105 0 -165 43 q-59 42 -59 119 q0 77 60 124 q61 48 162 48 l65 -4 l-7 206 q-24 -1 -91 -1 q-67 0 -103 2 q-52 4 -52 52 l0 21 q0 50 53 45 q32 -4 100 -4 l92 1 ZM142 749 q3 35 72 29 q69 -6 60 -32 q-17 -39 -40 -211 q-22 -171 -22 -224 l4 -80 l29 66 q16 37 46 12 q31 -25 12 -81 q-36 -104 -47 -155 l-7 -69 q-4 -46 -50 -49 l-19 -2 q-46 -4 -57 36 q-29 93 -29 280 q0 130 41 417 q9 62 7 63 Z" /><glyph glyph-name="uni307E" unicode="&#x307e;" d="M284 113 q0 -61 105 -61 q43 0 65 16 q23 16 23 49 l0 51 q-48 7 -91 7 q-43 0 -73 -18 q-29 -17 -29 -44 ZM547 809 q50 0 45 -48 q-2 -3 -2 -64 q133 6 213 20 q40 7 39 -51 q0 -57 -42 -62 q-86 -10 -212 -17 l0 -103 q142 7 228 19 q39 5 38 -54 q0 -59 -45 -64 q-102 -11 -219 -15 l7 -119 q149 -43 245 -125 q35 -26 -1 -82 q-36 -56 -70 -26 q-67 64 -168 109 q1 -14 1 -37 q0 -67 -51 -109 q-51 -42 -158 -42 q-107 0 -170 44 q-62 43 -62 121 q0 79 66 126 q67 48 181 48 l62 0 l-4 90 l-52 0 q-131 0 -201 8 q-37 5 -38 64 q0 59 36 53 q67 -13 205 -13 l48 0 l1 103 l-37 0 q-113 0 -202 12 q-43 6 -45 63 q-1 57 42 50 q89 -15 204 -15 l39 0 l-4 67 q-2 49 47 49 l36 0 Z" /><glyph glyph-name="uni30FB" unicode="&#x30fb;" d="M410 470 q38 38 90 38 q52 0 90 -38 q38 -38 38 -90 q0 -52 -38 -90 q-38 -38 -90 -38 q-52 0 -90 38 q-38 38 -38 90 q0 52 38 90 Z" /><glyph glyph-name="uni4E00" unicode="&#x4e00;" d="M41 389 q0 65 41 65 l838 0 q41 0 41 -65 q0 -64 -41 -64 l-838 0 q-41 0 -41 64 Z" /><glyph glyph-name="uni4E01" unicode="&#x4e01;" d="M904 771 q41 0 41 -62 q0 -62 -41 -62 l-303 0 l0 -565 q0 -61 -17 -92 q-16 -31 -57 -47 q-64 -24 -188 -23 q-57 -1 -86 69 q-29 70 39 66 q140 -7 159 7 q8 6 8 22 l0 563 l-362 0 q-41 0 -41 62 q0 62 41 62 l807 0 Z" /><glyph glyph-name="uni4E03" unicode="&#x4e03;" d="M531 63 l200 0 q49 0 64 38 q16 38 20 111 q5 58 66 29 q61 -28 55 -83 q-6 -98 -47 -156 q-41 -58 -149 -58 l-219 0 q-113 0 -155 41 q-41 41 -41 156 l0 244 l-221 -33 q-40 -6 -50 54 q-10 60 30 66 l241 37 l0 276 q0 41 65 41 q66 0 66 -41 l0 -257 l450 70 q40 6 50 -56 q10 -61 -30 -67 l-470 -70 l0 -265 q0 -50 13 -64 q13 -13 62 -13 Z" /><glyph glyph-name="uni4E07" unicode="&#x4e07;" d="M940 720 q0 -58 -41 -58 l-479 0 l-9 -162 l400 0 q49 0 47 -49 l-1 -11 q-11 -226 -27 -329 q-15 -103 -44 -136 q-36 -42 -107 -50 q-51 -7 -121 -3 q-53 2 -74 61 q-21 58 14 55 q34 -3 132 -3 q32 0 47 13 q38 36 50 292 q3 45 -23 45 l-307 0 q-26 -155 -93 -274 q-66 -118 -159 -172 q-37 -24 -80 24 q-43 48 -9 68 q41 21 104 92 q42 48 79 139 q19 46 31 116 q13 70 16 122 q4 52 5 80 l3 82 l-192 0 q-41 0 -41 58 q0 59 41 59 l797 0 q41 0 41 -59 Z" /><glyph glyph-name="uni4E09" unicode="&#x4e09;" d="M162 631 q-41 0 -41 60 q0 60 41 60 l676 0 q41 0 41 -60 q0 -60 -41 -60 l-676 0 ZM190 371 q0 61 41 61 l529 0 q40 0 40 -61 q0 -60 -40 -60 l-529 0 q-41 0 -41 60 ZM106 -27 q-41 0 -41 61 q0 61 41 61 l786 0 q41 0 41 -61 q0 -61 -41 -61 l-786 0 Z" /><glyph glyph-name="uni4E0A" unicode="&#x4e0a;" d="M532 82 l382 0 q41 0 41 -60 q0 -60 -41 -60 l-827 0 q-41 0 -41 60 q0 60 41 60 l317 0 l0 712 q0 41 64 41 q64 0 64 -41 l0 -245 l312 0 q41 0 41 -61 q0 -60 -41 -60 l-312 0 l0 -346 Z" /><glyph glyph-name="uni4E0B" unicode="&#x4e0b;" d="M905 774 q41 0 41 -60 q0 -60 -41 -60 l-361 0 l0 -157 l20 23 q241 -121 318 -185 q23 -17 -21 -72 q-44 -54 -67 -36 q-60 55 -250 164 l0 -434 q0 -41 -64 -41 q-64 0 -64 41 l0 697 l-320 0 q-41 0 -41 60 q0 60 41 60 l809 0 Z" /><glyph glyph-name="uni4E0D" unicode="&#x4e0d;&#xf967;" d="M565 462 l39 33 q35 29 89 -11 q196 -140 261 -213 q18 -18 -33 -64 q-50 -45 -69 -25 q-65 81 -287 251 l0 -477 q0 -41 -65 -41 q-65 0 -65 41 l0 447 q-149 -159 -284 -228 q-34 -18 -75 36 q-41 54 -5 71 q95 44 208 150 q114 106 187 226 l-358 0 q-41 0 -41 61 q0 61 41 61 l785 0 q41 0 41 -61 q0 -61 -40 -61 l-271 0 l-58 -92 l0 -104 Z" /><glyph glyph-name="uni4E0E" unicode="&#x4e0e;" d="M632 261 q41 0 41 -57 q0 -57 -41 -57 l-539 0 q-41 0 -41 57 q0 57 41 57 l539 0 ZM313 501 q-5 -25 21 -25 l529 0 q49 0 44 -59 q-19 -205 -41 -306 q-22 -100 -58 -135 q-23 -25 -50 -35 q-26 -10 -77 -14 q-50 -4 -116 -1 q-62 2 -72 47 l-5 15 q-31 59 21 55 l142 -3 q38 0 54 12 q49 37 70 270 q5 44 -21 44 l-537 1 q-59 0 -45 56 q39 144 71 362 q7 46 68 40 q61 -6 55 -46 l-10 -53 l489 0 q41 0 41 -57 q0 -57 -41 -57 l-510 0 l-22 -111 Z" /><glyph glyph-name="uni4E11" unicode="&#x4e11;" d="M700 329 l-263 0 q-14 -154 -29 -272 l271 0 q11 115 21 272 ZM713 652 q1 35 -25 35 l-223 0 q-9 -130 -18 -238 l259 0 q4 74 7 203 ZM808 57 l109 0 q41 0 41 -58 q0 -59 -41 -59 l-831 0 q-41 0 -41 59 q0 58 41 58 l195 0 q16 118 32 272 l-135 0 q-41 0 -41 60 q0 60 41 60 l146 0 q11 130 17 238 l-188 0 q-41 0 -41 59 q0 60 41 60 l643 0 q48 0 46 -55 q-8 -368 -34 -694 Z" /><glyph glyph-name="uni4E14" unicode="&#x4e14;" d="M320 200 l0 -130 l373 0 l0 130 l-373 0 ZM693 653 q0 26 -26 26 l-321 0 q-26 0 -26 -26 l0 -100 l373 0 l0 100 ZM693 315 l0 128 l-373 0 l0 -128 l373 0 ZM818 70 l92 0 q41 0 41 -58 q0 -58 -41 -58 l-817 0 q-41 0 -41 58 q0 58 41 58 l109 0 l0 676 q0 48 48 48 l520 0 q48 0 48 -48 l0 -676 Z" /><glyph glyph-name="uni4E16" unicode="&#x4e16;" d="M697 492 l-138 0 l0 -162 q0 -26 26 -26 l86 0 q26 0 26 26 l0 162 ZM822 243 q0 -48 -48 -48 l-285 0 q-48 0 -48 48 l0 249 l-136 0 l0 -384 q0 -26 26 -26 l556 0 q41 0 41 -58 q0 -57 -41 -57 l-658 0 q-48 0 -48 48 l0 477 l-94 0 q-41 0 -41 57 q0 58 41 58 l94 0 l0 170 q0 41 62 41 q62 0 62 -41 l0 -170 l136 0 l0 191 q0 41 59 41 q59 0 59 -41 l0 -191 l138 0 l0 182 q0 41 62 41 q63 0 63 -41 l0 -182 l91 0 q41 0 41 -58 q0 -57 -41 -57 l-91 0 l0 -249 Z" /><glyph glyph-name="uni4E1A" unicode="&#x4e1a;" d="M295 300 q10 -32 -50 -53 q-59 -21 -67 12 q-23 107 -77 248 q-18 49 0 81 q19 33 65 32 q9 17 28 -32 q76 -188 101 -288 ZM689 78 l218 0 q41 0 41 -60 q0 -59 -41 -59 l-812 0 q-41 0 -41 59 q0 60 41 60 l217 0 l0 715 q0 41 61 41 q62 0 62 -41 l0 -715 l131 0 l0 715 q0 41 61 41 q62 0 62 -41 l0 -510 q92 175 131 312 q12 39 65 13 q54 -25 39 -66 q-53 -154 -120 -277 q-24 -45 -67 -24 l-48 25 l0 -188 Z" /><glyph glyph-name="uni4E1C" unicode="&#x4e1c;" d="M213 216 q21 46 80 29 q59 -16 42 -53 q-16 -43 -68 -120 q-52 -76 -81 -100 q-26 -28 -76 10 q-50 38 -21 64 q83 65 124 170 ZM882 379 q0 -57 -41 -57 l-231 0 l0 -265 q0 -47 -12 -72 q-11 -26 -41 -41 q-45 -23 -113 -21 q-55 -2 -78 59 q-22 61 36 58 q37 -1 57 0 q21 1 25 5 q5 4 5 15 l0 262 l-205 0 q-101 0 -96 -7 q-21 -9 -43 51 q-21 61 15 81 l2 2 q49 45 117 157 l-165 0 q-41 0 -41 57 q0 57 41 57 l228 0 l47 100 q17 37 83 13 q66 -23 48 -59 l-28 -54 l397 0 q41 0 41 -57 q0 -57 -41 -57 l-463 0 l-103 -148 q-14 -21 11 -21 l155 0 l0 86 q0 41 60 41 q61 0 61 -41 l0 -86 l232 0 q41 0 40 -58 ZM688 184 q-26 30 24 54 q51 24 89 -18 q103 -107 125 -152 q16 -26 -3 -53 q-19 -27 -70 -39 l-20 14 q-9 19 -63 91 q-53 72 -82 103 Z" /><glyph glyph-name="uni4E1D" unicode="&#x4e1d;" d="M698 285 q-19 -20 7 -19 l188 8 q41 1 36 -52 q-5 -52 -65 -56 q-162 -8 -233 -15 q-70 -7 -67 -10 q-29 -7 -48 46 q-18 54 2 62 q36 6 160 166 q-127 -7 -134 -14 q-21 -5 -39 47 q-18 53 0 63 q27 3 113 167 q45 86 59 131 q14 38 69 16 q56 -21 37 -61 q-54 -124 -130 -227 q-16 -22 10 -22 l90 3 l76 123 q21 35 73 7 q52 -27 30 -63 q-96 -158 -234 -300 ZM276 280 q-18 -20 8 -19 l159 8 q41 1 36 -52 q-4 -52 -75 -57 q-243 -15 -271 -27 q-12 -3 -31 50 q-19 53 5 66 q7 -4 67 64 l77 97 l-123 -12 q-24 -6 -42 46 q-18 53 -1 62 q27 3 111 174 q42 86 56 131 q13 38 68 17 q56 -21 39 -61 q-51 -124 -127 -233 q-16 -23 10 -23 l79 3 l75 134 q20 35 73 8 q53 -27 31 -64 q-94 -168 -224 -312 ZM89 -39 q-41 0 -41 55 q0 55 41 55 l822 0 q41 0 41 -55 q0 -55 -41 -55 l-822 0 Z" /><glyph glyph-name="uni4E22" unicode="&#x4e22;" d="M902 396 q41 0 41 -55 q0 -55 -41 -55 l-475 0 q53 -20 12 -69 q-41 -52 -103 -106 q-23 -21 3 -20 l356 24 l-55 68 q-25 32 29 54 q55 22 91 -19 q116 -127 159 -222 q15 -29 -45 -54 q-59 -25 -74 6 q0 6 -38 68 q-526 -45 -568 -52 l-23 -6 q-40 -9 -60 49 q-19 58 3 66 q25 0 130 107 l90 106 l-236 0 q-41 0 -41 55 q0 55 41 55 l340 0 l0 89 l-263 0 q-41 0 -41 56 q0 57 41 57 l263 0 l0 86 q-160 -10 -275 -12 q-40 0 -55 54 q-14 54 38 55 q412 10 626 57 q32 7 77 -45 q46 -51 10 -58 q-106 -22 -298 -41 l0 -96 l265 0 q41 0 41 -57 q0 -56 -41 -56 l-265 0 l0 -89 l341 0 Z" /><glyph glyph-name="uni4E24" unicode="&#x4e24;" d="M565 567 l0 101 l-131 0 l0 -101 l131 0 ZM787 243 l0 187 q0 26 -26 26 l-80 0 l-6 -88 l112 -125 ZM239 456 q-26 0 -26 -26 l0 -296 q98 103 104 322 l-78 0 ZM903 782 q41 0 41 -57 q0 -57 -41 -57 l-221 0 l0 -101 l177 0 q48 0 48 -48 l0 -472 q0 -48 -13 -74 q-12 -27 -44 -41 q-44 -20 -134 -19 q-58 -1 -77 58 q-19 59 10 57 q13 -1 113 -1 q25 0 25 22 l0 124 l-8 -11 q-35 -49 -63 -8 q-1 10 -68 87 q-38 -128 -95 -181 q-27 -28 -69 13 q-42 42 -18 67 q92 79 99 316 l-132 0 l-6 -90 q69 -73 74 -86 q18 -23 -16 -71 q-34 -48 -51 -22 q6 -4 -35 48 q-41 -127 -84 -162 q-38 -41 -75 1 l-27 26 l0 -147 q0 -41 -60 -41 q-60 0 -60 41 l0 567 q0 47 48 47 l176 0 l0 101 l-217 0 q-41 0 -41 57 q0 57 41 57 l803 0 Z" /><glyph glyph-name="uni4E25" unicode="&#x4e25;" d="M457 697 l0 -221 l83 0 l0 221 l-83 0 ZM897 476 q41 0 41 -52 q0 -52 -41 -52 l-654 0 q-26 0 -26 -25 l0 -21 q0 -276 -84 -386 q-18 -28 -65 14 q-46 42 -29 69 q60 81 60 304 l0 101 q0 48 48 48 l193 0 l0 221 l-201 0 q-41 0 -41 51 q0 51 41 51 l728 0 q41 0 41 -51 q0 -51 -41 -51 l-209 0 l0 -221 l239 0 ZM161 608 q-24 48 27 65 q51 18 76 -26 q25 -38 23 -48 q12 -41 -10 -70 q-21 -29 -72 -31 l-11 19 l-33 91 ZM796 514 q-20 -35 -69 -19 q-48 16 -33 54 l44 104 q15 38 77 21 q63 -17 43 -52 l-62 -108 Z" /><glyph glyph-name="uni4E2A" unicode="&#x4e2a;" d="M561 -45 q0 -41 -62 -41 q-62 0 -62 41 l0 529 q0 41 62 41 q62 0 62 -41 l0 -529 ZM477 814 q22 34 75 8 q54 -25 32 -60 l-8 -12 q190 -187 368 -255 q37 -14 -7 -71 q-44 -56 -80 -39 q-172 84 -353 272 q-159 -182 -353 -270 q-38 -18 -82 40 q-43 58 -5 73 q112 41 237 133 q125 93 176 181 Z" /><glyph glyph-name="uni4E2D" unicode="&#x4e2d;" d="M561 342 l226 0 l0 189 q0 26 -26 26 l-200 0 l0 -215 ZM210 342 l225 0 l0 215 l-199 0 q-26 0 -26 -26 l0 -189 ZM561 674 l303 0 q48 0 48 -48 l0 -410 q0 -41 -63 -41 q-62 0 -62 50 l-226 0 l0 -271 q0 -41 -63 -41 q-63 0 -63 41 l0 271 l-225 0 l0 -14 q0 -41 -60 -41 q-60 0 -60 41 l0 415 q0 48 48 48 l297 0 l0 132 q0 41 63 41 q63 0 63 -41 l0 -132 Z" /><glyph glyph-name="uni4E30" unicode="&#x4e30;" d="M911 259 q41 0 41 -60 q0 -60 -41 -60 l-348 0 l0 -184 q0 -41 -64 -41 q-64 0 -64 41 l0 184 l-344 0 q-41 0 -41 60 q0 60 41 60 l344 0 l0 112 l-257 0 q-41 0 -41 57 q0 57 41 57 l257 0 l0 102 l-309 0 q-41 0 -41 59 q0 60 41 60 l309 0 l0 101 q0 41 64 41 q64 0 64 -41 l0 -101 l310 0 q41 0 41 -60 q0 -59 -41 -59 l-310 0 l0 -102 l265 0 q41 0 41 -57 q0 -57 -41 -57 l-265 0 l0 -112 l348 0 Z" /><glyph glyph-name="uni4E34" unicode="&#x4e34;" d="M176 68 q0 -41 -55 -41 q-55 0 -55 41 l0 627 q0 41 55 41 q55 0 55 -41 l0 -627 ZM628 265 l-62 0 q-26 0 -26 -26 l0 -168 l88 0 l0 194 ZM817 71 l0 168 q0 26 -26 26 l-55 0 l0 -194 l81 0 ZM540 -46 q0 -41 -57 -41 q-57 0 -57 41 l0 377 q0 48 48 48 l415 0 q48 0 48 -48 l0 -373 q0 -41 -60 -41 q-60 0 -60 44 l-277 0 l0 -7 ZM802 507 q32 -29 -8 -72 q-39 -42 -74 -9 q-46 48 -106 94 q-32 26 6 61 q39 36 76 9 q69 -47 106 -83 ZM611 738 l304 0 q41 0 41 -57 q0 -57 -41 -57 l-348 0 q-53 -116 -92 -159 q-27 -34 -62 -8 q0 4 -58 37 l0 -531 q0 -40 -59 -40 q-58 0 -58 41 l0 830 q0 41 58 41 q59 0 59 -41 l0 -284 q111 117 151 293 q13 48 72 36 q60 -11 49 -50 l-16 -51 Z" /><glyph glyph-name="uni4E39" unicode="&#x4e39;&#xf95e;" d="M415 563 q-46 40 -4 73 q42 33 85 -1 q73 -53 111 -98 q23 -24 -22 -62 q-45 -37 -63 -17 q-24 36 -107 105 ZM306 421 l401 0 l0 248 q0 26 -26 26 l-349 0 q-26 0 -26 -26 l0 -248 ZM910 421 q41 0 41 -57 q0 -57 -41 -57 l-83 0 l0 -256 q0 -51 -14 -78 q-13 -27 -47 -41 q-46 -20 -156 -19 q-60 -1 -81 57 q-20 58 9 56 q25 -2 139 -2 q17 1 23 7 q7 6 7 22 l0 254 l-409 0 q-30 -266 -153 -368 q-27 -26 -72 16 q-45 41 -17 67 q96 81 122 285 l-87 0 q-41 0 -41 57 q0 57 41 57 l95 0 l0 336 q0 48 48 48 l545 0 q48 0 48 -48 l0 -336 l83 0 Z" /><glyph glyph-name="uni4E3A" unicode="&#x4e3a;" d="M326 702 q15 -29 -40 -52 q-55 -23 -76 12 l-51 83 q-21 35 31 56 q52 22 88 -24 q38 -44 48 -75 ZM507 615 l356 0 q49 0 47 -66 q-6 -249 -22 -391 q-15 -141 -43 -177 q-35 -46 -99 -55 q-44 -7 -106 -4 q-54 1 -75 64 q-20 62 16 59 q25 -2 109 -2 q28 0 45 18 q18 19 29 118 q11 100 17 280 q2 35 -24 35 l-264 0 q-54 -370 -312 -537 q-35 -25 -83 20 q-47 44 -11 68 q225 138 282 449 l-252 0 q-41 0 -41 60 q0 61 41 61 l266 0 l3 190 q0 41 60 41 q61 0 61 -41 l0 -190 ZM684 256 q20 -37 -34 -64 q-53 -26 -70 10 q-15 42 -40 70 q-29 42 -19 74 q11 32 56 39 q5 16 34 -22 q55 -64 73 -107 Z" /><glyph glyph-name="uni4E3B" unicode="&#x4e3b;" d="M566 61 l343 0 q41 0 41 -59 q0 -58 -41 -58 l-813 0 q-41 0 -41 58 q0 59 41 59 l339 0 l0 193 l-244 0 q-41 0 -41 57 q0 58 41 58 l244 0 l0 173 l-297 0 q-41 0 -41 58 q0 58 41 58 l359 0 l-119 97 q-31 25 18 59 q49 34 90 6 q89 -56 117 -90 q34 -33 -6 -63 l-13 -9 l276 0 q41 0 41 -58 q0 -58 -41 -58 l-294 0 l0 -173 l246 0 q41 0 41 -58 q0 -57 -41 -57 l-246 0 l0 -193 Z" /><glyph glyph-name="uni4E3D" unicode="&#x4e3d;" d="M207 394 l27 11 q43 17 65 -24 l50 -93 l0 189 q0 26 -26 26 l-90 0 q-26 0 -26 -26 l0 -83 ZM418 612 q49 0 49 -49 l-9 -585 q-9 -24 -33 -38 q-38 -22 -86 -20 q-53 -2 -69 56 q-15 57 26 57 l38 0 q15 -1 15 15 l0 164 l-23 -11 q-44 -19 -63 24 l-56 124 l0 -394 q0 -41 -56 -41 q-55 0 -55 41 l0 609 q0 48 48 48 l274 0 ZM642 387 l26 11 q43 17 65 -24 l58 -108 l0 211 q0 26 -26 26 l-97 0 q-26 0 -26 -26 l0 -90 ZM863 612 q48 0 48 -48 l0 -518 q0 -43 -10 -67 q-9 -25 -34 -40 q-38 -20 -92 -18 q-54 -2 -70 55 q-15 56 26 56 l44 0 q16 -1 16 15 l0 165 l-28 -13 q-43 -20 -63 23 l-58 125 l0 -392 q0 -41 -56 -41 q-55 0 -55 41 l0 609 q0 48 48 48 l284 0 ZM88 683 q-41 0 -41 57 q0 57 41 57 l824 0 q41 0 41 -57 q0 -57 -41 -57 l-824 0 Z" /><glyph glyph-name="uni4E3E" unicode="&#x4e3e;" d="M268 391 l174 0 l0 67 q0 41 60 41 q60 0 60 -41 l0 -67 l181 0 l-123 163 l-228 0 q-48 -89 -124 -163 ZM755 331 q0 -49 -49 -49 l-144 0 l0 -87 l318 0 q41 0 41 -56 q0 -55 -41 -55 l-318 0 l0 -129 q0 -41 -60 -41 q-60 0 -60 41 l0 129 l-311 0 q-41 0 -41 55 q0 56 41 56 l311 0 l0 87 l-149 0 q-48 0 -48 48 l0 39 q-70 -62 -114 -83 q-35 -18 -74 27 q-39 46 -3 62 q37 14 103 65 q66 52 111 114 l-175 0 q-41 0 -41 54 q0 54 41 54 l127 0 l-60 86 q-23 33 27 58 q50 25 74 -7 l52 -70 q30 -41 -19 -67 l169 0 l-65 112 q-20 35 30 56 q50 22 79 -17 q39 -44 43 -63 q22 -45 -21 -65 l-49 -23 l144 0 l84 141 q21 35 85 15 q65 -19 41 -51 l-79 -105 l154 0 q41 0 41 -54 q0 -54 -41 -54 l-166 0 q96 -122 198 -162 q38 -17 -2 -66 q-40 -48 -75 -30 q-39 17 -109 83 l0 -48 Z" /><glyph glyph-name="uni4E43" unicode="&#x4e43;" d="M691 465 q-7 -27 19 -27 l153 0 q49 0 46 -65 q-3 -156 -19 -256 q-16 -100 -43 -130 q-37 -44 -113 -50 q-40 -5 -114 -2 q-67 1 -77 47 l-6 18 q-34 62 24 58 l123 -3 q33 0 49 12 q31 26 41 211 q3 45 -23 45 l-180 0 q-60 0 -44 49 q34 97 76 266 q9 34 -17 34 l-234 0 l0 -37 q0 -500 -207 -695 q-29 -31 -60 7 l-14 17 l-13 12 q-36 33 -3 67 l62 86 q40 68 61 130 q21 63 33 139 q17 108 17 238 l0 36 l-102 0 q-41 0 -41 58 q0 59 41 59 l583 0 q60 0 45 -65 q-28 -131 -63 -259 Z" /><glyph glyph-name="uni4E45" unicode="&#x4e45;" d="M587 701 q41 1 84 -19 q44 -20 33 -61 q-24 -99 -85 -225 q52 -126 144 -225 q92 -98 174 -131 q38 -17 -6 -70 q-43 -54 -79 -35 q-178 84 -306 334 q-161 -242 -380 -339 q-37 -18 -84 36 q-46 53 -8 69 q145 57 279 198 q135 142 192 316 q10 27 -16 27 l-184 0 q-92 -174 -186 -256 q-27 -25 -81 19 q-53 45 -23 69 q68 50 143 171 q75 121 104 226 q13 41 78 26 q66 -14 52 -52 l-31 -83 l186 5 Z" /><glyph glyph-name="uni4E48" unicode="&#x4e48;" d="M401 809 q19 32 81 9 q62 -23 40 -57 q-56 -91 -163 -213 q-107 -121 -188 -180 q-30 -23 -77 20 q-47 43 -16 65 q78 52 181 167 q104 116 142 189 ZM946 22 q15 -32 -44 -63 q-58 -31 -74 7 q-2 9 -26 56 q-102 -8 -200 -16 q-98 -7 -154 -11 q-56 -5 -110 -9 q-53 -4 -80 -6 q-26 -3 -50 -6 l-20 -4 q-40 -7 -65 52 q-25 59 0 69 q20 2 114 84 q68 55 195 196 q127 142 203 260 q23 34 85 3 q62 -31 38 -64 q-165 -236 -422 -464 l404 29 l-84 128 q-22 34 32 61 q54 27 77 -5 q41 -53 102 -154 q61 -100 79 -143 Z" /><glyph glyph-name="uni4E49" unicode="&#x4e49;" d="M583 649 q15 -40 -40 -62 q-55 -21 -68 17 q-18 66 -49 122 q-21 44 -6 75 q16 31 63 33 q6 16 27 -25 q50 -90 73 -160 ZM762 730 q14 44 76 25 q62 -18 46 -62 q-95 -286 -288 -485 q162 -125 335 -172 q42 -11 1 -65 q-40 -55 -82 -41 q-183 53 -350 191 q-169 -135 -365 -196 q-42 -14 -73 39 q-31 52 11 64 q179 51 339 176 q-176 186 -266 434 q-15 43 42 60 q57 17 71 -25 q73 -214 247 -386 q183 188 256 443 Z" /><glyph glyph-name="uni4E4B" unicode="&#x4e4b;" d="M769 668 q41 0 87 -31 q46 -30 24 -62 q-71 -107 -215 -246 q-144 -138 -297 -238 q73 -45 255 -45 q183 0 307 18 q39 6 22 -58 q-17 -63 -57 -65 q-116 -9 -289 -9 q-173 0 -262 55 q-16 9 -38 25 q-45 34 -63 34 q-18 0 -46 -35 q-28 -34 -42 -55 q-26 -41 -69 15 q-43 56 -12 87 q24 28 79 63 q56 36 102 36 q121 72 240 178 q120 106 187 191 q15 19 -10 19 l-537 0 q-41 0 -41 58 q0 59 41 59 l349 0 l-68 106 q-22 34 31 62 q54 29 77 -4 l61 -88 q28 -41 -15 -66 l-18 -10 l217 6 Z" /><glyph glyph-name="uni4E50" unicode="&#x4e50;" d="M198 249 q20 34 77 14 q58 -19 38 -53 q-19 -34 -75 -109 q-56 -74 -82 -100 q-25 -27 -75 10 q-50 37 -22 62 q23 19 74 83 q51 65 65 93 ZM884 461 q41 0 41 -60 q0 -60 -41 -60 l-301 0 l0 -285 q0 -50 -12 -76 q-12 -26 -43 -41 q-49 -23 -131 -20 q-55 -1 -75 60 q-20 60 4 59 q4 0 110 0 q13 0 18 4 q6 4 6 16 l0 283 l-206 0 q-111 0 -107 -8 q-19 -8 -39 46 q-19 55 2 79 q1 -15 15 41 q31 151 30 236 q1 46 63 47 q366 8 580 52 q31 6 61 -48 q30 -53 -2 -60 q-200 -42 -551 -51 q-33 0 -36 -24 q-6 -72 -26 -159 q-6 -31 20 -31 l196 0 l0 131 q0 41 61 41 q62 0 62 -41 l0 -131 l301 0 ZM713 191 q-35 47 17 69 q52 22 89 -26 q103 -125 133 -184 q13 -23 -44 -49 q-56 -25 -70 0 q-31 69 -125 190 Z" /><glyph glyph-name="uni4E54" unicode="&#x4e54;" d="M906 615 q41 0 41 -57 q0 -57 -41 -57 l-182 0 q99 -102 206 -134 q42 -14 2 -66 q-40 -51 -80 -35 q-60 21 -136 85 l0 -399 q0 -41 -62 -41 q-61 0 -61 41 l0 371 q0 48 48 48 l51 0 l-109 130 l-157 0 l-123 -133 l50 0 q41 0 41 -51 q0 -50 -2 -99 q2 -134 -96 -232 q-45 -45 -74 -57 q-37 -22 -84 23 q-46 44 -3 67 q72 32 109 112 q29 64 29 140 l0 72 q-69 -54 -129 -81 q-40 -19 -82 31 q-41 50 -1 66 q109 40 208 142 l-177 0 q-41 0 -41 57 q0 57 41 57 l264 0 l39 77 q-130 -7 -231 -7 q-42 0 -55 50 q-13 51 39 51 q413 4 634 46 q32 6 74 -41 q42 -47 5 -54 q-123 -23 -330 -37 l-37 -85 l412 0 Z" /><glyph glyph-name="uni4E58" unicode="&#x4e58;" d="M255 225 l-132 -22 q-40 -6 -50 43 q-10 49 30 53 l152 17 l0 55 l-119 0 q-41 0 -41 46 q0 47 41 47 l119 0 l0 12 q0 41 55 41 q56 0 56 -41 l0 -243 l71 87 l0 220 l-332 0 q-41 0 -41 53 q0 54 41 54 l332 0 l0 54 q-144 -7 -247 -9 q-40 0 -53 50 q-13 50 36 51 q374 10 600 48 q35 6 61 -45 q26 -51 -11 -58 q-93 -16 -260 -28 l0 -63 l331 0 q41 0 41 -54 q0 -53 -41 -53 l-331 0 l0 -222 q35 -52 84 -99 q-14 24 -14 88 l0 172 q0 41 54 41 q54 0 54 -41 l0 -38 l71 32 q37 17 71 -26 q34 -42 -5 -54 l-137 -46 l0 -39 q0 -19 4 -25 q5 -5 22 -5 l62 0 q15 0 20 10 l1 4 q6 45 53 26 q48 -19 37 -69 q1 -19 -23 -44 q-24 -25 -76 -25 l-51 0 q-41 0 -76 5 q-34 5 2 -25 q92 -78 214 -109 q41 -11 2 -61 q-38 -50 -78 -35 q-154 51 -291 208 l0 -208 q0 -41 -63 -41 q-63 0 -63 41 l0 207 q-136 -151 -294 -204 q-39 -16 -78 34 q-39 50 1 62 q123 33 249 135 l-24 0 q-36 0 -36 36 Z" /><glyph glyph-name="uni4E5F" unicode="&#x4e5f;" d="M426 40 l303 0 q66 0 87 28 q21 29 24 73 q8 56 63 33 q56 -22 47 -76 q-6 -74 -50 -119 q-44 -46 -163 -46 l-312 0 q-133 0 -181 40 q-47 39 -47 153 l0 263 l-101 -32 q-39 -12 -55 41 q-15 54 24 66 l132 42 l0 230 q0 41 58 41 q59 0 59 -41 l0 -193 l154 48 l0 213 q0 41 59 41 q59 0 59 -41 l0 -175 l218 81 l42 -18 q42 -18 33 -63 l-4 -14 q3 -256 -21 -327 q-24 -70 -80 -85 q-56 -15 -84 -12 q-44 1 -58 55 q-13 55 21 52 q-6 0 50 0 q17 0 27 9 q10 9 19 34 q13 44 15 187 q1 41 -23 34 l-155 -50 l0 -333 q0 -41 -59 -41 q-59 0 -59 41 l0 296 l-154 -49 l0 -300 q0 -56 19 -71 q20 -15 93 -15 Z" /><glyph glyph-name="uni4E60" unicode="&#x4e60;" d="M579 318 q49 18 80 0 q32 -18 29 -66 l-24 -21 q-223 -83 -449 -164 q-41 -14 -72 9 q-31 23 -38 76 l16 15 q185 54 458 151 ZM269 507 q-48 38 -9 77 q40 40 95 -1 q156 -112 181 -137 q14 -11 -29 -56 q-42 -45 -60 -28 q-43 44 -178 145 ZM856 788 q48 0 48 -48 l0 -13 q-5 -392 -16 -542 q-10 -149 -39 -191 q-21 -31 -45 -45 q-24 -14 -66 -20 q-41 -6 -119 -3 q-57 1 -77 58 q-19 56 18 53 q39 -2 133 -2 q29 0 43 18 q24 24 33 159 q9 135 12 425 q1 37 -25 37 l-607 0 q-41 0 -41 57 q0 57 41 57 l707 0 Z" /><glyph glyph-name="uni4E61" unicode="&#x4e61;" d="M778 425 q17 37 82 15 q65 -21 45 -61 q-85 -186 -292 -305 q-103 -60 -221 -98 q-117 -38 -222 -55 q-43 -8 -77 52 q-33 59 19 66 q379 47 547 222 q17 16 -22 12 q-264 -20 -361 -32 q-97 -11 -105 -17 q-27 -8 -47 50 q-19 59 8 65 q21 2 124 53 q70 32 192 110 q-234 -20 -254 -30 q-14 -4 -33 54 q-19 58 13 68 q4 -4 59 36 q41 25 116 90 q75 66 105 104 q26 30 80 -5 q54 -35 26 -63 q-67 -70 -191 -160 l237 16 l84 69 q31 26 84 -15 q53 -40 22 -65 q-144 -121 -367 -237 l329 21 l20 40 Z" /><glyph glyph-name="uni4E66" unicode="&#x4e66;" d="M509 565 l0 -153 l183 0 l0 127 q0 26 -26 26 l-157 0 ZM812 412 l104 0 q41 0 39 -25 q-1 -24 -6 -77 q-6 -96 -21 -169 q-15 -73 -39 -98 q-34 -37 -93 -42 q-59 -4 -115 -2 q-49 1 -70 58 q-21 57 14 54 q26 -3 117 -3 q31 0 44 10 q27 24 36 140 q5 42 -21 42 l-292 0 l0 -341 q0 -41 -62 -41 q-61 0 -61 41 l0 341 l-287 0 q-40 0 -40 56 q0 56 40 56 l287 0 l0 153 l-232 0 q-41 0 -41 57 q0 58 41 58 l232 0 l0 122 q0 41 61 41 q62 0 62 -41 l0 -122 l281 0 l-71 47 q-34 22 0 62 q35 40 84 11 q90 -49 133 -86 q25 -19 -12 -65 q-36 -45 -68 -20 l-44 35 l0 -252 Z" /><glyph glyph-name="uni4E71" unicode="&#x4e71;" d="M417 72 l0 131 q0 26 -26 26 l-177 0 q-26 0 -26 -26 l0 -131 l229 0 ZM360 707 l0 -136 l161 0 q41 0 41 -53 q0 -53 -41 -53 l-161 0 l0 -132 l126 0 q47 0 47 -48 l0 -299 q0 -41 -58 -41 q-58 0 -58 22 l0 0 l-229 0 l0 0 q0 -32 -56 -32 q-55 0 -55 41 l0 309 q0 48 48 48 l119 0 l0 132 l-171 0 q-41 0 -41 53 q0 53 41 53 l171 0 l0 118 q-82 -12 -124 -15 q-41 -3 -58 44 q-17 47 34 52 q222 24 334 63 q33 11 76 -36 q43 -46 4 -55 l-150 -35 ZM743 33 l80 0 q21 0 28 35 q7 35 8 91 q3 57 57 32 q54 -25 49 -80 q-4 -82 -33 -135 q-28 -54 -99 -54 l-109 0 q-76 0 -104 37 q-28 36 -28 136 l0 694 q0 41 59 41 q59 0 59 -41 l0 -695 q0 -39 6 -50 q6 -11 27 -11 Z" /><glyph glyph-name="uni4E86" unicode="&#x4e86;" d="M774 784 q41 0 89 -35 q48 -35 18 -66 q-127 -136 -290 -233 q-24 -14 -24 -40 l0 -360 q0 -52 -15 -78 q-14 -27 -50 -40 q-60 -22 -162 -19 q-55 -1 -79 59 q-24 60 2 59 q21 -1 149 -1 q30 0 30 23 l0 399 q0 44 35 63 q78 40 170 123 q25 22 -1 22 l-510 0 q-41 0 -41 58 q0 59 41 59 l638 7 Z" /><glyph glyph-name="uni4E88" unicode="&#x4e88;" d="M873 472 q41 6 65 -17 q25 -22 1 -70 q-54 -115 -115 -186 q-21 -27 -72 2 q-51 30 -29 64 l43 67 q13 22 -13 22 l-185 0 l0 -311 q0 -48 -14 -73 q-13 -25 -48 -37 q-49 -18 -140 -17 q-57 -1 -79 56 q-21 57 13 56 q25 -1 119 -1 q14 1 19 5 q6 4 6 15 l0 307 l-354 0 q-41 0 -41 56 q0 57 41 57 l414 0 q-111 47 -182 72 q-37 15 -8 60 q30 45 94 21 q84 -29 93 -32 q69 43 107 77 q20 17 -6 17 l-416 0 q-41 0 -41 54 q0 55 41 55 l543 7 q41 0 83 -34 q43 -33 14 -61 q-74 -75 -202 -162 q73 -29 54 -22 q32 -13 8 -52 l158 0 l29 5 Z" /><glyph glyph-name="uni4E89" unicode="&#x4e89;" d="M696 234 q25 0 25 26 l0 49 l-165 0 l0 -75 l140 0 ZM556 488 l0 -71 l165 0 l0 45 q0 26 -25 26 l-140 0 ZM565 644 q17 19 -9 19 l-224 0 l-53 -54 q-18 -18 8 -18 l232 0 l46 53 ZM926 417 q41 0 41 -54 q0 -54 -41 -54 l-89 0 l0 -135 q0 -48 -48 -48 l-233 0 l0 -83 q0 -48 -13 -73 q-12 -25 -45 -38 q-51 -21 -134 -18 q-55 -1 -76 56 q-21 57 14 55 q23 -1 107 -1 q14 1 19 5 q6 5 6 16 l0 81 l-244 0 q-41 0 -41 54 q0 54 41 54 l244 0 l0 75 l-357 0 q-41 0 -41 54 q0 54 41 54 l357 0 l0 71 l-200 0 q-48 0 -48 41 l-19 -13 q-33 -24 -77 17 q-43 42 -7 64 q59 32 128 103 q70 72 91 113 q20 34 83 21 q64 -12 42 -46 l-15 -23 l229 5 q41 0 83 -30 q43 -29 17 -60 l-76 -89 l124 0 q48 0 48 -48 l0 -126 l89 0 Z" /><glyph glyph-name="uni4E8B" unicode="&#x4e8b;" d="M737 144 l0 47 l-180 0 l0 -47 l180 0 ZM557 325 l0 -43 l180 0 l0 17 q0 26 -25 26 l-155 0 ZM279 546 q0 -22 26 -22 l131 0 l0 48 l-131 0 q-26 0 -26 -26 ZM719 550 q0 22 -26 22 l-136 0 l0 -48 l136 0 q26 0 26 26 ZM921 282 q41 0 41 -46 q0 -45 -41 -45 l-63 0 l0 -133 q0 -41 -61 -41 q-60 0 -60 41 l0 0 l-180 0 l0 -31 q0 -44 -12 -65 q-11 -22 -48 -37 q-36 -15 -112 -14 q-58 -1 -78 46 q-19 47 16 45 q13 0 88 0 q14 1 19 6 q6 6 6 19 l0 31 l-263 0 q-41 0 -41 43 q0 43 41 43 l263 0 l0 47 l-355 0 q-41 0 -41 45 q0 46 41 46 l355 0 l0 43 l-255 0 q-41 0 -41 40 q0 40 41 40 l255 0 l0 44 l-223 0 q-48 0 -48 48 l0 102 q0 48 48 48 l223 0 l0 41 l-332 0 q-41 0 -41 47 q0 47 41 47 l332 0 l0 24 q0 41 60 41 q61 0 61 -41 l0 -24 l341 0 q41 0 41 -47 q0 -47 -41 -47 l-341 0 l0 -41 l236 0 q48 0 48 -48 l0 -102 q0 -48 -48 -48 l-236 0 l0 -44 l253 0 q48 0 48 -48 l0 -75 l63 0 Z" /><glyph glyph-name="uni4E8C" unicode="&#x4e8c;" d="M139 644 q0 66 41 66 l640 0 q41 0 41 -66 q0 -65 -41 -65 l-640 0 q-41 0 -41 65 ZM56 64 q0 69 41 69 l806 0 q41 0 41 -69 q0 -68 -41 -68 l-806 0 q-41 0 -41 68 Z" /><glyph glyph-name="uni4E8E" unicode="&#x4e8e;" d="M907 460 q41 0 41 -59 q0 -59 -41 -59 l-334 0 l0 -275 q0 -56 -14 -84 q-14 -28 -50 -42 q-54 -23 -162 -22 q-57 -1 -82 62 q-25 63 43 59 q115 -6 132 8 q7 5 7 20 l0 274 l-354 0 q-41 0 -41 59 q0 59 41 59 l354 0 l0 205 l-287 0 q-40 0 -40 59 q0 59 41 59 l678 0 q41 0 41 -59 q0 -59 -41 -59 l-266 0 l0 -205 l334 0 Z" /><glyph glyph-name="uni4E91" unicode="&#x4e91;" d="M806 781 q41 0 41 -61 q0 -61 -41 -61 l-602 0 q-41 0 -41 61 q0 61 41 61 l602 0 ZM909 503 q41 0 41 -62 q0 -62 -41 -62 l-418 0 q-89 -152 -180 -259 q-16 -19 10 -18 l373 23 l-72 107 q-23 33 31 61 q55 29 86 -13 q118 -155 180 -275 q17 -29 -41 -64 q-58 -35 -75 0 q-5 13 -39 70 q-514 -40 -560 -47 l-28 -7 q-40 -9 -63 57 q-23 67 13 87 l0 0 q18 15 43 43 q26 29 69 95 q44 66 83 140 l-230 0 q-41 0 -41 62 q0 62 41 62 l818 0 Z" /><glyph glyph-name="uni4E92" unicode="&#x4e92;" d="M343 319 q-5 -25 21 -25 l274 0 l18 132 q3 25 -23 25 l-260 0 l-30 -132 ZM725 54 l192 0 q41 0 41 -58 q0 -58 -41 -58 l-827 0 q-41 0 -41 58 q0 58 41 58 l511 0 l20 129 l-384 0 q-60 0 -45 56 q54 187 100 454 l-172 0 q-41 0 -41 57 q0 57 41 57 l767 0 q41 0 41 -57 q0 -57 -41 -57 l-465 0 l-25 -131 l349 -6 q49 0 45 -37 q-14 -139 -66 -465 Z" /><glyph glyph-name="uni4E94" unicode="&#x4e94;" d="M652 325 q2 26 -23 26 l-159 0 q-28 -163 -50 -273 l209 0 q15 137 23 247 ZM756 78 l152 0 q41 0 41 -59 q0 -59 -41 -59 l-810 0 q-41 0 -41 59 q0 59 41 59 l190 0 q27 128 52 273 l-129 0 q-41 0 -41 58 q0 59 41 59 l147 0 l24 170 l-227 0 q-41 0 -41 59 q0 59 41 59 l688 0 q41 0 41 -59 q0 -59 -41 -59 l-329 0 l-26 -170 l252 -3 q49 0 46 -41 q-5 -116 -30 -346 Z" /><glyph glyph-name="uni4E95" unicode="&#x4e95;" d="M391 346 l224 0 l0 191 l-221 0 l-3 -191 ZM909 346 q41 0 41 -61 q0 -60 -41 -60 l-167 0 l0 -272 q0 -41 -64 -41 q-63 0 -63 41 l0 272 l-240 0 q-42 -208 -171 -295 q-33 -26 -87 18 q-53 44 -17 69 q100 63 141 208 l-148 0 q-41 0 -41 60 q0 61 41 61 l171 0 l4 191 l-146 0 q-41 0 -41 60 q0 60 41 60 l146 0 l0 145 q0 41 63 41 q63 0 63 -41 l0 -145 l221 0 l0 147 q0 41 63 41 q64 0 64 -41 l0 -147 l141 0 q41 0 41 -60 q0 -60 -41 -60 l-141 0 l0 -191 l167 0 Z" /><glyph glyph-name="uni4E98" unicode="&#x4e98;" d="M124 682 q-41 0 -41 55 q0 55 41 55 l763 0 q41 0 41 -55 q0 -55 -41 -55 l-763 0 ZM53 1 q0 55 41 55 l816 0 q41 0 41 -55 q0 -54 -41 -54 l-816 0 q-41 0 -41 54 ZM320 324 l0 -65 q0 -25 26 -25 l314 0 q26 0 26 25 l0 65 l-366 0 ZM346 509 q-26 0 -26 -26 l0 -62 l366 0 l0 62 q0 26 -26 26 l-314 0 ZM202 566 q0 48 48 48 l512 0 q48 0 48 -48 l0 -389 q0 -48 -48 -48 l-512 0 q-48 0 -48 48 l0 389 Z" /><glyph glyph-name="uni4E9A" unicode="&#x4e9a;" d="M438 674 l0 -598 l115 0 l0 598 l-115 0 ZM683 76 l238 0 q41 0 41 -57 q0 -57 -41 -57 l-845 0 q-41 0 -41 57 q0 57 41 57 l232 0 l0 598 l-198 0 q-41 0 -41 59 q0 59 41 59 l784 0 q41 0 41 -59 q0 -59 -41 -59 l-211 0 l0 -598 ZM107 432 q-17 47 -1 82 q17 36 62 37 q8 19 30 -35 q74 -177 89 -238 q9 -27 -16 -53 q-25 -26 -78 -35 l-12 15 q-25 105 -74 227 ZM736 204 q-53 19 -37 56 q62 131 93 267 q11 45 69 26 q59 -19 43 -68 q-47 -157 -101 -267 q-14 -32 -67 -14 Z" /><glyph glyph-name="uni4E9B" unicode="&#x4e9b;" d="M818 320 l-134 0 q-86 0 -116 32 q-29 33 -29 123 l0 330 q0 41 59 41 q60 0 60 -41 l0 -133 l144 62 q37 16 81 -31 q45 -47 11 -61 q-79 -35 -236 -78 l0 -89 q0 -29 7 -37 q7 -7 35 -7 l107 0 q24 0 32 21 q8 22 7 43 q5 55 58 32 q54 -23 47 -76 q-3 -53 -33 -92 q-29 -39 -100 -39 ZM205 146 q-41 0 -41 57 q0 57 41 57 l598 0 q41 0 41 -57 q0 -57 -41 -57 l-598 0 ZM466 448 q41 4 42 -50 q2 -54 -12 -56 q-36 -4 -380 -46 q-69 -8 -75 51 q-6 59 35 62 l14 2 l0 293 q0 41 55 41 q55 0 55 -41 l0 -283 l57 6 l0 378 q0 41 59 41 q59 0 59 -41 l0 -109 l83 0 q41 0 41 -53 q0 -53 -41 -53 l-83 0 l0 -152 l91 10 ZM90 -66 q-41 0 -41 59 q0 59 41 59 l820 0 q41 0 41 -59 q0 -59 -41 -59 l-820 0 Z" /><glyph glyph-name="uni4EA1" unicode="&#x4ea1;" d="M913 640 q41 0 41 -58 q0 -58 -41 -58 l-607 0 l0 -415 q0 -26 26 -26 l511 0 q41 0 41 -62 q0 -61 -41 -61 l-617 0 q-48 0 -48 48 l0 516 l-89 0 q-41 0 -41 58 q0 58 41 58 l385 0 l-51 134 q-14 38 49 57 q63 19 79 -18 l42 -96 q20 -46 -28 -61 l-50 -16 l398 0 Z" /><glyph glyph-name="uni4EA4" unicode="&#x4ea4;" d="M897 721 q41 0 41 -58 q0 -58 -41 -58 l-795 0 q-41 0 -41 58 q0 58 41 58 l349 0 l-33 63 q-18 36 39 56 q57 20 76 -16 l54 -102 l310 -1 ZM627 510 q-32 25 15 58 q47 34 94 1 q137 -93 190 -157 q20 -21 -31 -60 q-51 -38 -73 -13 q-13 19 -84 81 q-71 62 -111 90 ZM269 562 q29 34 86 12 q58 -22 33 -52 q-24 -34 -98 -98 q-73 -63 -110 -85 q-32 -20 -79 23 q-47 44 -8 65 q114 57 176 135 ZM615 385 q16 39 76 21 q60 -17 42 -57 q-41 -98 -140 -195 q145 -95 317 -121 q46 -7 10 -60 q-36 -54 -82 -44 q-189 35 -317 131 q-21 16 -43 1 q-126 -90 -315 -135 q-45 -12 -81 41 q-36 53 10 62 q181 35 320 127 q-89 97 -129 190 q-17 40 36 56 q54 17 71 -22 q29 -72 111 -153 q88 83 114 158 Z" /><glyph glyph-name="uni4EA6" unicode="&#x4ea6;" d="M902 691 q41 0 41 -59 q0 -59 -41 -59 l-204 0 l0 -519 q0 -49 -12 -75 q-11 -26 -42 -40 q-44 -22 -124 -20 q-57 -2 -76 59 q-19 60 24 58 q10 0 54 0 q44 0 49 4 q5 4 5 16 l0 517 l-115 0 l0 -99 q0 -210 -65 -346 q-27 -55 -75 -114 q-48 -59 -75 -75 q-38 -30 -69 5 l-10 12 l-12 10 q-38 32 -1 65 l63 57 q43 50 66 96 q23 47 37 103 q20 85 20 189 l0 97 l-241 0 q-41 0 -41 59 q0 59 41 59 l367 0 l-45 92 q-17 36 40 55 q57 19 76 -17 l32 -58 q24 -44 -24 -61 l-29 -11 l386 0 ZM149 435 q13 53 72 41 q60 -12 47 -63 q-35 -153 -108 -244 q-21 -28 -73 5 q-51 33 -29 60 q65 72 91 201 ZM728 412 q-19 35 32 57 q52 23 80 -24 q87 -140 99 -208 q9 -32 -15 -61 q-23 -28 -75 -37 l-13 17 q-4 30 -43 121 q-38 91 -65 135 Z" /><glyph glyph-name="uni4EA7" unicode="&#x4ea7;" d="M893 471 q41 0 41 -58 q0 -58 -41 -58 l-630 0 q-25 0 -25 -25 q0 -288 -92 -401 q-19 -28 -69 15 q-50 42 -32 69 q68 84 68 320 l0 90 q0 48 48 48 l158 0 l-46 79 q-25 43 21 63 l39 17 l-187 0 q-41 0 -41 56 q0 57 41 57 l303 0 l-25 43 q-20 35 41 50 q62 15 86 -20 q17 -18 39 -73 l282 0 q41 0 41 -57 q0 -56 -41 -56 l-514 0 l53 -85 q26 -42 -20 -62 l-25 -12 l232 0 l57 121 q17 37 83 16 q67 -20 44 -53 l-59 -84 l170 0 Z" /><glyph glyph-name="uni4EA8" unicode="&#x4ea8;" d="M773 356 q41 0 82 -37 q42 -37 8 -57 q-113 -69 -267 -120 q-29 -9 -29 -35 l0 -76 q0 -46 -15 -69 q-15 -24 -61 -36 q-45 -13 -151 -12 q-59 -1 -80 53 q-21 53 39 51 q73 -2 101 -1 q28 1 34 5 q6 4 6 15 l0 107 q0 45 42 60 l131 46 l-478 0 q-41 0 -41 50 q0 50 41 50 l638 6 ZM661 478 q26 0 26 26 q0 36 -26 36 l-321 0 q-25 0 -25 -26 q0 -36 25 -36 l321 0 ZM765 618 q48 0 48 -48 l0 -122 q0 -48 -48 -48 l-523 0 q-47 0 -47 48 l0 122 q0 48 47 48 l523 0 ZM574 766 l336 0 q41 0 41 -52 q0 -52 -41 -52 l-818 0 q-41 0 -41 52 q0 52 41 52 l346 0 l-11 23 q-17 37 42 51 q60 14 78 -22 l27 -52 Z" /><glyph glyph-name="uni4EAB" unicode="&#x4eab;" d="M893 773 q41 0 41 -50 q0 -50 -41 -50 l-787 0 q-41 0 -41 50 q0 50 41 50 l327 0 l-8 21 q-13 39 48 49 q61 11 76 -27 l18 -43 l326 0 ZM325 546 q-26 0 -26 -26 q0 -30 26 -30 l350 0 q26 0 26 26 q0 30 -26 30 l-350 0 ZM827 456 q0 -48 -48 -48 l-551 0 q-48 0 -48 48 l0 123 q0 48 48 48 l551 0 q48 0 48 -48 l0 -123 ZM909 195 q41 0 41 -51 q0 -50 -41 -50 l-347 0 l0 -71 q0 -44 -15 -65 q-14 -22 -54 -33 q-39 -12 -136 -11 q-60 -1 -81 48 q-20 48 13 47 q25 -1 120 -1 q15 1 20 5 q6 4 6 15 l0 66 l-344 0 q-41 0 -41 50 q0 51 41 51 l344 0 q0 42 43 55 l83 25 l-372 0 q-41 0 -41 46 q0 47 41 47 l547 6 q41 0 79 -34 q38 -33 3 -51 q-90 -48 -244 -94 l335 0 Z" /><glyph glyph-name="uni4EAC" unicode="&#x4eac;" d="M191 174 q20 32 78 10 q59 -21 30 -62 q-64 -94 -142 -160 q-28 -26 -72 12 q-43 37 -14 62 q18 14 65 68 q48 55 55 70 ZM318 466 q-26 0 -26 -26 l0 -57 q0 -26 26 -26 l364 0 q26 0 26 26 l0 57 q0 26 -26 26 l-364 0 ZM834 303 q0 -48 -48 -48 l-219 0 l0 -219 q0 -47 -12 -71 q-12 -25 -45 -37 q-46 -18 -122 -16 q-61 -2 -75 40 l-6 16 q-18 57 42 57 l24 -1 q59 0 63 3 q5 3 5 13 l0 215 l-220 0 q-48 0 -48 48 l0 217 q0 48 48 48 l566 0 q47 0 47 -48 l0 -217 ZM703 105 q-38 43 11 73 q50 31 93 -17 q96 -103 118 -139 q14 -18 -39 -53 q-52 -35 -69 -9 q-32 56 -114 145 ZM588 735 l311 0 q41 0 41 -59 q0 -58 -41 -58 l-799 0 q-41 0 -41 58 q0 59 41 59 l346 0 l-25 49 q-18 36 40 54 q59 19 79 -16 l48 -87 Z" /><glyph glyph-name="uni4EB2" unicode="&#x4eb2;" d="M219 163 q21 34 79 17 q58 -17 33 -58 q-44 -83 -124 -145 q-31 -28 -81 8 q-49 35 -17 58 q16 9 60 57 q44 48 50 63 ZM669 108 q-38 40 12 68 q50 29 93 -13 q87 -81 114 -127 q17 -23 -37 -55 q-53 -32 -72 -3 q-34 58 -110 130 ZM932 450 q0 -51 -41 -51 l-325 0 l0 -76 l310 0 q41 0 41 -52 q0 -52 -41 -52 l-310 0 l0 -186 q0 -44 -11 -67 q-11 -23 -40 -35 q-40 -18 -107 -16 q-56 -2 -75 52 q-19 54 16 52 q9 0 75 0 q12 1 16 4 q4 3 4 13 l0 183 l-310 0 q-41 0 -41 52 q0 52 41 52 l310 0 l0 76 l-337 0 q-41 0 -41 51 q0 52 41 52 l178 0 l-24 53 q-24 54 34 68 l43 11 l-178 0 q-41 0 -41 49 q0 50 41 50 l281 0 l-19 51 q-14 38 45 52 q60 14 75 -24 l33 -79 l277 0 q41 0 41 -50 q0 -49 -41 -49 l-505 0 l61 -132 l191 0 l33 88 q14 38 75 27 q61 -11 44 -48 l-33 -67 l173 0 q41 0 41 -52 Z" /><glyph glyph-name="uni4EBA" unicode="&#x4eba;" d="M421 802 q1 44 69 44 q69 0 67 -42 q0 -37 -5 -114 q17 -153 62 -270 q50 -128 128 -220 q41 -50 101 -97 q61 -47 95 -61 q38 -18 -6 -69 q-43 -52 -80 -33 q-239 113 -354 454 q-101 -322 -333 -456 q-35 -23 -85 26 q-49 48 -13 68 q73 38 151 127 q78 90 115 165 q38 76 59 188 q22 113 25 162 q5 80 4 128 Z" /><glyph glyph-name="uni4EBF" unicode="&#x4ebf;" d="M233 805 q15 38 71 21 q56 -17 41 -55 q-23 -63 -76 -162 l0 -654 q0 -41 -58 -41 q-58 0 -58 41 l0 473 q-40 -51 -46 -56 q-23 -26 -55 35 q-32 62 -6 89 q42 41 103 141 q62 100 84 168 ZM568 57 l212 0 q38 0 52 34 q14 35 15 94 q3 57 55 38 q53 -19 48 -70 q-2 -58 -22 -115 q-20 -56 -56 -76 q-35 -20 -101 -20 l-199 0 q-108 0 -161 41 q-52 40 -52 113 q0 43 16 85 q17 42 98 158 q82 117 221 285 q21 26 -5 26 l-261 0 q-41 0 -41 56 q0 56 41 56 l388 4 q41 0 78 -20 q38 -20 29 -31 q5 3 -98 -115 q-103 -117 -204 -248 q-101 -131 -122 -172 q-21 -41 -21 -71 q0 -52 90 -52 Z" /><glyph glyph-name="uni4EC0" unicode="&#x4ec0;&#xf9fd;" d="M243 805 q14 39 70 21 q57 -18 40 -55 l-70 -154 l0 -661 q0 -41 -59 -41 q-58 0 -58 41 l0 475 q-43 -57 -52 -64 q-23 -26 -55 35 q-32 62 -6 89 q44 43 105 144 q62 101 85 170 ZM918 517 q41 0 41 -59 q0 -58 -41 -58 l-205 0 l0 -446 q0 -41 -62 -41 q-62 0 -62 41 l0 446 l-216 0 q-41 0 -41 58 q0 59 41 59 l216 0 l0 274 q0 41 62 41 q62 0 62 -41 l0 -274 l205 0 Z" /><glyph glyph-name="uni4EC1" unicode="&#x4ec1;" d="M886 688 q41 0 41 -64 q0 -63 -41 -63 l-443 0 q-41 0 -41 63 q0 64 41 64 l443 0 ZM252 805 q15 38 74 19 q60 -19 44 -58 q-26 -67 -82 -164 l0 -646 q0 -41 -60 -41 q-60 0 -60 41 l0 467 q-39 -51 -52 -63 q-27 -28 -62 35 q-35 63 -8 89 q47 42 113 145 q67 103 93 176 ZM347 36 q0 64 41 64 l537 0 q41 0 41 -64 q0 -63 -41 -63 l-537 0 q-41 0 -41 63 Z" /><glyph glyph-name="uni4EC5" unicode="&#x4ec5;" d="M251 803 q16 38 75 19 q60 -19 42 -59 q-29 -73 -82 -165 l0 -643 q0 -41 -59 -41 q-59 0 -59 41 l0 468 q-34 -44 -53 -62 q-30 -31 -65 32 q-34 63 -7 89 q49 43 115 145 q67 103 93 176 ZM791 602 q7 29 -19 29 l-242 0 q-26 0 -20 -28 q40 -180 140 -327 q104 146 141 326 ZM812 747 q41 0 79 -13 q39 -12 31 -60 q-39 -290 -194 -493 q105 -110 215 -147 q40 -15 1 -64 q-38 -50 -78 -33 q-110 43 -219 153 q-110 -107 -231 -157 q-40 -19 -75 30 q-35 48 4 63 q118 42 227 156 q-113 160 -167 380 q-14 57 41 69 l-31 0 q-41 0 -41 55 q0 56 41 56 l397 5 Z" /><glyph glyph-name="uni4EC6" unicode="&#x4ec6;" d="M250 806 q15 38 74 18 q59 -19 44 -57 q-24 -63 -80 -164 l0 -647 q0 -41 -61 -41 q-61 0 -61 41 l0 462 q-39 -50 -50 -59 q-26 -28 -60 37 q-34 66 -7 93 q47 43 112 144 q65 102 89 173 ZM642 525 l24 25 q32 35 60 9 q29 -26 62 -55 q152 -135 171 -158 q14 -14 -31 -65 q-44 -50 -64 -28 q-19 26 -114 115 q-94 90 -108 104 l0 -515 q0 -41 -65 -41 q-65 0 -65 41 l0 838 q0 41 65 41 q65 0 65 -40 l0 -271 Z" /><glyph glyph-name="uni4EC7" unicode="&#x4ec7;" d="M229 805 q14 39 70 21 q56 -17 40 -57 q-25 -69 -77 -167 l0 -647 q0 -41 -59 -41 q-59 0 -59 41 l0 462 q-22 -31 -29 -37 q-29 -33 -62 28 q-32 61 -7 89 q42 41 101 141 q60 100 82 167 ZM829 38 l40 5 q6 5 9 31 q3 57 2 76 q1 43 48 17 q47 -25 44 -78 q1 -42 -10 -84 q-11 -42 -38 -59 q-26 -18 -66 -18 l-64 0 q-81 0 -98 68 l-7 489 q0 26 -26 26 l-88 0 q-12 -213 -61 -360 q-48 -147 -130 -214 q-30 -29 -74 17 q-43 45 -13 73 q68 54 109 177 q41 124 50 307 l-101 0 q-41 0 -41 58 q0 58 41 58 l105 0 q1 68 0 163 q1 54 61 54 q60 0 59 -54 q1 -94 -1 -163 l183 0 q48 0 48 -48 l0 -497 q0 -35 4 -40 q4 -4 15 -4 Z" /><glyph glyph-name="uni4ECA" unicode="&#x4eca;" d="M593 364 l155 5 q41 1 88 -22 q47 -22 26 -51 q-94 -135 -267 -349 q-31 -40 -93 -11 q-61 28 -38 56 q77 90 182 225 q21 26 -5 26 l-443 0 q-41 0 -41 60 q0 61 41 61 l352 0 q-59 60 -130 112 q-38 31 0 68 q39 38 84 4 q102 -71 123 -95 q28 -26 -5 -60 l-29 -29 ZM458 825 q22 33 81 5 q60 -27 39 -57 l0 0 q72 -74 181 -147 q109 -72 177 -101 q36 -15 -11 -70 q-46 -55 -80 -37 q-59 31 -158 106 q-99 76 -180 161 q-155 -175 -349 -276 q-38 -20 -84 35 q-46 56 -9 72 q101 43 222 136 q122 94 171 173 Z" /><glyph glyph-name="uni4ECB" unicode="&#x4ecb;" d="M256 325 l0 69 q0 41 63 41 q63 0 63 -41 l0 -72 q0 -59 -7 -107 q-7 -47 -28 -104 q-44 -120 -140 -170 q-45 -29 -76 4 l-14 15 q-55 41 4 78 q115 57 132 222 q3 29 3 65 ZM695 -87 q-63 0 -63 41 l0 442 q0 41 63 41 q64 0 64 -41 l0 -442 q0 -41 -64 -41 ZM472 828 q22 32 70 -2 q49 -34 30 -61 l0 0 q67 -79 177 -142 q111 -62 197 -82 q41 -10 -2 -66 q-42 -56 -83 -43 q-201 60 -362 246 q-175 -182 -370 -258 q-38 -15 -75 42 q-36 58 1 70 q106 31 238 125 q132 94 179 171 Z" /><glyph glyph-name="uni4ECD" unicode="&#x4ecd;" d="M196 797 q15 48 69 32 q55 -16 41 -54 l-61 -156 l0 -664 q0 -41 -57 -41 q-57 0 -57 41 l0 456 q-33 -47 -34 -47 q-22 -28 -51 36 q-29 64 -6 93 q103 120 156 304 ZM769 538 q-7 -34 19 -34 l100 0 q49 0 46 -83 q-10 -387 -62 -451 q-31 -38 -87 -47 q-37 -6 -86 -3 q-54 1 -73 59 q-18 57 24 54 q23 -2 81 -2 q26 0 40 15 q31 35 43 305 q3 45 -23 45 l-106 0 q-60 0 -46 56 q22 74 42 186 q6 33 -20 33 l-114 0 q-7 -320 -57 -494 q-49 -166 -117 -239 q-23 -29 -69 14 q-45 42 -20 72 q18 17 49 81 q31 64 47 124 q17 61 27 145 q14 118 16 297 l-51 0 q-41 0 -41 54 q0 54 41 54 l388 0 q60 0 49 -54 q-12 -68 -40 -187 Z" /><glyph glyph-name="uni4ECE" unicode="&#x4ece;" d="M508 284 q18 -31 -27 -75 q-45 -43 -62 -12 q-22 50 -98 153 q-52 -281 -155 -403 q-21 -28 -80 14 q-59 41 -35 67 q91 93 137 318 q40 202 46 439 q2 48 67 46 q66 -2 64 -46 q-4 -131 -22 -284 q123 -132 165 -217 ZM619 787 q2 46 68 43 q66 -2 63 -51 q-7 -146 -25 -272 q74 -343 221 -445 q27 -20 -18 -75 q-44 -55 -71 -30 q-103 85 -179 312 q-62 -223 -162 -321 q-25 -28 -84 14 q-59 41 -32 66 q107 91 162 312 q27 110 40 225 q13 116 17 222 Z" /><glyph glyph-name="uni4ED3" unicode="&#x4ed3;" d="M306 496 l413 0 q-115 75 -215 182 q-84 -102 -198 -182 ZM455 816 q21 35 78 10 q57 -24 37 -59 l0 0 q152 -167 366 -250 q43 -17 3 -70 q-40 -52 -81 -33 q-31 15 -84 48 l-1 -15 q-5 -130 -15 -191 q-9 -61 -27 -84 q-28 -32 -81 -38 q-52 -5 -99 -3 q-49 3 -63 55 q-14 53 31 49 q15 -2 56 -2 q41 0 51 11 l22 139 l-311 0 l0 -275 q0 -37 17 -47 q17 -10 78 -10 l242 0 q53 0 69 24 q16 24 17 55 q7 55 66 32 q60 -23 51 -77 q-5 -68 -46 -110 q-41 -42 -149 -42 l-257 0 q-124 0 -170 36 q-45 36 -45 138 l0 327 q-54 -31 -67 -37 q-35 -16 -77 37 q-42 53 -4 69 q107 41 226 134 q120 94 167 179 Z" /><glyph glyph-name="uni4ED5" unicode="&#x4ed5;" d="M257 807 q16 38 74 19 q58 -18 43 -54 q-25 -65 -88 -173 l0 -644 q0 -41 -59 -41 q-59 0 -59 41 l0 472 q-33 -42 -50 -58 q-30 -31 -65 30 q-34 61 -7 87 q49 44 117 146 q68 103 94 175 ZM927 545 q41 0 41 -58 q0 -58 -41 -58 l-212 0 l0 -364 l195 0 q41 0 41 -57 q0 -57 -41 -57 l-516 0 q-41 0 -41 57 q0 57 41 57 l199 0 l0 364 l-224 0 q-41 0 -41 58 q0 58 41 58 l224 0 l0 241 q0 41 61 41 q61 0 61 -41 l0 -241 l212 0 Z" /><glyph glyph-name="uni4ED6" unicode="&#x4ed6;" d="M229 805 q15 39 70 21 q55 -18 40 -56 q-24 -63 -78 -163 l0 -651 q0 -41 -59 -41 q-59 0 -59 41 l0 468 q-31 -42 -37 -46 q-26 -29 -58 31 q-32 60 -6 87 q43 41 104 141 q61 100 83 168 ZM585 35 l202 0 q43 0 57 25 q14 25 15 57 q7 55 60 32 q53 -23 45 -76 q-4 -61 -40 -103 q-35 -42 -128 -42 l-221 0 q-107 0 -145 37 q-38 36 -38 139 l0 273 l-37 -15 q-38 -14 -61 38 q-23 53 15 67 l83 33 l0 195 q0 41 59 41 q59 0 59 -41 l0 -149 l97 38 l0 218 q0 41 55 41 q56 0 56 -41 l0 -175 l138 66 l38 -15 q43 -16 34 -61 l-4 -15 q7 -242 0 -296 q-7 -69 -57 -90 q-34 -16 -61 -14 q-51 0 -64 54 q-13 55 33 53 l16 0 q19 0 24 25 q6 25 6 169 q1 44 -23 35 l-80 -32 l0 -315 q0 -41 -56 -41 q-55 0 -55 41 l0 271 l-97 -38 l0 -320 q0 -45 13 -57 q13 -12 62 -12 Z" /><glyph glyph-name="uni4ED7" unicode="&#x4ed7;" d="M251 803 q16 38 74 19 q58 -19 42 -56 q-24 -61 -81 -161 l0 -650 q0 -41 -59 -41 q-59 0 -59 41 l0 473 q-38 -50 -56 -67 q-29 -29 -64 33 q-34 62 -7 88 q49 43 116 145 q68 103 94 176 ZM922 643 q41 0 41 -57 q0 -57 -41 -57 l-146 0 q-4 -230 -92 -376 q110 -98 245 -126 q45 -10 7 -63 q-37 -54 -81 -41 q-134 33 -246 134 q-84 -87 -174 -127 q-40 -20 -81 29 q-41 49 0 68 q93 40 169 124 q-86 120 -126 273 q-12 46 42 57 q54 11 66 -34 q25 -102 91 -196 q56 108 60 278 l-277 0 q-41 0 -41 57 q0 57 41 57 l277 0 l0 152 q0 41 60 41 q60 0 60 -41 l0 -152 l146 0 Z" /><glyph glyph-name="uni4EE3" unicode="&#x4ee3;" d="M925 712 q23 -33 -25 -64 q-48 -31 -68 3 q-17 36 -46 60 q-36 37 -32 69 q5 32 48 44 q2 16 38 -19 q65 -57 85 -93 ZM269 801 q16 38 73 19 q57 -18 39 -54 l-75 -148 l0 -662 q0 -41 -62 -41 q-62 0 -62 41 l0 484 q-56 -70 -78 -88 q-26 -24 -59 36 q-33 61 -5 86 q54 45 127 149 q73 104 102 178 ZM954 536 q9 -56 -31 -61 l-250 -35 q46 -366 161 -380 q22 -2 34 68 q5 34 5 44 q4 47 52 13 q49 -34 37 -102 q-19 -174 -123 -168 q-122 12 -189 140 q-67 129 -95 369 l-157 -22 q-40 -5 -49 52 q-8 58 32 63 l162 22 q-12 155 -15 254 q-1 39 59 39 q61 0 62 -46 q2 -112 12 -231 l245 32 q40 5 48 -51 Z" /><glyph glyph-name="uni4EE4" unicode="&#x4ee4;" d="M752 399 q41 0 86 -27 q46 -26 23 -50 q-76 -82 -242 -244 q73 -45 78 -51 q25 -18 -21 -69 q-45 -52 -68 -33 q-84 71 -274 176 q-49 28 -8 73 q42 45 83 23 q46 -24 106 -58 q111 108 130 129 q10 10 -16 10 l-427 0 q-41 0 -41 57 q0 58 41 58 l322 0 l-105 110 q-28 29 14 63 q42 35 71 7 l80 -77 q36 -34 -2 -66 l-42 -37 l212 6 ZM482 827 q24 29 79 0 q55 -29 25 -64 q76 -66 185 -129 q110 -62 176 -85 q37 -13 -8 -67 q-45 -54 -80 -38 q-61 27 -164 95 q-102 69 -185 146 q-170 -157 -360 -244 q-38 -18 -81 34 q-42 53 -5 68 q104 40 235 127 q131 87 183 157 Z" /><glyph glyph-name="uni4EE5" unicode="&#x4ee5;" d="M591 554 q18 -36 -36 -69 q-54 -33 -71 4 q-25 69 -68 121 q-29 39 -18 72 q12 34 58 46 q5 17 34 -21 q73 -89 101 -153 ZM275 222 l154 78 q36 18 51 -39 q16 -57 -36 -85 q-149 -78 -217 -118 q-67 -39 -68 -43 q-23 -19 -56 28 q-32 48 -3 76 l21 20 q24 31 24 66 l0 533 q0 41 65 41 q65 0 65 -41 l0 -516 ZM963 17 q15 -21 -38 -60 q-52 -40 -70 -13 q-34 57 -126 156 q-24 28 -39 7 q-80 -118 -199 -173 q-46 -25 -74 11 l-13 16 l-9 9 q-41 43 18 70 q113 43 202 182 q79 125 107 350 q13 99 15 186 q3 47 66 44 q64 -3 61 -55 q-14 -315 -91 -491 q-8 -19 19 -48 q135 -135 171 -191 Z" /><glyph glyph-name="uni4EEA" unicode="&#x4eea;" d="M714 678 q15 -38 -35 -65 q-50 -27 -63 12 q-11 43 -32 72 q-26 44 -15 76 q11 33 56 39 q2 18 29 -23 q49 -69 60 -111 ZM228 805 q15 39 71 21 q56 -18 40 -57 q-24 -67 -79 -167 l0 -646 q0 -41 -57 -41 q-57 0 -57 41 l0 469 q-31 -41 -39 -48 q-27 -31 -60 31 q-32 62 -6 89 q43 41 104 140 q61 100 83 168 ZM803 738 q8 49 67 39 q60 -9 50 -59 q-56 -328 -208 -532 q107 -113 223 -155 q41 -16 -1 -68 q-42 -52 -82 -34 q-117 48 -224 161 q-115 -110 -240 -160 q-39 -18 -75 29 q-36 46 4 62 q128 48 239 159 q-137 201 -193 527 q-9 50 48 58 q57 9 65 -40 q43 -265 162 -445 q126 186 165 458 Z" /><glyph glyph-name="uni4EEC" unicode="&#x4eec;" d="M191 799 q13 45 68 29 q55 -16 42 -56 q-20 -71 -65 -176 l0 -641 q0 -41 -57 -41 q-56 0 -56 41 l0 428 l-15 -20 q-24 -33 -53 30 q-29 64 -5 97 q92 118 141 309 ZM433 -44 q0 -41 -58 -41 q-58 0 -58 41 l0 631 q0 41 58 41 q58 0 58 -41 l0 -631 ZM393 747 q-32 49 13 75 q45 27 80 -23 q57 -77 74 -114 q14 -24 -35 -55 q-48 -30 -61 -3 q-17 44 -71 120 ZM696 -29 q-18 55 35 52 q32 -2 62 1 q22 0 22 22 l0 635 q0 26 -26 26 l-175 0 q-41 0 -41 53 q0 54 41 54 l271 0 q48 0 48 -48 l0 -722 q0 -45 -12 -69 q-11 -25 -38 -38 q-40 -21 -112 -19 q-56 -2 -75 53 Z" /><glyph glyph-name="uni4EF0" unicode="&#x4ef0;" d="M202 808 q12 40 67 23 q55 -16 41 -58 q-21 -67 -62 -154 l0 -664 q0 -41 -57 -41 q-56 0 -56 41 l0 458 q-24 -37 -32 -45 q-27 -34 -56 30 q-29 64 -6 93 q37 43 89 145 q53 102 72 172 ZM437 241 q0 -26 24 -18 l71 24 q38 12 43 -38 q6 -50 -58 -75 q-139 -51 -160 -70 q-15 -10 -43 29 q-28 39 -2 71 q19 8 19 71 l0 460 q0 45 53 62 q74 23 133 56 q34 18 72 -26 q39 -44 1 -57 l-129 -45 q-24 -8 -24 -34 l0 -410 ZM885 724 q48 0 48 -48 l0 -485 q0 -78 -38 -102 q-37 -23 -77 -21 q-52 -2 -71 54 q-19 57 22 57 l34 0 q17 0 17 15 l0 399 q0 26 -26 26 l-50 0 q-26 0 -26 -26 l0 -639 q0 -41 -58 -41 q-57 0 -57 41 l0 722 q0 48 48 48 l234 0 Z" /><glyph glyph-name="uni4EF6" unicode="&#x4ef6;" d="M229 804 q15 39 71 21 q57 -18 41 -58 q-27 -73 -82 -173 l0 -639 q0 -41 -57 -41 q-56 0 -56 41 l0 462 q-40 -50 -39 -48 q-21 -24 -53 38 q-32 62 -7 89 q41 41 100 141 q60 100 82 167 ZM922 365 q41 0 41 -58 q0 -58 -41 -58 l-215 0 l0 -295 q0 -41 -60 -41 q-60 0 -60 41 l0 295 l-229 0 q-41 0 -41 58 q0 58 41 58 l229 0 l0 172 l-122 0 q-27 -73 -43 -96 q-19 -33 -71 -5 q-51 29 -34 56 q60 85 90 246 q11 54 68 42 q58 -12 48 -51 l-19 -76 l83 0 l0 140 q0 41 60 41 q60 0 60 -41 l0 -140 l168 0 q41 0 41 -58 q0 -58 -41 -58 l-168 0 l0 -172 l215 0 Z" /><glyph glyph-name="uni4EF7" unicode="&#x4ef7;" d="M427 308 l0 94 q0 41 60 41 q61 0 61 -41 l0 -96 q0 -266 -141 -374 q-30 -27 -74 15 q-44 41 -14 66 q108 74 108 295 ZM760 -85 q-61 0 -61 41 l0 448 q0 41 61 41 q62 0 62 -41 l0 -448 q0 -41 -62 -41 ZM563 810 q16 39 78 28 q63 -10 43 -56 q50 -85 129 -162 q79 -76 129 -101 q35 -19 -6 -67 q-41 -47 -74 -27 q-118 70 -235 248 q-109 -174 -257 -255 q-45 -27 -68 14 q-18 44 -38 47 l0 -524 q0 -41 -60 -41 q-60 0 -60 41 l0 458 l-28 -34 q-26 -31 -58 31 q-32 62 -7 89 q41 41 100 141 q59 100 81 167 q15 39 71 21 q56 -17 42 -54 q-23 -66 -81 -173 l0 -106 q233 125 299 315 Z" /><glyph glyph-name="uni4EFB" unicode="&#x4efb;" d="M962 374 q0 -57 -41 -57 l-209 0 l0 -256 l199 0 q41 0 41 -57 q0 -57 -41 -57 l-510 0 q-41 0 -41 57 q0 57 41 57 l190 0 l0 256 l-230 0 q-41 0 -41 57 q0 58 41 58 l230 0 l0 222 q-80 -14 -160 -24 q-48 -5 -65 44 q-17 50 33 57 q273 37 419 90 q33 12 76 -38 q44 -50 8 -62 q-63 -21 -190 -45 l0 -244 l209 0 q41 0 41 -58 ZM326 825 q59 -18 42 -54 l-81 -167 l0 -649 q0 -41 -60 -41 q-59 0 -59 41 l0 471 q-47 -59 -57 -67 q-24 -25 -59 37 q-35 63 -8 89 q48 43 115 146 q67 103 93 175 q15 38 74 19 Z" /><glyph glyph-name="uni4EFD" unicode="&#x4efd;" d="M225 804 q14 39 70 22 q56 -17 40 -59 q-27 -75 -76 -164 l0 -649 q0 -41 -59 -41 q-59 0 -59 41 l0 460 l-31 -38 q-26 -31 -59 31 q-32 62 -7 89 q41 41 100 141 q59 100 81 167 ZM680 758 q-11 49 42 58 q54 10 65 -37 q18 -84 65 -165 q48 -80 97 -115 q35 -27 -5 -78 q-39 -50 -64 -30 l0 0 q-12 12 -17 16 q-8 -221 -20 -317 q-11 -95 -33 -122 q-27 -36 -78 -44 q-36 -7 -69 -4 q-51 1 -68 56 q-16 54 21 51 q3 -1 57 -1 q23 0 34 14 q26 32 38 318 l-132 0 q-19 -168 -76 -276 q-57 -107 -132 -148 q-36 -24 -76 20 q-40 44 -3 65 q60 28 108 116 q49 88 61 223 l-42 0 q-48 0 -48 49 l1 11 l-31 -30 q-29 -28 -64 26 q-34 55 -3 82 q114 87 160 276 q13 47 71 34 q58 -12 45 -56 q-39 -148 -122 -260 q-16 -22 10 -22 l310 0 q26 0 11 19 q-77 97 -113 271 Z" /><glyph glyph-name="uni4EFF" unicode="&#x4eff;" d="M229 810 q15 39 72 21 q57 -18 42 -56 q-25 -69 -83 -177 l0 -642 q0 -41 -58 -41 q-58 0 -58 41 l0 461 l-31 -37 q-26 -31 -59 32 q-33 63 -8 90 q42 41 101 141 q60 100 82 167 ZM966 617 q0 -58 -41 -58 l-322 0 l-6 -104 l266 0 q49 0 47 -49 l-1 -11 q-9 -206 -22 -302 q-13 -95 -37 -123 q-31 -37 -90 -43 q-40 -7 -87 -4 q-53 1 -72 56 q-18 55 18 52 q15 -2 85 -2 q25 -1 38 14 q31 31 39 256 q3 45 -23 45 l-173 0 q-21 -143 -74 -250 q-52 -107 -122 -155 q-33 -27 -76 16 q-43 42 -8 69 q58 38 97 126 q21 46 35 89 q14 43 21 103 q12 93 16 217 l-109 0 q-41 0 -41 58 q0 59 41 59 l243 0 l-31 110 q-11 39 48 53 q60 14 73 -24 l22 -65 q15 -46 -32 -59 l-54 -15 l291 0 q41 0 41 -59 Z" /><glyph glyph-name="uni4F01" unicode="&#x4f01;" d="M569 247 l0 -200 l317 0 q41 0 41 -53 q0 -54 -41 -54 l-768 0 q-41 0 -41 54 q0 53 41 53 l67 0 l0 308 q0 41 59 41 q59 0 59 -41 l0 -308 l140 0 l0 472 q0 41 63 41 q63 0 63 -41 l0 -165 l227 0 q40 0 40 -54 q0 -53 -40 -53 l-227 0 ZM536 829 q54 -26 33 -54 l0 0 q158 -167 369 -241 q43 -15 5 -67 q-37 -51 -77 -34 q-79 35 -176 98 q-96 63 -190 163 q-159 -169 -359 -260 q-39 -18 -80 32 q-40 51 -2 66 q105 41 228 129 q124 88 173 163 q23 32 76 5 Z" /><glyph glyph-name="uni4F0A" unicode="&#x4f0a;" d="M240 806 q16 38 71 20 q55 -17 39 -55 q-24 -61 -77 -156 l0 -659 q0 -41 -57 -41 q-56 0 -56 41 l0 488 q-47 -60 -59 -69 q-24 -25 -56 35 q-31 61 -4 87 q45 41 109 141 q65 100 90 168 ZM788 330 l0 117 l-141 0 l0 -117 l141 0 ZM647 673 l0 -116 l141 0 l0 90 q0 26 -26 26 l-115 0 ZM923 557 q41 0 41 -55 q0 -55 -41 -55 l-20 0 l0 -234 q0 -41 -58 -41 q-57 0 -57 48 l-161 0 q-51 -211 -207 -289 q-38 -22 -79 23 q-40 45 0 65 q116 49 165 201 l-102 0 q-41 0 -41 55 q0 55 41 55 l122 0 l3 117 l-176 0 q-41 0 -41 55 q0 55 41 55 l176 0 l0 116 l-116 0 q-41 0 -41 55 q0 55 41 55 l442 0 q48 0 48 -48 l0 -178 l20 0 Z" /><glyph glyph-name="uni4F0D" unicode="&#x4f0d;" d="M236 806 q15 38 70 21 q55 -17 42 -52 q-18 -53 -74 -158 l0 -664 q0 -41 -58 -41 q-58 0 -58 41 l0 479 q-45 -58 -53 -66 q-23 -25 -54 37 q-30 63 -5 90 q43 41 105 142 q62 102 85 171 ZM760 323 q2 27 -24 27 l-124 0 q-32 -213 -47 -290 l172 0 q15 143 23 263 ZM857 60 l71 0 q41 0 41 -56 q0 -55 -41 -55 l-569 0 q-41 0 -41 55 q0 56 41 56 l84 0 q19 96 49 290 l-85 0 q-41 0 -41 55 q0 56 41 56 l101 0 l26 202 l-133 0 q-41 0 -41 55 q0 56 41 56 l494 0 q40 0 40 -56 q0 -55 -41 -55 l-238 0 l-27 -202 l211 -2 q49 0 47 -38 q-5 -110 -30 -361 Z" /><glyph glyph-name="uni4F11" unicode="&#x4f11;" d="M914 605 q41 0 41 -58 q0 -58 -41 -58 l-168 0 q96 -238 212 -338 q27 -24 -18 -72 q-44 -47 -69 -22 q-89 87 -177 293 l0 -396 q0 -41 -59 -41 q-59 0 -59 41 l0 376 q-91 -190 -181 -272 q-32 -31 -63 6 q-2 9 -50 51 l0 -159 q0 -41 -59 -41 q-58 0 -58 41 l0 467 q-47 -58 -57 -66 q-25 -24 -60 38 q-34 63 -7 89 q49 43 116 145 q68 102 94 175 q16 38 75 19 q59 -19 42 -58 q-28 -73 -86 -172 l0 -440 q0 -26 18 -11 q54 44 119 140 q65 97 110 207 l-166 0 q-41 0 -41 58 q0 58 41 58 l213 0 l0 185 q0 41 59 41 q59 0 59 -41 l0 -185 l220 0 Z" /><glyph glyph-name="uni4F17" unicode="&#x4f17;" d="M600 422 q7 57 67 50 q61 -6 54 -50 q-3 -28 -14 -85 q30 -94 90 -177 q61 -83 113 -105 q37 -19 -4 -72 q-41 -54 -73 -33 q-90 50 -159 188 q-15 31 -28 0 q-51 -133 -131 -197 q-27 -26 -78 12 q-51 37 -24 58 q158 111 187 411 ZM457 820 q20 37 79 13 q59 -23 39 -58 l-7 -13 q62 -88 167 -157 q106 -68 189 -89 q41 -11 0 -64 q-40 -52 -80 -38 q-188 62 -337 259 q-88 -113 -213 -195 l25 -3 q49 -4 42 -55 q-2 -28 -17 -97 q116 -95 143 -135 q20 -24 -21 -68 q-40 -43 -60 -17 q-15 27 -93 103 q-57 -184 -142 -259 q-26 -27 -77 10 q-51 37 -26 59 q136 105 175 432 q-71 -38 -85 -44 q-31 -13 -73 42 q-42 56 -2 70 q106 36 219 126 q114 90 155 178 Z" /><glyph glyph-name="uni4F18" unicode="&#x4f18;" d="M232 805 q14 39 70 21 q56 -17 41 -55 q-26 -74 -85 -182 l0 -635 q0 -41 -57 -41 q-56 0 -56 41 l0 459 l-29 -36 q-26 -31 -58 30 q-32 62 -7 90 q41 42 100 141 q59 100 81 167 ZM913 619 q41 0 41 -56 q0 -56 -41 -56 l-304 0 q-16 -206 -74 -354 q-58 -147 -155 -215 q-33 -27 -77 20 q-43 47 -9 73 q82 54 133 177 q51 123 64 299 l-153 0 q-41 0 -41 56 q0 56 41 56 l159 0 q2 69 1 162 q1 53 60 53 q60 0 59 -43 q1 -69 -2 -172 l298 0 ZM768 45 l64 0 q18 0 23 27 q6 27 6 70 q3 57 55 33 q52 -24 47 -79 q-3 -70 -29 -115 q-26 -45 -91 -45 l-94 0 q-73 0 -99 32 q-25 32 -25 117 l0 321 q0 41 58 41 q58 0 58 -41 l0 -321 q0 -26 5 -33 q5 -7 22 -7 ZM868 650 q-41 -31 -68 0 l-76 87 q-27 31 14 60 q42 30 69 0 l76 -86 q27 -30 -15 -61 Z" /><glyph glyph-name="uni4F19" unicode="&#x4f19;" d="M825 620 q9 47 74 31 q65 -16 49 -69 q-39 -134 -75 -212 q-12 -29 -66 -14 q-53 16 -40 54 q40 103 58 210 ZM457 364 q-14 -37 -72 -14 q-58 23 -43 58 q34 68 44 206 q5 51 62 43 q57 -7 54 -55 q-6 -148 -45 -238 ZM240 810 q15 38 71 19 q57 -18 40 -55 l-72 -153 l0 -665 q0 -41 -62 -41 q-62 0 -62 41 l0 475 q-30 -37 -42 -49 q-29 -33 -62 30 q-32 64 -6 91 q44 40 107 139 q63 100 88 168 ZM576 809 q1 25 65 25 q65 0 64 -59 q-1 -213 -9 -311 q25 -174 90 -283 q65 -109 152 -138 q41 -16 1 -70 q-40 -55 -80 -36 q-55 22 -117 92 q-61 70 -98 173 q-71 -195 -223 -266 q-44 -24 -70 14 l-11 15 q-45 48 13 79 q47 18 104 88 q61 76 84 161 q25 94 30 182 q6 134 6 234 q0 100 -1 100 Z" /><glyph glyph-name="uni4F1A" unicode="&#x4f1a;" d="M630 153 q-28 29 23 55 q51 26 80 -1 q37 -30 99 -102 q62 -71 75 -97 q20 -30 -33 -62 q-53 -33 -72 0 q2 0 -30 43 q-401 -29 -489 -37 q-87 -8 -93 -12 q-29 -9 -49 51 q-20 60 10 72 q-1 -6 49 37 q49 37 132 138 l-201 0 q-41 0 -41 57 q0 58 41 58 l745 0 q41 0 41 -58 q0 -57 -41 -57 l-379 0 q-72 -89 -157 -165 l348 20 l-58 60 ZM335 546 l344 0 q-107 71 -177 137 q-67 -67 -167 -137 ZM473 822 q23 30 77 4 q55 -26 30 -57 l-9 -11 q75 -64 185 -125 q110 -60 180 -82 q38 -12 -4 -65 q-42 -52 -81 -36 q-43 17 -116 61 l0 -26 q0 -48 -48 -48 l-371 0 q-48 0 -48 48 l0 18 q-87 -49 -121 -64 q-32 -15 -75 38 q-42 53 -4 68 q106 40 232 126 q126 86 173 151 Z" /><glyph glyph-name="uni4F1F" unicode="&#x4f1f;" d="M232 805 q14 39 70 21 q56 -18 40 -59 q-25 -70 -76 -164 l0 -648 q0 -41 -57 -41 q-56 0 -56 41 l0 466 q-29 -39 -36 -45 q-27 -31 -59 31 q-32 62 -7 90 q41 41 100 141 q59 100 81 167 ZM679 348 l233 0 q49 0 45 -78 q-6 -199 -49 -247 q-20 -28 -55 -34 q-34 -6 -46 -3 q-46 0 -59 51 q-13 51 31 48 l12 0 q19 0 28 11 l23 116 q5 25 -21 25 l-142 0 l0 -282 q0 -41 -57 -41 q-57 0 -57 41 l0 282 l-210 0 q-41 0 -41 55 q0 56 41 56 l210 0 l0 79 l-155 0 q-41 0 -41 55 q0 55 41 55 l155 0 l0 76 l-180 0 q-41 0 -41 55 q0 55 41 55 l180 0 l0 84 q0 41 57 41 q57 0 57 -41 l0 -84 l218 0 q41 0 41 -55 q0 -55 -41 -55 l-218 0 l0 -76 l183 0 q41 0 41 -55 q0 -55 -41 -55 l-183 0 l0 -79 Z" /><glyph glyph-name="uni4F20" unicode="&#x4f20;" d="M227 805 q15 38 71 20 q57 -18 41 -57 q-27 -71 -82 -172 l0 -641 q0 -41 -58 -41 q-57 0 -57 41 l0 464 q-35 -43 -39 -46 q-24 -28 -56 34 q-32 62 -6 89 q42 41 103 141 q61 100 83 168 ZM921 555 q41 0 41 -55 q0 -55 -41 -55 l-350 0 l-17 -59 q-7 -25 19 -25 l237 6 q41 0 82 -27 q42 -27 18 -54 q-68 -77 -198 -210 q58 -40 68 -52 q29 -24 -13 -69 q-42 -45 -67 -21 q-18 19 -97 78 q-79 60 -120 83 q-33 21 8 57 q42 36 77 16 q8 -3 50 -30 q74 76 94 98 q13 14 -13 14 l-252 0 q-59 0 -42 57 l44 138 l-113 0 q-41 0 -41 55 q0 55 41 55 l145 0 l21 78 l-109 0 q-41 0 -41 54 q0 54 41 54 l135 0 l13 55 q9 40 68 32 q59 -7 49 -47 l-10 -40 l221 0 q41 0 41 -54 q0 -54 -41 -54 l-248 0 l-20 -78 l320 0 Z" /><glyph glyph-name="uni4F24" unicode="&#x4f24;" d="M229 805 q15 39 71 21 q56 -17 41 -56 q-26 -71 -84 -176 l0 -638 q0 -41 -57 -41 q-57 0 -57 41 l0 463 q-26 -33 -33 -40 q-29 -33 -61 28 q-32 62 -6 89 q42 41 103 141 q61 100 83 168 ZM651 434 l220 0 q49 0 48 -49 l-3 -99 q-3 -115 -12 -203 q-9 -87 -31 -113 q-27 -37 -82 -43 q-41 -7 -87 -4 q-53 1 -71 56 q-18 54 24 51 q23 -2 80 -2 q27 0 36 13 q23 25 29 238 q2 46 -23 46 l-140 0 q-22 -143 -83 -247 q-61 -103 -147 -147 q-39 -23 -77 22 q-37 44 2 66 q65 31 116 112 q52 81 71 194 l-135 0 q-41 0 -41 54 q0 55 41 55 l148 0 l5 89 q1 41 60 41 q59 0 57 -41 l-5 -89 ZM540 707 l351 0 q41 0 41 -56 q0 -56 -41 -56 l-408 0 q-39 -70 -68 -99 q-27 -30 -76 6 q-48 36 -21 62 q93 84 131 231 q15 50 73 37 q59 -13 45 -51 l-27 -74 Z" /><glyph glyph-name="uni4F26" unicode="&#x4f26;" d="M579 817 q18 35 82 22 q64 -12 44 -48 l-9 -15 q53 -81 130 -156 q78 -75 124 -100 q33 -20 -9 -67 q-41 -47 -73 -25 q-117 79 -236 251 q-81 -113 -194 -207 l32 0 q48 0 48 -48 l0 -126 q165 72 232 119 q29 19 67 -32 q39 -51 0 -72 q-137 -74 -299 -130 l0 -94 q0 -31 12 -40 q12 -9 54 -9 l168 0 q37 0 48 25 q12 25 12 59 q5 56 59 33 q54 -23 47 -77 q-4 -64 -38 -105 q-33 -42 -119 -42 l-190 0 q-100 0 -136 33 q-35 33 -35 123 l0 352 l-36 -26 q-33 -23 -70 23 q-37 47 -2 70 q84 52 170 148 q87 96 117 161 ZM257 598 l0 -643 q0 -41 -57 -41 q-57 0 -57 41 l0 465 q-22 -31 -29 -37 q-29 -33 -62 28 q-32 62 -7 90 q42 41 101 140 q60 100 82 167 q14 39 70 21 q56 -17 41 -56 q-26 -70 -82 -175 Z" /><glyph glyph-name="uni4F2A" unicode="&#x4f2a;" d="M466 738 q37 -54 26 -87 l-30 -17 q-54 -25 -67 4 q-5 21 -41 69 q-22 33 -33 9 q-18 -45 -56 -110 l0 -650 q0 -41 -57 -41 q-57 0 -57 41 l0 477 q-38 -50 -45 -55 q-24 -27 -57 34 q-33 61 -7 88 q43 41 104 140 q62 99 85 166 q15 38 72 20 q58 -18 43 -56 l-8 -18 l54 25 q37 16 74 -39 ZM643 599 l247 0 q49 0 48 -59 q-8 -287 -20 -407 q-12 -120 -38 -154 q-29 -41 -87 -52 q-28 -5 -83 -3 q-58 0 -77 59 q-18 58 19 55 q14 -2 82 -2 q25 0 37 16 q18 20 27 116 q10 97 14 279 q2 36 -24 36 l-155 0 l-20 -121 l26 14 q41 21 67 -18 l63 -95 q22 -34 -31 -64 q-52 -29 -67 2 q-12 32 -69 115 q-67 -265 -215 -380 q-29 -26 -75 17 q-45 43 -16 66 q174 127 216 464 l-146 0 q-41 0 -41 58 q0 58 41 58 l156 0 q2 38 3 169 q2 64 64 64 q62 0 61 -52 q-1 -102 -7 -181 Z" /><glyph glyph-name="uni4F2F" unicode="&#x4f2f;" d="M244 803 q12 41 68 28 q57 -13 44 -54 q-24 -87 -79 -201 l0 -623 q0 -41 -59 -41 q-59 0 -59 41 l0 431 q-30 -39 -36 -43 q-27 -29 -63 25 q-36 55 -9 81 q50 45 110 156 q60 112 83 200 ZM489 82 l288 0 l0 180 l-288 0 l0 -180 ZM777 531 q0 26 -26 26 l-236 0 q-26 0 -26 -26 l0 -152 l288 0 l0 152 ZM652 670 l201 0 q48 0 48 -48 l0 -659 q0 -41 -62 -41 q-62 0 -62 41 l0 0 l-288 0 l0 -7 q0 -41 -60 -41 q-59 0 -59 41 l0 666 q0 48 48 48 l108 0 l38 138 q10 39 80 28 q71 -11 56 -49 l-48 -117 Z" /><glyph glyph-name="uni4F34" unicode="&#x4f34;" d="M814 760 q13 45 73 24 q61 -21 36 -73 q-41 -87 -68 -133 q-14 -27 -63 -8 q-48 20 -30 58 q37 71 52 132 ZM528 632 q11 -42 -43 -64 q-53 -21 -62 20 q-7 51 -27 84 q-21 45 -6 75 q15 31 61 33 q4 17 26 -25 q42 -72 51 -123 ZM241 807 q15 38 70 20 q55 -18 38 -58 q-26 -65 -76 -153 l0 -659 q0 -41 -57 -41 q-56 0 -56 41 l0 487 q-37 -48 -54 -64 q-29 -30 -60 30 q-31 61 -5 87 q45 42 110 142 q65 100 90 168 ZM929 288 q40 0 40 -55 q0 -55 -40 -55 l-227 0 l0 -224 q0 -41 -60 -41 q-60 0 -60 41 l0 224 l-222 0 q-41 0 -41 55 q0 55 41 55 l222 0 l0 135 l-182 0 q-41 0 -41 55 q0 55 41 55 l182 0 l0 260 q0 41 60 41 q60 0 60 -41 l0 -260 l186 0 q41 0 41 -55 q0 -55 -41 -55 l-186 0 l0 -135 l227 0 Z" /><glyph glyph-name="uni4F3C" unicode="&#x4f3c;" d="M690 476 q9 -36 -45 -58 q-53 -21 -61 17 q-18 101 -63 197 q-19 45 -4 76 q16 31 61 31 q5 18 25 -28 q68 -144 87 -235 ZM199 806 q13 40 68 23 q55 -16 41 -54 l-62 -157 l0 -663 q0 -41 -57 -41 q-56 0 -56 41 l0 458 q-19 -28 -31 -43 q-30 -38 -59 26 q-29 65 -6 94 q37 40 90 142 q53 103 72 174 ZM467 226 q0 -26 22 -13 l86 55 q34 21 54 -29 q20 -50 -35 -87 q-173 -114 -212 -153 l0 0 q-15 -18 -46 35 q-30 54 -2 85 q18 6 18 65 l0 555 q0 41 57 41 q58 0 58 -41 l0 -513 ZM969 20 q9 -29 -46 -55 q-55 -26 -64 5 q-11 51 -69 194 q-63 -155 -138 -217 q-32 -31 -65 2 l-10 10 q-54 43 -11 80 q102 74 153 289 q26 110 36 223 q11 114 12 224 q2 47 61 45 q59 -1 57 -52 q-6 -256 -47 -442 q107 -211 131 -306 Z" /><glyph glyph-name="uni4F3D" unicode="&#x4f3d;" d="M198 808 q13 40 63 24 q51 -15 37 -53 l-58 -153 l0 -671 q0 -41 -54 -41 q-53 0 -53 41 l0 471 q-32 -48 -37 -53 q-23 -30 -50 29 q-27 60 -4 89 q35 42 86 144 q51 103 70 173 ZM463 650 l119 0 q48 0 47 -24 q0 -37 -2 -194 q-3 -180 -10 -302 q-6 -121 -26 -151 q-13 -23 -27 -32 q-14 -10 -39 -16 q-25 -6 -46 -4 q-52 0 -66 54 q-14 53 24 50 l32 0 q21 0 29 18 q12 20 17 123 q6 104 9 336 q1 37 -25 37 l-38 0 q-6 -229 -36 -382 q-29 -153 -81 -223 q-20 -32 -61 8 q-40 40 -20 71 q42 57 66 189 q24 133 28 337 l-33 0 q-41 0 -41 52 q0 53 41 53 l34 0 l1 147 q0 41 52 41 q53 0 53 -41 l-1 -147 ZM761 134 l78 0 l0 470 q0 26 -26 26 l-26 0 q-26 0 -26 -26 l0 -470 ZM660 686 q0 48 48 48 l188 0 q48 0 48 -47 l0 -700 q0 -41 -53 -41 q-52 0 -52 41 l0 42 l-78 0 l0 -50 q0 -41 -51 -41 q-50 0 -50 41 l0 707 Z" /><glyph glyph-name="uni4F46" unicode="&#x4f46;" d="M768 527 l0 120 q0 26 -26 26 l-204 0 q-26 0 -26 -26 l0 -120 l256 0 ZM742 265 q26 0 26 26 l0 126 l-256 0 l0 -126 q0 -26 26 -26 l204 0 ZM850 783 q48 0 48 -48 l0 -532 q0 -48 -48 -48 l-413 0 q-48 0 -48 48 l0 532 q0 48 48 48 l413 0 ZM238 805 q15 38 72 19 q58 -18 42 -57 q-25 -68 -82 -168 l0 -644 q0 -41 -59 -41 q-58 0 -58 41 l0 466 q-37 -46 -44 -52 q-25 -28 -58 37 q-32 65 -6 92 q44 40 106 139 q63 100 87 168 ZM319 1 q0 56 41 56 l569 0 q41 0 41 -56 q0 -55 -41 -55 l-569 0 q-41 0 -41 55 Z" /><glyph glyph-name="uni4F4D" unicode="&#x4f4d;" d="M363 621 q0 58 41 58 l193 0 l-33 115 q-11 39 45 53 q57 14 70 -24 l23 -68 q15 -46 -32 -59 l-58 -17 l267 0 q41 0 41 -58 q0 -57 -41 -57 l-475 0 q-41 0 -41 57 ZM589 207 q4 -37 -23 -67 q-27 -29 -78 -27 l-11 24 q-11 152 -39 284 q-8 44 15 71 q23 28 70 23 l16 -26 q40 -172 50 -282 ZM245 805 q15 38 71 20 q56 -17 40 -58 q-26 -69 -77 -161 l0 -650 q0 -41 -60 -41 q-60 0 -60 41 l0 463 q-35 -43 -39 -46 q-24 -28 -56 34 q-32 62 -6 89 q42 41 103 141 q61 100 84 168 ZM784 67 l129 0 q41 0 41 -58 q0 -57 -41 -57 l-545 0 q-41 0 -41 57 q0 58 41 58 l307 0 q58 222 77 425 q5 43 67 33 q62 -9 54 -54 q-34 -208 -89 -404 Z" /><glyph glyph-name="uni4F4F" unicode="&#x4f4f;" d="M237 805 q15 38 73 20 q58 -18 43 -56 q-24 -66 -81 -170 l0 -644 q0 -41 -60 -41 q-60 0 -60 41 l0 459 q-42 -50 -41 -48 q-21 -24 -54 39 q-33 64 -7 91 q42 41 103 141 q62 100 84 168 ZM712 57 l217 0 q41 0 41 -57 q0 -56 -41 -56 l-563 0 q-41 0 -41 56 q0 57 41 57 l225 0 l0 201 l-170 0 q-41 0 -41 56 q0 56 41 56 l170 0 l0 176 l-203 0 q-41 0 -41 56 q0 57 41 57 l228 0 l-54 118 q-17 37 38 55 q55 19 73 -17 l39 -75 q22 -44 -25 -60 l-56 -21 l284 0 q41 0 41 -57 q0 -56 -41 -56 l-203 0 l0 -176 l175 0 q41 0 41 -56 q0 -56 -41 -56 l-175 0 l0 -201 Z" /><glyph glyph-name="uni4F51" unicode="&#x4f51;" d="M241 807 q15 38 70 20 q55 -18 39 -57 q-24 -61 -77 -154 l0 -659 q0 -41 -57 -41 q-56 0 -56 41 l0 488 q-46 -58 -58 -69 q-25 -26 -57 35 q-31 61 -4 87 q45 42 110 141 q65 100 90 168 ZM813 245 q0 26 -26 26 l-209 0 l0 -187 l235 0 l0 161 ZM930 655 q41 0 41 -57 q0 -57 -41 -57 l-306 0 l-62 -160 l323 0 q48 0 48 -48 l0 -365 q0 -41 -60 -41 q-60 0 -60 47 l-235 0 l0 -14 q0 -41 -57 -41 q-57 0 -57 41 l0 256 q-52 -68 -78 -87 q-29 -25 -68 22 q-38 48 -11 71 q113 88 192 319 l-143 0 q-41 0 -41 57 q0 57 41 57 l174 0 l28 147 q7 40 69 31 q63 -9 55 -49 l-27 -129 l275 0 Z" /><glyph glyph-name="uni4F53" unicode="&#x4f53;" d="M209 804 q14 39 70 22 q57 -17 42 -55 l-65 -155 l0 -660 q0 -41 -57 -41 q-56 0 -56 41 l0 467 q-32 -43 -37 -48 q-24 -30 -57 32 q-33 62 -9 90 q39 40 94 140 q55 100 75 167 ZM682 187 l123 0 q-70 115 -123 261 l0 -261 ZM444 187 l122 0 l0 254 q-51 -142 -122 -254 ZM958 612 q0 -56 -41 -56 l-176 0 q42 -118 107 -226 q65 -108 110 -149 q27 -26 -18 -72 q-44 -46 -69 -17 q-15 15 -55 77 l0 -40 q0 -48 -48 -48 l-86 0 l0 -120 q0 -41 -58 -41 q-58 0 -58 41 l0 120 l-83 0 q-48 0 -48 48 l0 44 q-45 -69 -64 -86 q-25 -27 -68 18 q-42 45 -16 70 q48 41 114 150 q67 110 109 231 l-156 0 q-41 0 -41 56 q0 57 41 57 l212 0 l0 132 q0 41 58 41 q58 0 58 -41 l0 -132 l235 0 q41 0 41 -57 Z" /><glyph glyph-name="uni4F55" unicode="&#x4f55;" d="M235 809 q14 39 70 21 q56 -18 40 -55 l-66 -146 l0 -672 q0 -41 -60 -41 q-59 0 -59 41 l0 482 q-30 -41 -42 -52 q-28 -32 -60 30 q-32 62 -6 89 q41 40 101 138 q60 99 82 165 ZM586 410 q0 26 -26 26 l-59 0 q-26 0 -26 -26 l0 -130 l85 0 q26 0 26 26 l0 104 ZM697 225 q0 -48 -48 -48 l-174 0 l0 -24 q0 -41 -56 -41 q-55 0 -55 41 l0 338 q0 48 48 48 l237 0 q48 0 48 -48 l0 -266 ZM927 761 q41 0 41 -57 q0 -57 -41 -57 l-19 0 l0 -593 q0 -52 -13 -79 q-13 -27 -45 -41 q-51 -22 -146 -21 q-57 -1 -77 60 q-20 61 16 59 q29 -1 119 -1 q15 0 20 5 q6 6 6 20 l0 591 l-395 0 q-41 0 -41 57 q0 57 41 57 l534 0 Z" /><glyph glyph-name="uni4F5B" unicode="&#x4f5b;" d="M224 805 q15 39 71 21 q57 -18 42 -56 q-24 -65 -80 -167 l0 -647 q0 -41 -57 -41 q-57 0 -57 41 l0 470 q-31 -43 -40 -50 q-27 -30 -59 31 q-32 62 -6 89 q42 41 103 141 q61 100 83 168 ZM580 314 l69 0 l0 90 l-69 0 l0 -90 ZM410 340 q-4 -26 22 -26 l43 0 l1 90 l-31 0 q-26 0 -29 -25 l-6 -39 ZM580 599 l0 -94 l69 0 l0 94 l-69 0 ZM821 573 q0 26 -26 26 l-43 0 l0 -94 l43 0 q26 0 26 26 l0 42 ZM752 314 l153 0 q48 0 47 -79 q1 -172 -26 -205 q-19 -24 -55 -32 l-42 -2 q-46 -2 -56 43 q-14 54 32 50 q23 0 31 11 l10 87 q2 26 -24 26 l-70 0 l0 -258 q0 -41 -52 -41 q-51 0 -51 41 l0 258 l-78 0 q-15 -106 -65 -183 q-50 -76 -112 -101 q-40 -22 -76 17 q-35 39 4 60 q110 49 142 207 l-120 0 q-60 0 -50 49 q16 67 28 179 q8 64 55 64 l99 0 l0 94 l-118 0 q-41 0 -41 50 q0 51 41 51 l118 0 l0 95 q0 41 52 41 q52 0 52 -41 l0 -95 l69 0 l0 94 q0 41 51 41 q52 0 52 -41 l0 -94 l126 0 q47 0 47 -48 l0 -200 q0 -48 -47 -48 l-126 0 l0 -90 Z" /><glyph glyph-name="uni4F5C" unicode="&#x4f5c;" d="M237 805 q15 38 73 20 q58 -18 43 -56 q-24 -66 -81 -170 l0 -644 q0 -41 -60 -41 q-60 0 -60 41 l0 459 q-42 -50 -41 -48 q-21 -24 -54 39 q-33 64 -7 91 q42 41 103 141 q62 100 84 168 ZM969 627 q0 -56 -41 -56 l-243 0 l0 -105 l218 0 q41 0 41 -54 q0 -54 -41 -54 l-218 0 l0 -113 l231 0 q41 0 41 -55 q0 -55 -41 -55 l-231 0 l0 -181 q0 -41 -61 -41 q-61 0 -61 41 l0 617 l-38 0 q-61 -114 -107 -165 q-24 -29 -70 12 q-45 42 -20 69 q40 40 96 140 q57 101 78 171 q13 39 70 24 q58 -14 43 -52 l-34 -86 l347 0 q41 0 41 -57 Z" /><glyph glyph-name="uni4F60" unicode="&#x4f60;" d="M224 805 q15 38 71 20 q57 -17 41 -56 q-25 -69 -79 -166 l0 -647 q0 -41 -57 -41 q-57 0 -57 41 l0 470 q-29 -40 -39 -50 q-28 -31 -60 31 q-32 62 -6 89 q42 41 103 141 q61 100 83 168 ZM412 348 q12 54 70 42 q58 -12 45 -63 q-34 -154 -104 -253 q-19 -30 -70 2 q-51 32 -31 59 q62 74 90 213 ZM837 532 q3 26 -23 26 l-108 0 l-10 -582 q-10 -26 -36 -40 q-44 -24 -95 -22 q-52 -2 -73 58 q-20 60 17 59 q5 0 61 0 q18 0 18 17 l0 510 l-116 0 q-42 -87 -71 -122 q-23 -31 -71 8 q-48 39 -26 65 q90 99 134 282 q14 52 72 39 q58 -13 46 -52 l-35 -110 l397 -11 q50 -1 39 -65 q-10 -75 -25 -135 q-7 -33 -58 -25 q-50 9 -45 49 l8 51 ZM757 340 q-15 36 38 54 q53 18 74 -27 q63 -122 74 -205 q7 -38 -18 -67 q-25 -29 -77 -32 l-11 19 q-2 32 -31 124 q-28 93 -49 134 Z" /><glyph glyph-name="uni4F69" unicode="&#x4f69;" d="M181 804 q11 40 64 25 q53 -15 41 -55 q-16 -62 -58 -163 l0 -655 q0 -41 -52 -41 q-52 0 -52 41 l0 449 l-28 -40 q-23 -34 -50 29 q-27 64 -6 94 q33 41 79 144 q46 103 62 172 ZM700 457 q48 0 48 -48 l0 -284 q0 -46 -22 -63 l-20 -11 q-46 -5 -58 31 q-12 36 21 36 l0 0 q7 0 7 8 l0 241 q0 26 -26 26 l-17 0 l0 -430 q0 -41 -37 -41 q-37 0 -37 41 l0 430 l-18 0 q-26 0 -26 -26 l0 -279 q0 -41 -35 -41 q-35 0 -35 41 l0 321 q0 48 48 48 l52 0 l0 85 l-60 0 q-41 0 -41 46 q0 46 41 46 l217 0 q41 0 41 -46 q0 -46 -41 -46 l-55 0 l0 -85 l53 0 ZM833 798 q49 0 46 -95 q-17 -679 25 -679 q13 0 13 76 q2 71 31 31 q29 -39 23 -92 q-2 -44 -20 -84 q-17 -41 -58 -41 q-73 0 -97 168 q-18 125 -16 500 q0 109 0 107 q0 9 -26 9 l-311 0 q-26 0 -26 -26 l0 -130 q0 -419 -86 -600 q-12 -28 -53 2 q-41 30 -30 56 q71 154 71 541 l0 209 q0 48 48 48 l466 0 Z" /><glyph glyph-name="uni4F70" unicode="&#x4f70;" d="M221 803 q10 42 67 29 q57 -13 45 -56 q-18 -79 -61 -178 l0 -648 q0 -41 -57 -41 q-56 0 -56 41 l0 436 q-31 -42 -44 -56 q-27 -32 -59 29 q-31 61 -6 89 q46 45 99 156 q53 111 72 199 ZM776 316 l0 106 q0 26 -26 26 l-230 0 q-26 0 -26 -26 l0 -106 l282 0 ZM494 77 l282 0 l0 131 l-282 0 l0 -131 ZM931 739 q0 -55 -41 -55 l-205 0 l-38 -126 l199 0 q48 0 48 -48 l0 -549 q0 -41 -59 -41 q-59 0 -59 48 l-282 0 l0 -12 q0 -41 -56 -41 q-56 0 -56 41 l0 554 q0 48 48 48 l98 0 l23 126 l-167 0 q-41 0 -41 55 q0 56 41 56 l506 0 q41 0 41 -56 Z" /><glyph glyph-name="uni4F7F" unicode="&#x4f7f;" d="M461 401 q0 -26 26 -26 l97 0 l0 99 l-97 0 q-26 0 -26 -26 l0 -47 ZM826 448 q0 26 -26 26 l-98 0 l0 -99 l98 0 q26 0 26 26 l0 47 ZM940 327 q0 -48 -48 -48 l-196 0 q-13 -100 -44 -153 q-11 -21 12 -32 q115 -55 272 -69 q47 -4 11 -57 q-35 -53 -81 -46 q-156 18 -273 85 q-23 13 -45 -6 q-53 -50 -139 -73 q-44 -15 -81 35 q-37 49 9 60 q70 15 136 66 q-68 57 -100 111 q-23 38 25 53 q49 15 71 -18 q12 -22 71 -70 l37 114 l-175 0 q-48 0 -48 48 l0 196 q0 48 48 48 l182 0 l0 70 l-203 0 q-48 0 -48 48 l0 44 l-60 -115 l0 -666 q0 -41 -57 -41 q-56 0 -56 41 l0 496 q-46 -58 -58 -68 q-24 -26 -56 35 q-31 61 -4 87 q45 42 110 142 q65 100 89 167 q16 38 71 20 q55 -18 39 -56 l-11 -26 l244 0 l0 50 q0 41 59 41 q59 0 59 -41 l0 -50 l224 0 q41 0 41 -54 q0 -54 -41 -54 l-224 0 l0 -70 l190 0 q48 0 48 -48 l0 -196 Z" /><glyph glyph-name="uni4F8B" unicode="&#x4f8b;" d="M168 800 q13 46 66 30 q53 -15 40 -53 l-48 -143 l0 -678 q0 -41 -55 -41 q-55 0 -55 41 l0 458 l-19 -27 q-23 -33 -49 31 q-26 65 -3 97 q80 106 123 285 ZM338 690 q-41 0 -41 55 q0 56 41 56 l258 0 q41 0 41 -56 q0 -55 -41 -55 l-114 0 l-24 -110 l125 -10 q49 -3 42 -71 q-35 -407 -243 -562 q-26 -22 -63 24 q-36 45 -7 67 q60 37 123 166 q-44 41 -53 48 q-29 26 2 66 q31 41 63 16 l29 -23 l34 146 q5 25 -21 25 l-61 0 q-48 -143 -90 -199 q-19 -29 -62 9 q-43 38 -24 64 q75 97 117 344 l-31 0 ZM665 700 q0 41 52 41 q52 0 52 -41 l0 -491 q0 -41 -52 -41 q-52 0 -52 41 l0 491 ZM825 796 q0 41 55 41 q55 0 55 -41 l0 -738 q0 -50 -11 -75 q-11 -26 -39 -39 q-44 -23 -124 -21 q-57 -2 -76 56 q-18 58 11 56 q10 0 105 0 q24 1 24 23 l0 738 Z" /><glyph glyph-name="uni4F8D" unicode="&#x4f8d;" d="M229 805 q15 38 71 20 q57 -18 42 -56 q-26 -71 -85 -176 l0 -637 q0 -41 -57 -41 q-56 0 -56 41 l0 463 q-26 -34 -34 -42 q-29 -32 -61 30 q-32 62 -6 89 q42 41 103 141 q61 100 83 168 ZM412 140 q-36 46 15 72 q51 26 89 -19 q55 -60 68 -98 q14 -27 -41 -56 q-55 -29 -67 0 q-12 42 -64 101 ZM929 538 q41 0 41 -54 q0 -54 -41 -54 l-90 0 l0 -79 l81 0 q41 0 41 -54 q0 -54 -41 -54 l-81 0 l0 -204 q0 -46 -12 -70 q-11 -24 -41 -36 q-44 -20 -120 -18 q-56 -2 -74 54 q-18 56 48 54 q63 -3 72 5 q5 3 5 13 l0 202 l-358 0 q-41 0 -41 54 q0 54 41 54 l358 0 l0 79 l-369 0 q-41 0 -41 54 q0 54 41 54 l228 0 l0 87 l-169 0 q-41 0 -41 54 q0 54 41 54 l169 0 l0 68 q0 41 61 41 q61 0 61 -41 l0 -68 l182 0 q41 0 41 -54 q0 -54 -41 -54 l-182 0 l0 -87 l231 0 Z" /><glyph glyph-name="uni4F91" unicode="&#x4f91;" d="M240 806 q15 38 71 20 q56 -18 40 -59 q-28 -75 -83 -172 l0 -641 q0 -41 -57 -41 q-56 0 -56 41 l0 467 q-29 -39 -36 -45 q-27 -31 -59 31 q-32 63 -6 90 q42 41 103 141 q61 100 83 168 ZM788 365 l0 36 q0 26 -26 26 l-202 0 l0 -62 l228 0 ZM560 202 l228 0 l0 65 l-228 0 l0 -65 ZM961 660 q0 -55 -41 -55 l-326 0 l-34 -76 l296 0 q48 0 48 -48 l0 -445 q0 -42 -10 -65 q-9 -24 -40 -40 q-31 -16 -81 -14 q-62 -2 -75 41 q-20 65 40 65 l33 -1 q10 0 13 3 q4 4 4 14 l0 63 l-228 0 l0 -149 q0 -41 -57 -41 q-57 0 -57 41 l0 396 q-38 -45 -52 -55 q-30 -27 -73 19 q-42 47 -13 71 q86 62 158 221 l-87 0 q-41 0 -41 55 q0 56 41 56 l128 0 l24 93 q9 39 69 29 q60 -10 50 -49 l-19 -73 l289 0 q41 0 41 -56 Z" /><glyph glyph-name="uni4F9B" unicode="&#x4f9b;" d="M230 807 q15 38 70 20 q56 -17 42 -53 q-23 -63 -81 -172 l0 -647 q0 -41 -59 -41 q-58 0 -58 41 l0 466 q-26 -34 -34 -42 q-29 -32 -61 30 q-32 62 -6 89 q42 41 103 141 q62 100 84 168 ZM452 142 q26 40 81 23 q56 -17 35 -51 q-15 -28 -69 -91 q-54 -62 -80 -81 q-29 -26 -76 12 q-46 37 -12 62 q81 53 121 126 ZM722 102 q-26 29 21 55 q48 26 83 -10 q71 -67 114 -139 q21 -31 -29 -62 q-50 -32 -68 -1 q-6 14 -53 75 q-47 62 -68 82 ZM567 538 l0 -199 l145 0 l0 199 l-145 0 ZM828 339 l97 0 q41 0 41 -58 q0 -58 -41 -58 l-567 0 q-41 0 -41 58 q0 58 41 58 l93 0 l0 199 l-68 0 q-41 0 -41 57 q0 57 41 57 l68 0 l0 146 q0 41 58 41 q58 0 58 -41 l0 -146 l145 0 l0 147 q0 41 58 41 q58 0 58 -41 l0 -147 l89 0 q41 0 41 -57 q0 -57 -41 -57 l-89 0 l0 -199 Z" /><glyph glyph-name="uni4F9D" unicode="&#x4f9d;" d="M849 461 q22 26 66 -16 q45 -42 7 -73 q-68 -57 -142 -110 q86 -148 167 -202 q31 -22 -12 -70 q-43 -49 -71 -27 q-177 133 -287 501 q-24 -32 -61 -72 l0 -292 q0 -26 24 -19 l95 30 q39 11 46 -40 q8 -51 -58 -73 q-185 -63 -209 -80 q-13 -8 -43 34 q-30 42 2 74 q27 14 27 77 l0 177 q-45 -39 -49 -40 q-36 -26 -64 13 q-27 40 -30 38 l0 -336 q0 -41 -57 -41 q-57 0 -57 41 l0 458 l-29 -36 q-26 -31 -58 31 q-32 62 -7 90 q41 41 100 140 q59 100 81 167 q14 39 70 21 q56 -17 41 -56 q-26 -73 -84 -179 l0 -266 q150 99 253 239 l-161 0 q-41 0 -41 55 q0 56 41 56 l245 0 l-40 101 q-15 38 38 55 q53 18 69 -19 l30 -66 q20 -44 -26 -60 l-28 -11 l275 0 q41 0 41 -56 q0 -55 -41 -55 l-251 0 q27 -109 73 -212 q91 78 115 109 Z" /><glyph glyph-name="uni4FA6" unicode="&#x4fa6;" d="M349 523 q0 47 48 47 l147 0 l0 235 q0 41 57 41 q58 0 58 -41 l0 -34 l237 0 q41 0 41 -54 q0 -53 -41 -53 l-237 0 l0 -94 l194 0 q48 0 48 -48 l0 -332 q0 -41 -57 -41 q-57 0 -57 41 l0 249 q0 26 -26 26 l-277 0 q-26 0 -26 -26 l0 -252 q0 -41 -55 -41 q-54 0 -54 41 l0 336 ZM231 808 q15 38 71 21 q56 -17 40 -57 q-27 -75 -83 -174 l0 -642 q0 -41 -57 -41 q-56 0 -56 41 l0 467 q-34 -43 -39 -47 q-25 -28 -57 34 q-32 62 -6 89 q42 41 103 141 q62 100 84 168 ZM568 375 q1 41 57 41 q56 0 56 -41 l0 -97 q0 -52 -14 -97 q-13 -45 -47 -94 q-71 -104 -220 -153 q-48 -19 -84 28 q-36 46 16 62 q155 42 210 146 q18 32 22 56 l4 149 ZM699 37 q-49 25 -18 65 q31 41 82 18 q119 -51 178 -98 q26 -18 -7 -63 q-32 -46 -58 -26 q-60 50 -177 104 Z" /><glyph glyph-name="uni4FA7" unicode="&#x4fa7;" d="M393 704 q-26 0 -26 -26 l0 -497 q0 -41 -46 -41 q-46 0 -46 41 l0 560 q0 47 48 47 l272 0 q48 0 48 -48 l0 -554 q0 -40 -48 -40 q-48 0 -48 41 l0 491 q0 26 -25 26 l-129 0 ZM150 797 q11 49 61 37 q50 -12 40 -51 l-36 -130 l0 -696 q0 -41 -48 -41 q-48 0 -48 41 l0 458 l-21 -35 q-20 -35 -48 22 q-28 58 -9 90 q68 106 109 305 ZM414 614 q0 41 43 41 q43 0 43 -41 l0 -329 q0 -197 -94 -299 q-40 -44 -57 -49 q-42 -26 -69 11 q-31 31 27 68 q49 20 81 104 q16 43 21 80 q5 37 5 86 l0 328 ZM507 42 q-38 44 -3 67 q35 23 75 -22 q57 -60 56 -67 q17 -26 6 -51 q-10 -25 -55 -32 l-7 9 q-19 39 -72 96 ZM693 712 q0 41 45 41 q45 0 45 -41 l0 -531 q0 -40 -45 -40 q-45 0 -45 40 l0 531 ZM835 794 q0 41 48 41 q49 0 49 -41 l0 -760 q0 -75 -39 -97 q-34 -21 -83 -19 q-55 -2 -70 49 q-14 50 14 49 q-8 0 64 0 q17 0 17 17 l0 761 Z" /><glyph glyph-name="uni4FB5" unicode="&#x4fb5;" d="M847 813 q48 0 48 -47 l0 -251 q0 -48 -48 -48 l-425 0 q-41 0 -41 41 q0 42 41 42 l336 0 q26 0 26 26 l0 23 l-329 0 q-41 0 -41 42 q0 42 41 42 l329 0 l0 21 q0 26 -26 26 l-336 0 q-41 0 -41 41 q0 42 41 42 l425 0 ZM231 805 q15 39 71 21 q57 -18 41 -58 q-27 -71 -81 -168 l0 -645 q0 -41 -57 -41 q-56 0 -56 41 l0 469 q-31 -41 -39 -48 q-27 -31 -59 31 q-32 62 -6 89 q42 41 103 141 q61 100 83 168 ZM712 184 q16 20 -10 20 l-175 0 q39 -49 105 -90 q59 41 80 70 ZM959 304 q0 -48 -48 -48 l-40 0 q-48 -117 -138 -191 q102 -39 181 -49 q43 -6 9 -53 q-34 -48 -79 -39 q-105 17 -187 63 q-24 12 -47 1 q-85 -46 -212 -67 q-46 -9 -71 40 q-25 48 18 53 q87 10 190 50 q-64 50 -78 74 q-37 51 5 66 l-6 0 q-41 0 -41 45 q0 46 41 46 l354 3 l21 -9 q24 -9 24 17 l0 35 l-415 0 q-26 0 -26 -25 l0 -20 q0 -41 -50 -41 q-49 0 -49 41 l0 80 q0 48 48 48 l548 0 q48 0 48 -48 l0 -72 Z" /><glyph glyph-name="uni4FBF" unicode="&#x4fbf;&#xf965;" d="M462 343 q0 -26 26 -26 l93 0 l1 74 l-120 0 l0 -48 ZM488 545 q-26 0 -26 -26 l0 -47 l120 0 l0 73 l-94 0 ZM811 519 q0 26 -26 26 l-85 0 l0 -73 l111 0 l0 47 ZM785 317 q26 0 26 26 l0 48 l-111 0 l0 -74 l85 0 ZM926 278 q0 -48 -48 -48 l-190 0 q-17 -78 -61 -142 q141 -46 307 -55 q49 -2 13 -57 q-36 -56 -83 -51 q-173 13 -299 69 q-23 10 -46 -6 q-52 -39 -129 -61 q-44 -15 -80 34 q-36 49 10 59 q56 11 116 45 q-71 50 -94 84 q-25 32 26 50 q52 18 78 -11 q12 -18 76 -55 l48 97 l-170 0 q-48 0 -48 48 l0 306 q0 48 48 48 l182 0 l0 60 l-195 0 q-48 0 -48 48 l0 41 l-82 -186 l0 -639 q0 -41 -57 -41 q-57 0 -57 41 l0 454 l-26 -32 q-25 -32 -58 29 q-32 62 -8 90 q39 40 95 140 q57 101 77 168 q14 39 70 21 q56 -17 51 -30 l0 0 l566 0 q41 0 41 -52 q0 -52 -41 -52 l-210 0 l0 -60 l178 0 q48 0 48 -48 l0 -306 Z" /><glyph glyph-name="uni4FD7" unicode="&#x4fd7;" d="M946 622 q14 -17 -36 -53 q-50 -35 -67 -12 q-30 46 -112 133 q-40 44 -37 81 q4 37 45 49 q5 19 49 -28 q137 -142 158 -170 ZM464 802 q20 35 75 15 q56 -20 36 -54 q-20 -39 -78 -115 q-58 -76 -86 -103 q-26 -26 -75 11 q-48 38 -20 63 q26 19 79 85 q54 66 69 98 ZM429 298 l375 0 q-109 84 -172 178 q-15 22 -31 -1 q-64 -96 -172 -177 ZM488 56 l247 0 l0 111 q0 26 -26 26 l-195 0 q-26 0 -26 -26 l0 -111 ZM563 633 q18 38 72 19 q54 -18 38 -53 l0 0 q60 -93 135 -157 q75 -63 135 -92 q39 -19 0 -70 q-38 -50 -72 -28 l-18 11 l0 -303 q0 -41 -59 -41 q-59 0 -59 32 l0 0 l-247 0 l0 0 q0 -39 -57 -39 q-56 0 -56 41 l0 307 q-47 -28 -73 13 q0 10 -44 52 l0 -371 q0 -41 -57 -41 q-56 0 -56 41 l0 467 q-29 -39 -35 -45 q-27 -30 -60 31 q-32 62 -7 89 q42 41 101 141 q60 100 82 167 q15 39 71 21 q56 -17 43 -52 q-21 -59 -82 -175 l0 -262 q108 50 192 136 q84 87 113 161 Z" /><glyph glyph-name="uni4FDD" unicode="&#x4fdd;" d="M241 807 q15 38 70 20 q55 -18 38 -59 q-27 -69 -76 -156 l0 -656 q0 -41 -57 -41 q-56 0 -56 41 l0 482 q-42 -53 -52 -62 q-24 -27 -56 34 q-32 61 -6 88 q44 41 107 141 q64 100 88 168 ZM525 699 q-26 0 -26 -26 l0 -82 q0 -26 26 -26 l241 0 q26 0 26 26 l0 82 q0 26 -26 26 l-241 0 ZM919 370 q41 0 41 -54 q0 -54 -41 -54 l-159 0 q44 -65 105 -123 q61 -58 91 -75 q33 -20 -9 -67 q-42 -48 -73 -24 q-81 56 -172 198 l0 -217 q0 -41 -60 -41 q-60 0 -60 41 l0 212 q-95 -137 -184 -192 q-32 -23 -73 25 q-41 47 -7 66 q33 16 96 73 q64 57 111 124 l-164 0 q-41 0 -41 54 q0 54 41 54 l221 0 l0 90 l-148 0 q-48 0 -48 48 l0 248 q0 48 48 48 l429 0 q48 0 48 -48 l0 -248 q0 -48 -48 -48 l-161 0 l0 -90 l217 0 Z" /><glyph glyph-name="uni4FE1" unicode="&#x4fe1;" d="M222 804 q14 39 67 23 q53 -16 38 -53 l-59 -140 l0 -684 q0 -41 -54 -41 q-54 0 -54 41 l0 497 q-39 -56 -49 -67 q-24 -28 -55 30 q-30 59 -6 87 q39 40 95 140 q57 100 77 167 ZM793 127 q0 26 -26 26 l-271 0 q-26 0 -26 -26 l0 -87 l323 0 l0 87 ZM419 -86 q-50 0 -50 41 l0 245 q0 48 48 48 l433 0 q48 0 48 -48 l0 -242 q0 -41 -53 -41 q-52 0 -52 28 l0 0 l-323 0 l0 0 q0 -31 -51 -31 ZM425 304 q-41 0 -41 46 q0 47 41 47 l419 0 q41 0 41 -47 q0 -46 -41 -46 l-419 0 ZM844 542 q41 0 41 -47 q0 -46 -41 -46 l-419 0 q-41 0 -41 46 q0 47 41 47 l419 0 ZM655 692 l262 0 q41 0 41 -49 q0 -48 -41 -48 l-562 0 q-41 0 -41 48 q0 49 41 49 l245 0 l-44 83 q-18 36 32 55 q51 19 70 -17 l30 -53 q24 -43 -21 -63 l-12 -5 Z" /><glyph glyph-name="uni4FEE" unicode="&#x4fee;" d="M202 803 q13 40 68 23 q55 -16 41 -55 q-20 -63 -65 -162 l0 -655 q0 -41 -57 -41 q-56 0 -56 41 l0 451 q-33 -47 -35 -48 q-22 -28 -51 36 q-29 65 -6 94 q37 41 89 144 q53 103 72 172 ZM769 632 q15 19 -11 19 l-145 0 q-26 0 -11 -20 q24 -32 85 -77 q62 47 82 78 ZM825 750 q41 0 75 -17 q35 -16 18 -54 q-33 -88 -140 -178 q90 -45 158 -56 q43 -8 10 -56 q-32 -47 -74 -36 q-85 20 -185 83 q-111 -64 -206 -88 q-45 -12 -67 27 l-15 25 l0 -278 q0 -41 -49 -41 q-49 0 -49 41 l0 400 q0 41 49 41 q49 0 49 -41 l0 -93 q109 24 202 73 l-75 82 l-34 -36 q-28 -29 -73 5 q-44 35 -14 60 q28 20 75 88 q48 69 60 108 q15 38 69 25 q54 -13 38 -50 l-16 -38 l194 4 ZM760 267 q28 25 70 7 q43 -18 15 -46 q-82 -92 -223 -127 q-49 -13 -88 -1 q-38 12 -37 55 l11 4 q60 11 146 48 q87 37 106 60 ZM659 362 q31 26 74 8 q44 -18 14 -46 q-55 -59 -178 -98 q-46 -15 -78 19 q-31 35 18 48 q110 28 150 69 ZM835 156 q25 25 76 4 q51 -21 26 -48 q-112 -134 -356 -177 q-52 -11 -93 7 q-41 18 -43 64 l26 9 q272 36 364 141 Z" /><glyph glyph-name="uni4FF1" unicode="&#x4ff1;" d="M225 806 q15 38 71 20 q56 -17 41 -54 q-24 -64 -80 -169 l0 -648 q0 -41 -57 -41 q-56 0 -56 41 l0 471 q-30 -40 -39 -49 q-28 -31 -61 30 q-32 62 -6 89 q42 41 103 141 q62 101 84 169 ZM499 300 l0 -60 l265 0 l0 60 l-265 0 ZM764 690 q0 26 -26 26 l-213 0 q-26 0 -26 -26 l0 -32 l265 0 l0 32 ZM764 439 l-265 0 l0 -59 l265 0 l0 59 ZM764 519 l0 59 l-265 0 l0 -59 l265 0 ZM957 187 q0 -52 -41 -52 l-136 0 q139 -92 168 -124 q20 -18 -21 -59 q-40 -41 -60 -20 q-35 41 -114 94 q-68 49 -25 90 l19 19 l-232 0 l36 -26 q39 -28 3 -68 q-50 -62 -151 -109 q-39 -21 -76 22 q-36 42 2 61 q78 35 158 120 l-152 0 q-41 0 -41 52 q0 53 41 53 l51 0 l0 522 q0 48 48 48 l400 0 q48 0 48 -48 l0 -522 l34 0 q41 0 41 -53 Z" /><glyph glyph-name="uni5012" unicode="&#x5012;" d="M650 734 q0 -49 -41 -49 l-129 0 l-60 -117 q-11 -23 14 -20 l95 15 l-16 27 q-20 35 22 52 q42 17 67 -23 q49 -68 81 -157 l0 256 q0 41 50 41 q51 0 51 -41 l0 -512 q0 -41 -51 -41 q-50 0 -50 41 l0 247 l-43 -21 q-44 -20 -61 26 l-9 21 q-239 -42 -254 -54 q-13 -5 -30 44 q-17 49 2 62 q26 4 77 154 l-32 0 q-41 0 -41 49 q0 50 41 50 l276 0 q41 0 41 -50 ZM179 800 q13 46 67 31 q54 -15 42 -55 q-18 -66 -62 -170 l0 -651 q0 -41 -55 -41 q-54 0 -54 41 l0 439 l-22 -31 q-23 -33 -51 32 q-27 66 -3 99 q90 116 138 306 ZM510 228 l0 -102 l108 19 q40 7 43 -41 q4 -48 -2 -49 q4 1 -316 -60 q-76 -15 -85 37 q-9 53 31 59 l111 17 l0 120 l-83 0 q-41 0 -41 49 q0 49 41 49 l83 0 l0 52 q0 41 55 41 q55 0 55 -41 l0 -52 l97 0 q41 0 41 -49 q0 -49 -41 -49 l-97 0 ZM829 776 q0 41 53 41 q53 0 53 -41 l0 -727 q0 -45 -11 -68 q-11 -23 -38 -36 q-41 -20 -109 -18 q-56 -2 -76 50 q-19 51 18 49 q17 0 87 0 q13 1 18 5 q5 5 5 17 l0 728 Z" /><glyph glyph-name="uni5019" unicode="&#x5019;" d="M198 804 q12 40 67 24 q55 -16 42 -54 q-18 -62 -64 -170 l0 -650 q0 -41 -57 -41 q-56 0 -56 41 l0 441 l-24 -33 q-24 -33 -53 31 q-29 64 -7 94 q35 42 84 145 q50 103 68 172 ZM345 647 q52 0 52 -41 l0 -454 q0 -41 -52 -41 q-51 0 -51 41 l0 454 q0 41 51 41 ZM921 262 q41 0 41 -50 q0 -50 -41 -50 l-153 0 q53 -108 168 -134 q49 -14 15 -62 q-33 -48 -77 -32 q-106 30 -175 145 q-71 -104 -198 -147 q-46 -19 -84 24 q-38 42 12 58 q140 40 191 148 l-152 0 q-41 0 -41 50 q0 50 41 50 l171 0 l0 95 l-78 0 q-26 -48 -38 -60 q-26 -32 -72 -3 q-46 30 -21 59 q51 50 89 176 l-53 0 q-41 0 -41 49 q0 50 41 50 l289 0 l8 53 q3 26 -23 26 l-229 0 q-41 0 -41 49 q0 49 41 49 l329 -5 q50 0 44 -49 l-18 -123 l50 0 q41 0 41 -50 q0 -49 -41 -49 l-383 0 l46 -11 q48 -11 29 -63 l284 0 q41 0 41 -49 q0 -49 -41 -49 l-137 0 l0 -95 l166 0 Z" /><glyph glyph-name="uni501A" unicode="&#x501a;" d="M226 805 q15 38 70 20 q56 -18 42 -54 q-22 -60 -81 -171 l0 -644 q0 -41 -57 -41 q-57 0 -57 41 l0 467 q-33 -42 -40 -49 q-26 -29 -58 33 q-32 62 -6 89 q42 41 103 141 q62 100 84 168 ZM576 181 q0 26 -26 26 l-63 0 q-26 0 -26 -26 l0 -49 l89 0 q26 0 26 26 l0 23 ZM681 98 q0 -48 -48 -48 l-172 0 l0 -18 q0 -41 -52 -41 q-51 0 -51 41 l0 210 q0 48 48 48 l227 0 q48 0 48 -48 l0 -144 ZM389 447 l463 0 q-69 42 -232 113 q-72 -75 -231 -113 ZM927 447 q41 0 41 -52 q0 -51 -41 -51 l-37 0 l0 -315 q0 -44 -12 -66 q-11 -23 -46 -37 q-34 -14 -112 -13 q-59 -1 -76 51 q-17 51 43 49 q45 -1 61 0 q16 2 20 5 q5 4 5 14 l0 312 l-435 0 q-41 0 -41 51 q0 52 41 52 l23 0 q-18 47 -19 38 q-37 49 39 66 q108 16 163 101 l-162 0 q-41 0 -41 49 q0 50 41 50 l198 0 l5 43 q4 41 65 41 q61 0 57 -41 l-5 -43 l198 0 q41 0 41 -50 q0 -49 -41 -49 l-227 -8 q173 -65 224 -96 q42 -22 5 -68 l-26 -33 l51 0 Z" /><glyph glyph-name="uni501F" unicode="&#x501f;" d="M224 805 q15 39 71 21 q57 -18 42 -55 q-23 -64 -81 -169 l0 -646 q0 -41 -57 -41 q-56 0 -56 41 l0 470 q-33 -43 -41 -50 q-27 -30 -59 31 q-31 62 -5 89 q42 41 102 141 q61 100 84 168 ZM777 244 q0 26 -26 26 l-218 0 q-26 0 -26 -26 l0 -41 l270 0 l0 41 ZM507 43 l270 0 l0 71 l-270 0 l0 -71 ZM507 -54 q0 -37 -57 -37 q-57 0 -57 41 l0 369 q0 48 48 48 l408 0 q48 0 48 -48 l0 -364 q0 -41 -60 -41 q-60 0 -60 32 l0 0 l-270 0 l0 0 ZM569 629 l0 -97 l135 0 l0 97 l-135 0 ZM821 532 l109 0 q41 0 41 -54 q0 -53 -41 -53 l-589 0 q-41 0 -41 53 q0 54 41 54 l112 0 l0 97 l-76 0 q-41 0 -41 51 q0 51 41 51 l76 0 l0 67 q0 41 58 41 q58 0 58 -41 l0 -67 l135 0 l0 67 q0 41 58 41 q59 0 59 -41 l0 -67 l84 0 q41 0 41 -51 q0 -51 -41 -51 l-84 0 l0 -97 Z" /><glyph glyph-name="uni502B" unicode="&#x502b;" d="M221 804 q14 39 70 22 q56 -17 40 -58 q-28 -82 -83 -183 l0 -629 q0 -41 -57 -41 q-56 0 -56 41 l0 449 l-23 -28 q-26 -31 -58 30 q-32 62 -7 90 q39 40 96 140 q57 100 78 167 ZM742 216 l58 0 l0 73 q0 26 -26 26 l-32 0 l0 -99 ZM595 216 l58 0 l0 99 l-58 0 l0 -99 ZM448 216 l58 0 l0 99 l-32 0 q-26 0 -26 -26 l0 -73 ZM860 415 q48 0 48 -48 l0 -333 q0 -37 -7 -57 q-6 -21 -24 -35 q-28 -19 -49 -15 q-50 -4 -63 48 q-12 51 26 51 l0 0 q9 0 9 10 l0 82 l-58 0 l0 -149 q0 -41 -45 -41 q-44 0 -44 41 l0 149 l-58 0 l0 -150 q0 -41 -45 -41 q-44 0 -44 41 l0 150 l-58 0 l0 -163 q0 -41 -53 -41 q-53 0 -53 41 l0 412 q0 48 48 48 l470 0 ZM531 592 q-23 -18 3 -18 l213 0 q-69 58 -101 95 q-15 19 -33 -1 q-39 -42 -82 -76 ZM595 824 q21 32 69 1 q48 -31 32 -55 l0 0 q50 -58 128 -111 q78 -52 120 -67 q37 -15 -6 -66 q-43 -50 -78 -30 l-38 23 q0 -44 -48 -44 l-312 0 q-39 0 -39 39 l-35 -20 q-35 -20 -79 30 q-43 50 -7 64 q67 24 164 103 q98 79 129 133 Z" /><glyph glyph-name="uni503C" unicode="&#x503c;" d="M223 801 q16 43 70 25 q54 -18 40 -54 q-22 -65 -83 -182 l0 -635 q0 -41 -55 -41 q-55 0 -55 41 l0 458 l-29 -36 q-25 -31 -57 31 q-31 62 -3 93 q111 117 172 300 ZM483 88 l0 -56 l296 0 l0 56 l-296 0 ZM779 473 q0 26 -26 26 l-244 0 q-26 0 -26 -26 l0 -29 l296 0 l0 29 ZM779 227 l-296 0 l0 -57 l296 0 l0 57 ZM779 307 l0 55 l-296 0 l0 -55 l296 0 ZM889 32 l35 0 q41 0 41 -50 q0 -50 -41 -50 l-591 0 q-41 0 -41 50 q0 50 41 50 l45 0 l0 506 q0 48 47 48 l126 0 l12 68 l-186 0 q-41 0 -41 51 q0 51 41 51 l200 0 l5 48 q3 41 66 39 q63 -2 56 -42 l-8 -45 l205 0 q41 0 41 -51 q0 -51 -40 -51 l-227 0 l-17 -68 l183 0 q48 0 48 -48 l0 -506 Z" /><glyph glyph-name="uni503E" unicode="&#x503e;" d="M535 569 q0 48 48 48 l67 0 l19 76 l-139 0 q-41 0 -41 50 q0 50 41 50 l394 0 q41 0 41 -50 q0 -50 -41 -50 l-134 0 l-33 -76 l121 0 q48 0 48 -48 l0 -384 q0 -41 -53 -41 q-53 0 -53 41 l0 305 q0 25 -26 25 l-131 0 q-26 0 -26 -26 l0 -307 q0 -41 -51 -41 q-51 0 -51 41 l0 387 ZM175 795 q14 49 67 34 q53 -15 40 -53 l-51 -143 l0 -679 q0 -41 -53 -41 q-53 0 -53 41 l0 469 q-25 -40 -33 -49 q-25 -34 -52 30 q-27 64 -5 93 q92 118 140 298 ZM398 250 q0 -26 24 -16 l40 18 q37 16 35 -36 q-2 -51 -62 -82 q-97 -48 -112 -67 q-15 -13 -37 38 q-21 52 5 81 q7 -10 7 39 l0 467 q0 41 50 41 q50 0 50 -41 l0 -137 l62 0 q41 0 41 -50 q0 -50 -41 -50 l-62 0 l0 -205 ZM680 444 q0 41 46 41 q46 0 46 -41 l0 -161 q0 -58 -8 -103 q-7 -44 -30 -97 q-48 -110 -161 -153 q-45 -21 -77 14 q-32 34 8 52 q26 8 71 46 q46 39 67 83 q38 80 38 159 l0 160 ZM777 29 q-48 36 -18 71 q30 36 77 4 q78 -49 113 -87 q23 -21 -9 -62 q-32 -41 -52 -20 q-28 35 -111 94 Z" /><glyph glyph-name="uni504F" unicode="&#x504f;" d="M233 805 q15 38 70 20 q56 -18 41 -55 q-23 -63 -83 -171 l0 -643 q0 -41 -57 -41 q-56 0 -56 41 l0 471 q-28 -36 -39 -47 q-29 -32 -61 28 q-31 61 -5 88 q43 41 105 141 q62 100 85 168 ZM790 131 l0 -119 l41 0 q9 -1 9 9 l0 110 l-50 0 ZM665 221 l52 0 l0 109 l-52 0 l0 -109 ZM545 221 l48 0 l0 109 l-22 0 q-26 0 -26 -26 l0 -83 ZM840 304 q0 26 -26 26 l-24 0 l0 -109 l50 0 l0 83 ZM802 622 q0 26 -26 26 l-293 0 q-26 0 -26 -26 l0 -62 l319 0 q26 0 26 26 l0 36 ZM884 420 q48 0 48 -48 l0 -352 q0 -59 -27 -78 l-37 -15 q-53 -5 -66 38 l-12 37 l0 -17 q0 -41 -37 -41 q-36 0 -36 41 l0 146 l-52 0 l0 -148 q0 -41 -36 -41 q-36 0 -36 41 l0 148 l-48 0 l0 -174 q0 -41 -46 -41 q-45 0 -45 41 l-1 435 q-18 -307 -85 -441 q-13 -29 -59 6 q-45 34 -34 60 q73 148 73 523 l0 157 q0 48 48 48 l188 0 l-17 39 q-15 38 40 51 q56 13 72 -24 l28 -66 l163 0 q48 0 48 -48 l0 -186 q0 -48 -48 -48 l-414 0 l-2 -43 l430 0 Z" /><glyph glyph-name="uni505A" unicode="&#x505a;" d="M199 805 q13 40 68 23 q55 -16 42 -53 q-18 -57 -67 -165 l0 -655 q0 -41 -55 -41 q-54 0 -54 41 l0 459 q-29 -44 -36 -51 q-25 -31 -54 33 q-29 65 -6 94 q37 40 89 142 q53 103 73 173 ZM606 363 l0 -301 q0 -26 19 -10 q49 39 95 119 q-38 97 -59 212 q-35 -56 -55 -20 ZM476 125 q26 0 26 26 l0 118 q0 26 -26 26 l-51 0 q-26 0 -26 -26 l0 -144 l77 0 ZM736 563 l-9 -29 q15 -127 47 -232 q32 106 46 261 l-84 0 ZM927 663 q41 0 41 -50 q0 -50 -48 -50 q-24 -250 -90 -395 q58 -103 110 -135 q32 -22 -4 -69 q-35 -47 -67 -21 q-47 33 -98 121 q-57 -84 -116 -121 q-34 -26 -70 14 q-35 40 5 67 l-191 0 l0 -30 q0 -41 -51 -41 q-51 0 -51 41 l0 354 q0 48 48 48 l52 0 l0 163 l-74 0 q-41 0 -41 53 q0 54 41 54 l74 0 l0 127 q0 41 56 41 q56 0 56 -41 l0 -127 l63 0 q41 0 41 -54 q0 -53 -41 -53 l-63 0 l0 -163 l50 0 q26 0 11 20 l-10 13 q91 129 121 364 q8 53 61 44 q53 -9 46 -49 l-24 -125 l163 0 Z" /><glyph glyph-name="uni505C" unicode="&#x505c;" d="M370 673 q-41 0 -41 49 q0 49 41 49 l212 0 l-8 17 q-18 37 37 52 q55 15 73 -22 l24 -47 l205 0 q41 0 41 -49 q0 -49 -41 -49 l-543 0 ZM523 556 q-26 0 -26 -26 q0 -27 26 -27 l223 0 q26 0 26 26 q0 27 -26 27 l-223 0 ZM886 471 q0 -48 -48 -48 l-401 0 q-48 0 -48 48 l0 116 q0 48 48 48 l401 0 q48 0 48 -48 l0 -116 ZM915 383 q48 0 48 -48 l0 -85 q0 -48 -48 -48 l-57 0 q0 -57 -48 -57 l-110 0 l0 -115 q0 -42 -11 -64 q-11 -22 -48 -35 q-36 -14 -109 -13 q-58 -1 -75 51 q-17 52 17 50 q12 0 86 0 q20 0 20 15 l0 111 l-130 0 q-41 0 -41 46 q0 47 41 47 l380 0 q26 0 26 26 l0 26 l-422 0 q-26 0 -26 -26 l0 -21 q0 -41 -51 -41 q-51 0 -51 41 l0 92 q0 48 48 48 l561 0 ZM223 804 q14 39 68 22 q54 -17 38 -54 l-81 -183 l0 -634 q0 -41 -54 -41 q-54 0 -54 41 l0 459 l-29 -36 q-25 -32 -56 29 q-31 62 -6 90 q39 40 96 140 q57 100 78 167 Z" /><glyph glyph-name="uni5076" unicode="&#x5076;" d="M229 806 q14 38 70 20 q56 -18 40 -57 q-26 -72 -82 -176 l0 -638 q0 -41 -57 -41 q-57 0 -57 41 l0 461 q-19 -25 -28 -35 q-31 -36 -63 26 q-32 62 -7 89 q42 41 102 141 q60 101 82 169 ZM732 183 q-17 38 17 49 q35 11 51 -26 l38 -89 l0 117 q0 26 -26 26 l-124 0 l0 -96 l50 6 l-6 13 ZM482 533 q0 -26 26 -26 l76 0 l0 63 l-102 0 l0 -37 ZM508 715 q-26 0 -26 -26 l0 -37 l102 0 l0 63 l-76 0 ZM795 652 l0 37 q0 26 -26 26 l-81 0 l0 -63 l107 0 ZM769 507 q26 0 26 26 l0 37 l-107 0 l0 -63 l81 0 ZM900 359 q48 0 48 -48 l0 -288 q0 -40 -10 -61 q-10 -22 -45 -37 q-34 -15 -93 -12 q-57 -1 -74 48 q-16 49 13 47 q1 0 79 0 q20 0 20 16 l0 33 l-12 -4 q-46 -16 -58 30 q-294 -42 -291 -42 q-6 0 -17 49 q-11 50 30 53 l94 10 l0 107 l-123 0 q-26 0 -26 -26 l0 -280 q0 -41 -56 -41 q-56 0 -56 41 l0 357 q0 48 48 48 l213 0 l0 59 l-164 0 q-48 0 -48 48 l0 290 q0 48 48 48 l442 0 q48 0 48 -48 l0 -290 q0 -48 -48 -48 l-174 0 l0 -59 l212 0 Z" /><glyph glyph-name="uni507F" unicode="&#x507f;" d="M801 513 q26 0 26 26 l0 23 q0 26 -26 26 l-352 0 q-26 0 -26 -26 l0 -23 q0 -26 26 -26 l352 0 ZM309 640 q0 48 48 48 l62 0 l-50 70 q-24 33 25 56 q50 23 74 -9 l29 -37 q36 -47 -26 -80 l94 0 l0 123 q0 41 60 41 q60 0 60 -41 l0 -123 l116 0 l-39 14 q-39 14 2 73 q42 60 81 48 l28 -9 q57 -17 17 -61 l-61 -65 l70 0 q48 0 48 -48 l0 -112 q0 -48 -48 -48 l-25 0 l0 -29 q0 -48 -48 -48 l-392 0 q-48 0 -48 48 l0 29 l-29 0 q-48 0 -48 48 l0 112 ZM196 796 q15 49 70 32 q56 -16 42 -54 l-60 -157 l0 -663 q0 -41 -58 -41 q-58 0 -58 41 l0 451 q-21 -32 -28 -40 q-27 -35 -57 30 q-30 66 -7 94 q102 119 156 307 ZM517 88 q-16 -20 10 -18 l233 18 l-35 49 q-28 40 16 63 l46 24 l-162 0 l-108 -136 ZM955 0 q14 -28 -40 -57 q-53 -30 -72 6 l-22 42 q-275 -25 -357 -35 q-82 -11 -82 -14 q-27 -9 -48 51 q-20 60 0 68 q33 3 139 163 l-143 0 q-41 0 -41 56 q0 57 41 57 l596 0 q41 0 41 -57 q0 -56 -41 -56 l-125 0 q124 -156 154 -224 Z" /><glyph glyph-name="uni5092" unicode="&#x5092;" d="M199 800 q13 45 68 29 q55 -15 41 -56 q-20 -68 -61 -161 l0 -657 q0 -41 -57 -41 q-57 0 -57 41 l0 444 l-26 -35 q-24 -33 -53 31 q-29 64 -4 96 q97 119 149 309 ZM954 143 q0 -47 -41 -47 l-169 0 q74 -67 180 -77 q51 -7 17 -56 q-34 -49 -81 -38 q-147 25 -217 136 q-16 24 -30 2 q-21 -42 -94 -84 q-72 -42 -152 -57 q-47 -11 -76 35 q-29 46 24 56 q118 20 179 83 l-158 0 q-41 0 -41 47 q0 48 41 48 l209 0 l9 50 q-170 -15 -182 -22 q-17 -4 -32 42 q-15 46 18 54 q8 -2 68 31 l58 31 q-85 -3 -83 -7 q-26 -5 -42 41 q-15 46 23 61 l20 9 q90 51 118 81 q28 26 72 -1 q44 -26 11 -49 l-78 -53 l91 1 l73 56 q32 25 69 -8 q37 -33 5 -57 q-70 -53 -193 -121 l200 14 l-22 25 q-27 30 14 52 q42 22 80 -17 q57 -53 81 -106 q18 -30 -26 -55 q-44 -25 -63 11 l-6 10 l-154 -13 l-10 -60 l249 0 q41 0 41 -48 ZM838 584 q-18 -36 -63 -23 q-44 13 -28 50 l31 68 q16 37 65 23 q50 -14 31 -50 l-36 -68 ZM647 574 q-47 -18 -64 19 l-18 39 q-21 45 26 61 l29 11 q-112 -12 -172 -15 q43 -70 43 -84 q11 -31 -39 -51 q-50 -19 -65 18 l-17 39 q-19 45 27 62 l41 15 q-63 -4 -58 -4 q-32 -1 -47 45 q-14 47 36 50 q276 17 435 58 q35 9 66 -38 q31 -47 -2 -55 q-65 -18 -226 -37 q42 -69 41 -82 q11 -32 -36 -51 Z" /><glyph glyph-name="uni50BB" unicode="&#x50bb;" d="M783 498 q26 0 26 26 l0 129 q0 26 -26 26 l-77 0 l20 -9 q55 -22 8 -58 l-20 -15 l26 -15 q53 -28 15 -74 l-8 -10 l36 0 ZM534 498 l191 0 q-36 23 -91 49 q-63 -33 -100 -49 ZM456 679 q-26 0 -26 -26 l0 -129 q0 -26 26 -26 l36 0 q-47 51 6 70 q45 19 9 33 q-59 22 -20 67 l10 11 l-41 0 ZM681 662 q22 17 -4 17 l-171 0 q56 -18 128 -46 q35 19 47 29 ZM328 711 q0 48 48 48 l158 0 l23 47 q17 36 80 24 q63 -11 38 -43 l-22 -28 l214 0 q48 0 48 -48 l0 -245 q0 -48 -48 -48 l-111 0 q128 -44 167 -68 q29 -15 0 -54 q-28 -38 -58 -21 q-55 37 -126 59 q-72 26 -35 73 l9 11 l-180 0 l11 -14 q32 -38 -7 -62 q-33 -23 -142 -64 q-48 -19 -75 16 q-27 36 5 46 q53 15 173 78 l-122 0 q-48 0 -48 48 l0 245 ZM205 801 q13 40 68 24 q55 -16 41 -54 l-62 -156 l0 -658 q0 -41 -57 -41 q-56 0 -56 41 l0 453 q-29 -44 -36 -51 q-25 -31 -54 33 q-29 65 -6 94 q37 40 89 142 q53 103 73 173 ZM703 160 q19 20 -7 20 l-147 0 q-26 0 -10 -16 q23 -24 90 -62 q52 31 74 58 ZM762 262 q41 0 74 -15 q34 -14 15 -51 q-26 -65 -96 -119 q-25 -20 4 -30 q86 -29 166 -38 q41 -5 10 -48 q-30 -44 -75 -36 q-110 17 -201 62 q-25 12 -49 2 q-95 -46 -231 -66 q-46 -8 -69 36 q-23 44 21 49 q95 9 205 49 l-90 80 l-41 -23 q-36 -19 -71 16 q-34 36 13 56 q105 42 164 111 q26 28 78 16 q53 -11 25 -41 l-12 -13 l160 3 Z" /><glyph glyph-name="uni50C5" unicode="&#x50c5;" d="M224 805 q15 39 71 21 q57 -18 42 -55 q-23 -64 -81 -169 l0 -646 q0 -41 -57 -41 q-56 0 -56 41 l0 470 q-33 -43 -41 -50 q-27 -30 -59 31 q-31 62 -5 89 q42 41 102 141 q61 100 84 168 ZM478 411 q0 -26 26 -26 l82 0 l0 64 l-82 0 q-26 0 -26 -26 l0 -12 ZM812 423 q0 26 -26 26 l-83 0 l0 -64 l83 0 q26 0 26 26 l0 12 ZM560 681 l0 -18 q0 -26 26 -26 l114 0 q26 0 26 26 l0 18 l-166 0 ZM703 15 l223 0 q41 0 41 -43 q0 -43 -41 -43 l-562 0 q-41 0 -41 43 q0 43 41 43 l222 0 l0 45 l-162 0 q-41 0 -41 42 q0 43 41 43 l162 0 l0 41 l-187 0 q-41 0 -41 43 q0 43 41 43 l187 0 l0 35 l-169 0 q-48 0 -48 48 l0 123 q0 48 48 48 l169 0 l0 34 l-88 0 q-48 0 -48 48 l0 73 l-72 0 q-41 0 -41 42 q0 43 41 43 l72 0 l0 40 q0 41 55 41 q55 0 55 -41 l0 -40 l166 0 l0 40 q0 41 58 41 q59 0 59 -41 l0 -40 l75 0 q41 0 41 -43 q0 -42 -41 -42 l-75 0 l0 -73 q0 -48 -48 -48 l-92 0 l0 -34 l176 0 q48 0 48 -48 l0 -123 q0 -48 -48 -48 l-176 0 l0 -35 l190 0 q41 0 41 -43 q0 -43 -41 -43 l-190 0 l0 -41 l168 0 q41 0 41 -43 q0 -42 -41 -42 l-168 0 l0 -45 Z" /><glyph glyph-name="uni50CF" unicode="&#x50cf;" d="M462 551 l0 -36 q0 -26 26 -26 l76 0 l27 62 l-129 0 ZM629 669 q15 20 -11 20 l-122 0 l-28 -33 q-16 -20 10 -20 l125 0 l26 33 ZM773 489 q26 0 26 26 q0 36 -26 36 l-86 0 l-15 -62 l101 0 ZM824 360 q30 21 69 -16 q39 -36 10 -53 q-1 -1 -65 -34 q46 -141 110 -177 q31 -21 -6 -66 q-37 -44 -65 -20 q-75 52 -125 224 l-34 -14 q19 -78 11 -147 q-8 -68 -38 -100 q-46 -55 -102 -44 q-56 1 -67 44 q-16 58 47 54 q28 0 40 21 q18 21 18 77 q-134 -104 -241 -140 q-37 -14 -71 28 q-34 41 3 52 q53 13 145 60 q92 47 148 98 l-13 34 q-107 -85 -202 -120 q-39 -15 -70 21 q-31 37 6 48 q32 8 106 43 q75 36 102 58 q18 14 -3 38 q-77 -53 -147 -72 q-43 -13 -75 22 q-31 35 13 49 q77 22 154 76 l-76 0 q-48 0 -48 48 l0 93 l0 0 q-28 -23 -66 15 q-37 39 1 67 q104 72 159 182 q20 37 76 26 q56 -10 36 -45 l-8 -14 l134 5 q41 1 74 -24 q34 -25 10 -58 l-47 -63 l133 0 q48 0 48 -48 l0 -136 q0 -48 -48 -48 l-239 0 l-16 -18 l83 -106 q100 54 136 80 ZM256 600 l-2 -644 q0 -41 -57 -41 q-57 0 -57 41 l0 459 l-31 -38 q-26 -31 -58 30 q-32 62 -7 90 q40 41 98 141 q58 100 79 166 q14 39 70 21 q56 -17 43 -52 q-19 -58 -78 -173 Z" /><glyph glyph-name="uni50FB" unicode="&#x50fb;" d="M915 736 q41 0 41 -52 q0 -51 -41 -51 l-258 0 q-41 0 -41 51 q0 52 41 52 l82 0 l-16 53 q-11 39 40 50 q52 11 64 -28 l25 -75 l63 0 ZM750 525 q11 -39 -32 -53 q-43 -14 -52 25 l-17 68 q-9 39 31 51 q41 12 52 -27 l18 -64 ZM481 93 q26 0 26 26 l0 119 q0 26 -26 26 l-15 0 q-26 0 -26 -26 l0 -145 l41 0 ZM494 674 q0 26 -25 26 l-41 0 q-26 0 -26 -26 l0 -115 l67 0 q25 0 25 26 l0 89 ZM924 457 q41 0 41 -51 q0 -51 -41 -51 l-81 0 l0 -104 l69 0 q41 0 41 -51 q0 -51 -41 -51 l-69 0 l0 -194 q0 -41 -55 -41 q-54 0 -54 41 l0 194 l-66 0 q-41 0 -41 51 q0 51 41 51 l66 0 l0 104 l-89 0 q-41 0 -41 51 q0 51 41 51 l143 0 l42 135 q12 39 62 25 q51 -13 35 -50 l-47 -110 l44 0 ZM559 362 q48 0 48 -48 l0 -272 q0 -48 -48 -48 l-119 0 l0 -31 q0 -41 -46 -41 q-46 0 -46 41 l0 164 q-22 -82 -30 -95 q-22 -52 -65 -10 l-30 29 l0 -96 q0 -41 -50 -41 q-50 0 -50 41 l0 448 l-27 -40 q-23 -34 -49 32 q-25 66 -2 98 q87 114 137 307 q13 46 62 30 q50 -15 38 -56 q-18 -69 -59 -168 l0 -540 q81 187 81 565 l0 117 q0 48 48 48 l192 0 q48 0 48 -48 l0 -238 q0 -48 -48 -48 l-147 0 l-9 -100 l171 0 Z" /><glyph glyph-name="uni513F" unicode="&#x513f;" d="M602 764 q0 41 60 41 q61 0 61 -41 l0 -666 q0 -38 5 -48 q5 -10 24 -10 l73 0 q20 0 27 37 q7 38 8 101 q2 57 57 30 q56 -26 51 -81 q-4 -89 -32 -145 q-28 -56 -99 -56 l-104 0 q-76 0 -104 37 q-27 36 -27 136 l0 665 ZM246 764 q0 41 59 41 q59 0 59 -41 l0 -279 q0 -237 -67 -369 q-27 -54 -75 -109 q-48 -54 -74 -67 q-40 -28 -69 9 l-11 14 q-44 45 10 82 q87 48 132 187 q21 66 28 123 q8 57 8 131 l0 278 Z" /><glyph glyph-name="uni5141" unicode="&#x5141;" d="M686 528 l-87 119 q-24 33 25 64 q49 31 65 8 q4 -4 63 -79 q121 -154 150 -201 q15 -22 -38 -60 q-53 -37 -75 -3 l-32 50 l-91 -8 l0 -324 q0 -31 7 -39 q8 -8 36 -8 l103 0 q28 0 36 32 q9 32 10 89 q3 58 59 33 q56 -25 51 -81 q-4 -86 -35 -136 q-31 -51 -111 -51 l-131 0 q-86 0 -117 34 q-31 34 -31 126 l0 314 l-108 -10 q-5 -78 -15 -135 q-10 -57 -33 -115 q-22 -57 -58 -99 q-79 -90 -183 -121 q-49 -19 -71 21 l-9 15 q-41 49 29 73 q98 25 155 119 q30 49 42 101 l18 130 l-151 -22 q-22 -6 -43 53 q-20 59 -1 67 q39 6 164 186 q65 94 92 151 q18 36 83 15 q66 -21 46 -55 q-72 -128 -190 -259 q-20 -22 6 -21 l370 27 Z" /><glyph glyph-name="uni5143" unicode="&#x5143;" d="M814 777 q41 0 41 -58 q0 -57 -41 -57 l-628 0 q-41 0 -41 57 q0 58 41 58 l628 0 ZM722 41 l90 0 q25 0 32 30 q8 31 9 82 q3 58 58 33 q55 -25 50 -81 q-4 -79 -34 -127 q-29 -48 -105 -48 l-120 0 q-84 0 -113 33 q-29 33 -29 122 l0 306 l-150 0 q-6 -69 -16 -121 q-9 -51 -30 -108 q-21 -56 -52 -98 q-72 -96 -164 -130 q-41 -19 -78 30 q-37 48 8 67 q104 37 153 139 q25 53 35 101 l15 120 l-185 0 q-41 0 -41 58 q0 58 41 58 l810 0 q41 0 41 -58 q0 -58 -41 -58 l-223 0 l0 -306 q0 -28 7 -36 q7 -8 32 -8 Z" /><glyph glyph-name="uni5144" unicode="&#x5144;" d="M300 681 q-26 0 -26 -26 l0 -153 q0 -26 26 -26 l407 0 q26 0 26 26 l0 153 q0 26 -26 26 l-407 0 ZM716 39 l97 0 q26 0 34 30 q8 31 9 87 q3 58 58 33 q55 -25 50 -81 q-4 -84 -34 -132 q-30 -49 -108 -49 l-124 0 q-84 0 -114 33 q-30 32 -30 119 l0 279 l-130 0 q-6 -68 -16 -118 q-9 -49 -31 -102 q-21 -53 -55 -92 q-78 -85 -178 -116 q-44 -17 -81 37 q-37 53 9 67 q81 22 142 86 q50 52 66 147 l11 91 l-89 0 q-48 0 -48 48 l0 345 q0 48 48 48 l611 0 q48 0 48 -48 l0 -345 q0 -48 -48 -48 l-137 0 l0 -279 q0 -26 7 -33 q7 -7 33 -7 Z" /><glyph glyph-name="uni5145" unicode="&#x5145;" d="M721 43 l94 0 q25 0 32 28 q8 28 9 71 q3 57 60 31 q57 -26 51 -81 q-4 -71 -35 -116 q-30 -45 -107 -45 l-124 0 q-87 0 -118 33 q-31 32 -31 120 l0 240 l-108 -6 q-8 -79 -25 -136 q-16 -56 -51 -110 q-70 -108 -198 -144 q-53 -19 -75 21 l-10 18 q-43 52 27 75 q82 19 138 94 q28 38 41 78 l20 97 l-136 -14 q-24 -6 -45 53 q-20 60 12 75 q-2 -7 38 31 q42 34 113 126 l-189 0 q-41 0 -41 57 q0 58 41 58 l364 0 l-47 91 q-18 36 43 51 q62 15 82 -20 l26 -44 q29 -52 -28 -69 l-29 -9 l380 0 q41 0 41 -58 q0 -57 -41 -57 l-442 0 l-124 -136 q-17 -19 9 -19 l339 12 l-57 56 q-29 28 21 57 q50 29 92 -9 q133 -113 183 -190 q18 -24 -37 -58 q-54 -34 -78 -1 l-29 40 l-91 -4 l0 -244 q0 -28 7 -36 q7 -7 33 -7 Z" /><glyph glyph-name="uni5146" unicode="&#x5146;" d="M794 728 q19 42 77 11 q59 -30 26 -80 q-77 -121 -118 -168 q-17 -20 -63 5 q-46 26 -22 60 q65 86 100 172 ZM295 552 q15 -35 -40 -65 q-55 -29 -67 3 q-3 16 -41 86 q-38 70 -58 96 q-21 34 28 60 q50 26 79 -15 q77 -100 99 -165 ZM315 404 l1 391 q0 41 59 41 q59 0 59 -41 l0 -350 q0 -73 -6 -130 q-6 -57 -26 -121 q-19 -64 -53 -113 q-34 -49 -94 -95 q-59 -46 -101 -61 q-40 -18 -76 32 q-36 50 7 68 q73 27 133 95 q60 69 82 159 q-129 -64 -184 -89 q-31 -13 -58 46 q-27 60 -6 67 q49 17 263 101 ZM706 42 l108 0 q24 0 32 21 l7 46 q5 41 59 17 q54 -24 45 -76 q-2 -44 -33 -82 q-30 -39 -98 -39 l-139 0 q-83 0 -113 36 q-29 36 -29 139 l0 691 q0 41 60 41 q60 0 60 -41 l0 -376 l22 27 q193 -100 257 -160 q24 -19 -15 -68 q-39 -49 -64 -27 q-51 52 -200 140 l0 -228 q0 -40 7 -51 q7 -10 34 -10 Z" /><glyph glyph-name="uni5148" unicode="&#x5148;" d="M720 40 l87 0 q23 0 30 24 q7 25 7 57 q3 56 57 32 q54 -24 48 -79 q-3 -63 -32 -104 q-29 -42 -99 -42 l-116 0 q-82 0 -110 32 q-28 31 -28 118 l0 243 l-146 0 q-9 -75 -25 -130 q-16 -54 -48 -110 q-63 -109 -185 -154 q-45 -20 -82 33 q-37 52 10 69 q97 31 148 113 q27 43 39 83 l18 96 l-195 0 q-41 0 -41 57 q0 58 41 58 l342 0 l0 162 l-172 0 q-38 -85 -57 -107 q-20 -29 -73 -3 q-52 26 -31 56 q24 27 59 115 q35 89 43 135 q10 39 71 27 q61 -12 49 -51 l-18 -58 l129 0 l0 94 q0 41 60 41 q61 0 61 -41 l0 -94 l266 0 q41 0 41 -57 q0 -57 -41 -57 l-266 0 l0 -162 l344 0 q41 0 41 -58 q0 -57 -41 -57 l-221 0 l0 -243 q0 -25 6 -32 q7 -6 30 -6 Z" /><glyph glyph-name="uni5149" unicode="&#x5149;" d="M752 767 q15 45 78 23 q64 -21 36 -75 q-62 -124 -96 -170 q-14 -22 -66 -3 q-52 20 -31 56 q55 85 79 169 ZM332 599 q11 -36 -47 -59 q-58 -23 -68 14 q-13 63 -47 120 q-23 45 -8 77 q15 33 61 37 q8 17 33 -28 q63 -102 76 -161 ZM723 28 l92 0 q24 0 31 28 q8 28 8 73 q3 57 57 33 q55 -24 49 -80 q-3 -75 -32 -120 q-29 -46 -103 -46 l-119 0 q-83 0 -112 33 q-29 32 -29 119 l0 302 l-142 0 q-7 -88 -22 -150 q-14 -61 -48 -123 q-67 -122 -203 -165 q-52 -20 -74 20 l-9 16 q-41 48 26 72 l102 62 q28 28 46 55 q19 27 30 65 l25 148 l-203 0 q-41 0 -41 56 q0 56 41 56 l343 0 l0 324 q0 41 60 41 q60 0 60 -41 l0 -324 l353 0 q41 0 41 -56 q0 -56 -41 -56 l-224 0 l0 -301 q0 -26 6 -34 q7 -7 32 -7 Z" /><glyph glyph-name="uni514B" unicode="&#x514b;" d="M313 470 q-26 0 -26 -26 l0 -57 q0 -26 26 -26 l375 0 q26 0 26 26 l0 57 q0 26 -26 26 l-375 0 ZM712 37 l99 0 q25 0 32 23 q8 24 8 56 q3 56 58 33 q55 -23 49 -78 q-3 -64 -33 -105 q-29 -41 -103 -41 l-128 0 q-86 0 -116 32 q-30 31 -30 116 l0 183 l-114 0 q-9 -69 -25 -117 q-16 -48 -51 -94 q-68 -88 -208 -120 q-51 -14 -86 42 q-35 55 18 66 q129 22 184 103 l40 120 l-86 0 q-48 0 -48 48 l0 222 q0 48 48 48 l216 0 l0 80 l-328 0 q-41 0 -41 54 q0 54 41 54 l328 0 l0 44 q0 41 60 41 q61 0 61 -41 l0 -44 l339 0 q41 0 41 -54 q0 -54 -41 -54 l-339 0 l0 -80 l232 0 q48 0 48 -48 l0 -222 q0 -48 -48 -48 l-119 0 l0 -182 q0 -24 7 -31 q8 -6 35 -6 Z" /><glyph glyph-name="uni514D" unicode="&#x514d;" d="M758 467 q0 26 -26 26 l-165 0 l-18 -129 l183 0 q26 0 26 26 l0 77 ZM259 390 q0 -26 25 -26 l140 0 l17 129 l-182 0 l0 -103 ZM522 663 q15 21 -11 21 l-172 0 l-73 -86 l208 0 l48 65 ZM705 37 l106 0 q26 0 34 23 q9 23 8 49 q4 56 58 33 q54 -23 47 -77 q-3 -56 -33 -95 q-29 -39 -103 -39 l-135 0 q-89 0 -120 30 q-30 30 -30 112 l0 185 l-16 0 q-42 -119 -138 -204 q-96 -84 -229 -119 q-46 -15 -80 35 q-33 50 13 62 q100 25 182 84 q82 60 121 142 l-202 0 q-48 0 -48 48 l0 175 l0 0 q-32 -25 -74 20 q-42 45 -8 68 q61 39 133 120 q72 81 95 128 q19 34 83 22 q64 -12 44 -47 l-7 -11 l178 5 q41 0 82 -27 q42 -26 19 -59 l-71 -102 l222 0 q48 0 48 -48 l0 -244 q0 -48 -48 -48 l-175 0 l0 -183 q0 -25 7 -32 q8 -6 37 -6 Z" /><glyph glyph-name="uni5151" unicode="&#x5151;" d="M299 549 q-26 0 -26 -26 l0 -116 q0 -26 26 -26 l396 0 q26 0 26 26 l0 116 q0 26 -26 26 l-396 0 ZM717 38 l97 0 q23 0 30 21 q8 21 7 42 q5 55 59 32 q55 -23 48 -77 q-3 -52 -32 -89 q-29 -37 -100 -37 l-128 0 q-85 0 -116 31 q-31 30 -31 112 l0 203 l-103 0 q-10 -71 -28 -121 q-17 -50 -52 -99 q-70 -94 -197 -128 q-54 -18 -75 22 l-8 15 q-39 48 34 69 q85 17 138 84 q29 36 42 71 l20 87 l-124 0 q-48 0 -48 48 l0 282 q0 48 48 48 l100 0 l-63 114 q-19 36 33 58 q53 23 82 -19 q47 -61 53 -88 q18 -43 -32 -65 l197 0 q64 89 89 154 q17 39 80 20 q64 -19 42 -53 l-79 -121 l104 0 q48 0 48 -48 l0 -282 q0 -48 -48 -48 l-129 0 l0 -200 q0 -25 7 -32 q8 -6 35 -6 Z" /><glyph glyph-name="uni5154" unicode="&#x5154;" d="M682 24 l131 0 q27 0 36 17 l13 78 l-38 -33 q-36 -31 -69 3 l-59 61 q-34 36 4 67 l26 22 l-96 0 l0 -178 q0 -24 9 -31 q10 -6 43 -6 ZM253 369 q0 -26 26 -26 l144 0 l20 146 l-190 0 l0 -120 ZM520 661 q15 21 -11 21 l-170 0 l-73 -89 l204 0 l50 68 ZM736 343 q26 0 26 26 l0 94 q0 26 -26 26 l-168 0 l-20 -146 l188 0 ZM870 126 l55 -24 q43 -18 30 -63 l-27 -87 q-30 -34 -104 -34 l-156 0 q-93 0 -125 30 q-32 30 -32 112 l0 159 q-46 -109 -143 -186 q-97 -76 -224 -108 q-46 -14 -79 37 q-32 50 19 63 q219 51 302 214 l-201 0 q-48 0 -48 48 l0 187 l-4 -3 q-32 -24 -73 20 q-41 45 -6 68 q64 40 136 123 q72 83 95 134 q19 35 82 23 q63 -11 43 -47 l-6 -10 l178 5 q41 0 82 -28 q42 -27 19 -60 l-74 -106 l229 0 q48 0 48 -48 l0 -258 q0 -48 -48 -48 l-87 0 l119 -113 Z" /><glyph glyph-name="uni515A" unicode="&#x515a;" d="M196 565 q-26 0 -26 -26 l0 -63 q0 -41 -57 -41 q-57 0 -57 41 l0 147 q0 48 48 48 l131 0 l-56 82 q-23 33 27 59 q51 27 82 -8 q36 -35 41 -53 q25 -46 -15 -70 l-17 -10 l140 0 l0 135 q0 41 61 41 q61 0 61 -41 l0 -135 l94 0 l65 128 q18 36 82 18 q65 -17 43 -51 l-64 -95 l123 0 q48 0 48 -48 l0 -147 q0 -41 -60 -41 q-60 0 -60 41 l0 63 q0 26 -25 26 l-609 0 ZM365 402 q-26 0 -26 -26 l0 -47 q0 -26 26 -26 l265 0 q26 0 26 26 l0 47 q0 26 -26 26 l-265 0 ZM703 32 l106 0 q25 0 32 20 q8 20 7 40 q4 55 58 32 q54 -23 46 -77 q-2 -52 -32 -89 q-29 -37 -100 -37 l-133 0 q-87 0 -117 31 q-29 30 -29 114 l0 132 l-88 0 q-24 -111 -101 -179 q-77 -67 -200 -92 q-50 -13 -83 42 q-33 54 21 65 q131 22 192 88 l42 76 l-57 0 q-48 0 -48 47 l0 214 q0 48 48 48 l468 0 q48 0 48 -47 l0 -214 q0 -48 -48 -48 l-75 0 l0 -130 q0 -24 7 -30 q8 -6 36 -6 Z" /><glyph glyph-name="uni515C" unicode="&#x515c;" d="M854 775 q48 0 48 -48 l0 -384 q0 -48 -48 -48 l-131 0 q-41 0 -41 54 q0 55 41 55 l36 0 q26 0 26 26 l0 210 q0 26 -26 26 l-36 0 q-41 0 -41 54 q0 55 41 55 l131 0 ZM553 565 l0 57 q0 26 -26 26 l-63 0 q-26 0 -26 -26 l0 -57 l115 0 ZM527 397 q26 0 26 26 l0 59 l-115 0 l0 -59 q0 -26 26 -26 l63 0 ZM221 454 q0 -26 24 -16 l39 17 q37 15 45 -40 q8 -55 -56 -85 q-139 -63 -151 -77 q-12 -9 -36 41 q-23 51 7 80 q12 -5 12 47 l0 265 q0 43 37 64 l88 53 q39 23 71 -9 l55 -55 l63 -2 l18 77 q9 39 69 31 q61 -7 47 -45 l-23 -63 l78 0 q48 0 48 -48 l0 -333 q0 -48 -48 -48 l-221 0 q-48 0 -48 48 l0 347 q0 26 -23 16 l-72 -33 q-23 -10 -23 -36 l0 -196 ZM305 231 q7 48 69 48 q62 0 56 -52 q-7 -108 -66 -179 q-54 -67 -142 -102 q-51 -20 -71 -23 q-46 -12 -66 28 l-8 15 q-37 48 34 64 l100 42 q29 19 47 38 q18 19 29 48 q17 45 18 73 ZM720 37 l93 0 q24 0 31 23 q8 23 8 53 q3 56 58 32 q55 -24 48 -79 q-3 -61 -32 -101 q-29 -40 -102 -40 l-121 0 q-85 0 -115 32 q-29 31 -29 115 l0 167 q0 41 61 41 q61 0 61 -41 l0 -166 q0 -23 7 -30 q7 -6 32 -6 Z" /><glyph glyph-name="uni5165" unicode="&#x5165;" d="M305 714 q-32 24 4 75 q37 52 69 26 q55 -38 123 -124 q68 -86 113 -170 q45 -83 91 -166 q46 -82 113 -162 q68 -79 122 -112 q35 -23 6 -91 q-28 -69 -66 -46 q-53 28 -112 96 q-33 38 -58 69 q-24 31 -53 79 q-28 48 -45 76 q-24 43 -87 164 q-119 -349 -349 -483 q-33 -21 -88 28 q-54 48 -19 66 q269 132 359 546 q-66 93 -123 129 Z" /><glyph glyph-name="uni5168" unicode="&#x5168;" d="M256 487 l488 0 q-134 88 -227 188 q-18 20 -36 0 q-91 -100 -225 -188 ZM808 430 q0 -48 -48 -48 l-198 0 l0 -115 l197 0 q41 0 41 -52 q0 -52 -41 -52 l-197 0 l0 -120 l325 0 q41 0 41 -53 q0 -53 -41 -53 l-768 0 q-41 0 -41 53 q0 53 41 53 l318 0 l0 120 l-187 0 q-41 0 -41 52 q0 52 41 52 l187 0 l0 115 l-194 0 q-48 0 -48 48 l0 19 q-47 -29 -60 -34 q-36 -17 -77 32 q-40 50 -3 66 q103 42 227 136 q125 95 175 175 q22 32 75 7 q53 -24 35 -51 l0 0 q163 -174 376 -267 q41 -18 1 -69 q-40 -51 -79 -31 q-15 8 -57 33 l0 -16 Z" /><glyph glyph-name="uni516B" unicode="&#x516b;" d="M275 710 q3 45 69 40 q66 -5 61 -50 q-6 -87 -23 -190 q-16 -103 -48 -220 q-66 -244 -193 -349 q-28 -26 -72 21 q-43 47 -15 72 q112 91 166 310 q27 107 39 200 q12 93 16 166 ZM633 774 q60 5 63 -50 q28 -486 257 -696 q25 -23 -28 -66 q-52 -43 -81 -13 q-64 59 -120 178 q-63 132 -83 215 q-20 83 -31 132 q-11 50 -18 105 q-13 112 -16 153 l0 0 q-2 37 57 42 Z" /><glyph glyph-name="uni516C" unicode="&#x516c;" d="M590 750 q-18 34 41 58 q59 24 75 -10 q27 -56 106 -156 q79 -99 129 -142 q28 -25 -22 -76 q-50 -51 -76 -24 q-52 53 -134 165 q-82 113 -119 185 ZM282 787 q16 38 81 19 q65 -18 49 -56 q-32 -82 -106 -193 q-74 -110 -127 -158 q-27 -26 -83 16 q-56 43 -27 67 q51 38 119 136 q69 98 94 169 ZM618 237 q-23 33 33 59 q57 26 88 -17 q121 -158 179 -273 q16 -29 -44 -61 q-59 -32 -74 -2 q-4 12 -47 84 q-503 -43 -543 -49 l-18 -5 q-40 -9 -63 53 q-23 63 20 87 q20 18 51 55 q39 40 113 154 q74 115 107 193 q17 36 83 7 q67 -28 47 -64 q-86 -164 -221 -322 q-18 -22 8 -21 l347 24 l-66 98 Z" /><glyph glyph-name="uni516D" unicode="&#x516d;" d="M274 351 q17 36 84 14 q67 -21 49 -57 q-35 -75 -109 -191 q-73 -115 -118 -167 q-23 -29 -83 12 q-60 40 -35 67 q44 44 113 149 q70 105 99 173 ZM608 282 q-35 56 22 84 q57 28 72 4 q9 -12 72 -102 q131 -188 163 -250 q14 -22 -50 -56 q-63 -35 -72 -18 q-33 71 -207 338 ZM92 473 q-41 0 -41 62 q0 62 41 62 l820 0 q41 0 41 -62 q0 -62 -41 -62 l-820 0 ZM600 668 q10 -23 -54 -47 q-64 -24 -75 0 q-14 35 -58 126 q-26 56 36 77 q62 21 91 -35 q48 -89 60 -121 Z" /><glyph glyph-name="uni5170" unicode="&#x5170;" d="M880 635 q41 0 41 -60 q0 -59 -41 -59 l-758 0 q-41 0 -41 59 q0 60 41 60 l186 0 l-78 127 q-21 35 29 59 q50 25 72 -9 l62 -93 q27 -41 -17 -64 l-38 -20 l240 0 q69 110 92 177 q15 36 76 17 q62 -18 41 -53 l-84 -141 l177 0 ZM803 357 q41 0 41 -59 q0 -59 -41 -59 l-623 0 q-41 0 -41 59 q0 59 41 59 l623 0 ZM93 -49 q-41 0 -41 59 q0 59 41 59 l811 0 q41 0 41 -59 q0 -59 -41 -59 l-811 0 Z" /><glyph glyph-name="uni5171" unicode="&#x5171;" d="M281 166 q24 28 87 3 q63 -24 32 -58 q-89 -103 -215 -176 q-35 -23 -84 19 q-49 41 -15 60 q37 19 108 74 q72 56 87 78 ZM615 102 q-46 36 8 65 q55 30 102 -5 q146 -103 204 -161 q21 -19 -38 -54 q-59 -35 -78 -14 q-54 60 -198 169 ZM385 540 l0 -192 l230 0 l0 192 l-230 0 ZM739 348 l177 0 q41 0 41 -58 q0 -58 -41 -58 l-829 0 q-41 0 -41 58 q0 58 41 58 l174 0 l0 192 l-139 0 q-41 0 -41 57 q0 58 41 58 l139 0 l0 144 q0 41 62 41 q62 0 62 -41 l0 -144 l230 0 l0 144 q0 41 62 41 q62 0 62 -41 l0 -144 l146 0 q41 0 41 -58 q0 -57 -41 -57 l-146 0 l0 -192 Z" /><glyph glyph-name="uni5173" unicode="&#x5173;" d="M899 391 q41 0 41 -59 q0 -59 -41 -59 l-296 0 q118 -182 326 -226 q47 -11 5 -69 q-42 -59 -85 -45 q-195 52 -324 248 q-100 -174 -355 -250 q-50 -17 -94 37 q-44 53 10 69 q259 74 328 236 l-311 0 q-41 0 -41 59 q0 59 41 59 l335 0 l0 136 l-269 0 q-41 0 -41 59 q0 59 41 59 l125 0 l-68 114 q-21 35 29 60 q50 25 78 -10 q43 -46 54 -82 q23 -48 -18 -71 l-20 -11 l241 0 q56 90 83 161 q17 40 82 18 q65 -21 44 -56 l-77 -123 l125 0 q41 0 41 -59 q0 -59 -41 -59 l-269 0 l0 -136 l321 0 Z" /><glyph glyph-name="uni5174" unicode="&#x5174;" d="M89 268 q-41 0 -41 57 q0 57 41 57 l822 0 q41 0 41 -57 q0 -57 -41 -57 l-822 0 ZM625 137 q-43 42 14 70 q57 29 104 -14 q162 -144 204 -195 q15 -17 -46 -50 q-61 -34 -78 -13 q-50 66 -198 202 ZM260 209 q21 30 88 5 q67 -24 42 -56 q-32 -45 -107 -120 q-74 -74 -115 -101 q-31 -23 -83 20 q-52 43 -20 64 q39 24 109 91 q70 68 86 97 ZM66 691 q-20 33 34 55 q54 22 76 -11 q25 -32 66 -112 q42 -80 50 -108 q13 -34 -46 -60 q-58 -26 -69 7 q-5 26 -46 110 q-40 84 -65 119 ZM358 771 q-16 36 39 55 q56 19 79 -26 q62 -112 75 -183 q9 -37 -17 -67 q-25 -29 -79 -36 l-13 19 q-3 27 -34 114 q-30 88 -50 124 ZM801 782 q14 36 83 16 q69 -19 48 -63 q-75 -169 -165 -301 q-21 -31 -81 -11 q-59 20 -40 50 q31 44 83 149 q53 105 72 160 Z" /><glyph glyph-name="uni5175" unicode="&#x5175;" d="M303 150 q28 23 80 -15 q53 -38 17 -66 q-102 -81 -233 -137 q-38 -18 -80 27 q-41 44 -6 58 q38 15 120 64 q82 49 102 69 ZM621 64 q-51 28 -7 67 q44 39 94 15 q145 -68 220 -121 q27 -17 -21 -62 q-47 -45 -71 -28 q-64 48 -215 129 ZM333 469 l0 -176 l287 0 l0 176 l-287 0 ZM743 293 l173 0 q41 0 41 -57 q0 -56 -41 -56 l-832 0 q-41 0 -41 56 q0 57 41 57 l127 0 l0 445 q0 48 61 50 q304 14 495 52 q32 7 62 -48 q31 -55 -2 -61 q-173 -32 -461 -47 q-33 -1 -33 -27 l0 -77 l529 0 q40 0 40 -56 q0 -55 -41 -55 l-118 0 l0 -176 Z" /><glyph glyph-name="uni5176" unicode="&#x5176;" d="M340 310 l0 -73 l315 0 l0 73 l-315 0 ZM655 638 l-315 0 l0 -62 l315 0 l0 62 ZM340 477 l0 -67 l315 0 l0 67 l-315 0 ZM947 182 q0 -54 -41 -54 l-552 0 l48 -38 q47 -37 -8 -67 q-86 -51 -235 -95 q-42 -14 -81 30 q-38 44 -1 54 q40 11 127 47 q88 36 141 69 l-251 0 q-41 0 -41 54 q0 55 41 55 l128 0 l0 401 l-98 0 q-41 0 -41 54 q0 55 41 55 l98 0 l0 56 q0 41 59 41 q59 0 59 -41 l0 -56 l315 0 l0 56 q0 41 60 41 q61 0 61 -41 l0 -56 l105 0 q41 0 41 -55 q0 -54 -41 -54 l-105 0 l0 -401 l130 0 q41 0 41 -55 ZM597 30 q-47 18 -5 54 q43 37 92 19 q141 -47 236 -97 q32 -15 -25 -52 q-57 -38 -89 -19 q-87 51 -209 95 Z" /><glyph glyph-name="uni5177" unicode="&#x5177;" d="M319 292 l0 -58 l365 0 l0 58 l-365 0 ZM684 681 q0 26 -26 26 l-313 0 q-26 0 -26 -26 l0 -29 l365 0 l0 29 ZM684 431 l-365 0 l0 -55 l365 0 l0 55 ZM684 515 l0 53 l-365 0 l0 -53 l365 0 ZM956 180 q0 -53 -41 -53 l-208 0 q178 -78 237 -114 q26 -14 -23 -57 q-49 -44 -82 -23 q-96 63 -194 103 q-64 29 -24 74 l15 17 l-299 0 l36 -26 q48 -34 -4 -70 q-73 -55 -208 -103 q-42 -16 -86 27 q-43 43 -2 57 q111 37 221 115 l-205 0 q-41 0 -41 53 q0 54 41 54 l115 0 l0 519 q0 48 48 48 l505 0 q48 0 48 -48 l0 -519 l110 0 q41 0 41 -54 Z" /><glyph glyph-name="uni5178" unicode="&#x5178;" d="M248 388 l0 -133 l92 0 l0 133 l-92 0 ZM340 622 l-67 0 q-25 0 -25 -26 l0 -98 l92 0 l0 124 ZM546 622 l-95 0 l0 -124 l95 0 l0 124 ZM755 596 q0 26 -26 26 l-70 0 l0 -124 l96 0 l0 98 ZM546 255 l0 133 l-95 0 l0 -133 l95 0 ZM659 388 l0 -133 l96 0 l0 133 l-96 0 ZM924 255 q41 0 41 -56 q0 -56 -41 -56 l-247 0 q169 -82 240 -130 q29 -17 -26 -57 q-55 -40 -86 -17 q-84 62 -175 105 q-63 33 -19 73 l28 26 l-296 0 l44 -29 q50 -33 -1 -71 q-77 -63 -216 -113 q-41 -17 -88 26 q-47 43 -11 55 q37 12 116 53 l129 79 l-241 0 q-41 0 -41 56 q0 56 41 56 l58 0 l0 429 q0 48 48 48 l159 0 l0 77 q0 41 55 41 q56 0 56 -41 l0 -77 l95 0 l0 77 q0 41 56 41 q57 0 57 -41 l0 -77 l168 0 q48 0 48 -48 l0 -429 l49 0 Z" /><glyph glyph-name="uni5179" unicode="&#x5179;" d="M226 84 l109 14 q25 3 15 27 l-7 14 q-16 38 30 52 q47 15 65 -24 q20 -36 32 -77 q10 -30 34 -13 q11 10 16 15 q6 5 17 16 q11 12 17 18 q37 39 109 140 q-136 -14 -143 -21 q-19 -6 -37 46 q-17 52 12 70 q-4 -11 28 31 q71 86 120 197 l-363 0 l12 -6 q44 -20 18 -64 q-35 -64 -92 -130 q-20 -24 6 -23 l88 6 l43 77 q19 36 71 8 q53 -28 31 -64 q-89 -152 -231 -309 ZM956 5 q10 -36 -41 -57 q-51 -21 -62 18 l-13 45 q-192 -28 -254 -40 l-67 -19 q-18 -5 -24 14 l-45 -15 q-47 -15 -56 34 l-4 22 q-272 -41 -296 -54 q-13 -6 -32 47 q-19 53 13 69 l23 21 q10 10 41 41 q31 32 104 136 q-135 -14 -144 -21 q-21 -6 -39 46 q-18 52 2 63 q19 0 94 119 l64 115 l-129 0 q-41 0 -41 54 q0 54 41 54 l176 0 l-45 71 q-21 35 31 57 q52 23 81 -14 q35 -38 46 -70 q15 -31 -14 -44 l233 0 l67 117 q20 35 82 14 q62 -20 38 -52 l-59 -79 l185 0 q41 0 41 -54 q0 -54 -41 -54 l-211 0 l13 -6 q45 -21 18 -66 q-37 -67 -91 -129 q-19 -23 7 -22 l84 6 l43 77 q20 35 72 7 q52 -27 29 -64 q-91 -157 -231 -309 l133 17 q25 3 13 26 l-8 15 q-19 36 28 54 q48 19 74 -25 q53 -83 71 -165 Z" /><glyph glyph-name="uni517B" unicode="&#x517b;" d="M897 458 q41 0 41 -48 q0 -48 -41 -48 l-161 0 q96 -71 190 -93 q44 -11 5 -61 q-38 -50 -77 -37 q-58 18 -145 78 l0 -293 q0 -41 -63 -41 q-63 0 -63 41 l0 279 q0 48 48 48 l35 0 l-78 79 l-173 0 l-76 -78 l22 0 q41 0 41 -36 q0 -35 -3 -77 q3 -42 -36 -117 q-47 -91 -145 -125 q-46 -20 -86 28 q-40 47 8 65 q72 22 110 86 q31 52 31 110 l0 23 q-73 -48 -127 -65 q-40 -14 -81 39 q-40 54 1 66 q74 18 159 81 l-134 0 q-41 0 -41 48 q0 48 41 48 l235 0 l35 51 l-175 0 q-41 0 -41 46 q0 47 41 47 l224 0 l19 47 l-295 0 q-41 0 -41 47 q0 47 41 47 l147 0 l-28 46 q-21 35 32 50 q53 16 75 -18 q39 -59 -17 -78 l250 0 l37 75 q17 37 80 23 q64 -14 43 -49 l-29 -49 l131 0 q41 0 41 -47 q0 -47 -41 -47 l-306 0 l-15 -47 l266 0 q41 0 41 -47 q0 -46 -41 -46 l-303 0 l-26 -51 l418 0 Z" /><glyph glyph-name="uni517C" unicode="&#x517c;" d="M447 255 l91 0 l0 60 l-91 0 l0 -60 ZM447 469 l0 -55 l91 0 l0 55 l-91 0 ZM447 617 l0 -58 l91 0 l0 58 l-91 0 ZM741 443 q0 26 -26 26 l-63 0 l0 -55 l89 0 l0 29 ZM715 255 q26 0 26 26 l0 34 l-89 0 l0 -60 l63 0 ZM857 213 q0 -48 -48 -48 l-90 0 q106 -94 206 -125 q40 -14 0 -62 q-39 -48 -76 -31 q-92 38 -197 148 l0 -140 q0 -41 -57 -41 q-57 0 -57 41 l0 210 l-91 0 l0 -210 q0 -41 -57 -41 q-57 0 -57 41 l0 130 q-97 -101 -185 -139 q-36 -18 -74 27 q-38 45 1 60 q95 34 194 132 l-93 0 q-41 0 -41 45 q0 45 41 45 l157 0 l0 60 l-242 0 q-41 0 -41 49 q0 50 41 50 l242 0 l0 55 l-147 0 q-41 0 -41 45 q0 45 41 45 l147 0 l0 58 l-227 0 q-40 0 -40 49 q0 49 41 49 l158 0 l-52 56 q-27 30 27 55 q55 25 90 -7 q40 -30 50 -52 q24 -35 -12 -52 l234 0 l73 101 q24 33 88 13 q64 -20 38 -51 l-55 -63 l149 0 q41 0 41 -49 q0 -49 -41 -49 l-243 0 l0 -58 l157 0 q48 0 48 -48 l0 -97 l57 0 q41 0 41 -50 q0 -49 -41 -49 l-57 0 l0 -102 Z" /><glyph glyph-name="uni517D" unicode="&#x517d;" d="M760 582 l0 30 q0 26 -26 26 l-179 0 l0 -56 l205 0 ZM734 453 q26 0 26 26 l0 31 l-205 0 l0 -57 l179 0 ZM230 510 l0 -31 q0 -26 26 -26 l188 0 l0 57 l-214 0 ZM256 638 q-26 0 -26 -26 l0 -30 l214 0 l0 56 l-188 0 ZM827 714 q48 0 48 -48 l0 -242 q0 -48 -48 -48 l-660 0 q-48 0 -48 48 l0 242 q0 48 48 48 l132 0 l-43 66 q-22 34 26 56 q48 22 71 -11 l31 -45 q28 -42 -21 -66 l227 0 l58 103 q20 35 77 15 q57 -19 33 -52 l-50 -66 l119 0 ZM727 82 q0 26 -26 26 l-405 0 q-26 0 -26 -26 l0 -42 l457 0 l0 42 ZM270 -47 q0 -41 -56 -41 q-56 0 -56 41 l0 202 q0 48 48 48 l591 0 q48 0 48 -48 l0 -201 q0 -41 -59 -41 q-59 0 -59 41 l0 1 l-457 0 l0 -2 ZM87 244 q-41 0 -41 45 q0 45 41 45 l828 0 q41 0 41 -45 q0 -45 -41 -45 l-828 0 Z" /><glyph glyph-name="uni5185" unicode="&#x5185;" d="M794 539 q0 26 -26 26 l-207 0 l-14 -113 q177 -161 247 -248 l0 335 ZM236 565 q-26 0 -26 -25 l0 -344 q135 70 184 176 q40 88 44 193 l-202 0 ZM864 681 q48 0 48 -48 l0 -584 q0 -49 -12 -75 q-12 -27 -43 -41 q-45 -21 -136 -20 q-58 -1 -78 58 q-19 59 8 58 q12 -1 118 -1 q14 1 19 6 q6 5 6 18 l0 150 l-60 -46 q-38 -30 -60 -2 q-34 49 -166 181 q-66 -143 -173 -203 q-42 -27 -73 12 q-7 15 -52 49 l0 -241 q0 -41 -60 -41 q-59 0 -59 41 l0 681 q0 48 48 48 l300 0 l0 125 q0 41 61 41 q62 0 62 -41 l0 -125 l302 0 Z" /><glyph glyph-name="uni518D" unicode="&#x518d;" d="M556 251 l179 0 l0 81 l-179 0 l0 -81 ZM264 332 l0 -81 l173 0 l0 81 l-173 0 ZM437 511 l-147 0 q-26 0 -26 -26 l0 -52 l173 0 l0 78 ZM735 485 q0 26 -26 26 l-153 0 l0 -78 l179 0 l0 52 ZM927 251 q41 0 41 -55 q0 -55 -41 -55 l-73 0 l0 -99 q0 -46 -12 -71 q-12 -26 -43 -39 q-42 -20 -126 -19 q-58 -1 -79 55 q-20 56 7 54 q10 0 110 0 q14 0 19 4 q5 5 5 18 l0 97 l-471 0 l0 -188 q0 -41 -59 -41 q-59 0 -59 41 l0 188 l-73 0 q-41 0 -41 55 q0 55 41 55 l73 0 l0 320 q0 47 48 47 l243 0 l0 66 l-323 0 q-41 0 -41 54 q0 55 41 55 l773 0 q41 0 41 -55 q0 -54 -41 -54 l-331 0 l0 -66 l250 0 q48 0 48 -47 l0 -320 l73 0 Z" /><glyph glyph-name="uni5192" unicode="&#x5192;" d="M707 307 q0 25 -26 25 l-364 0 q-25 0 -25 -25 l0 -21 l415 0 l0 21 ZM292 162 l415 0 l0 46 l-415 0 l0 -46 ZM292 35 l415 0 l0 48 l-415 0 l0 -48 ZM234 -85 q-57 0 -57 41 l0 412 q0 48 48 48 l554 0 q48 0 48 -48 l0 -406 q0 -41 -60 -41 q-60 -1 -60 28 l0 0 l-415 0 l0 0 q0 -34 -58 -34 ZM684 671 q41 0 41 -39 q0 -39 -41 -39 l-369 0 q-41 0 -41 39 q0 39 41 39 l369 0 ZM724 507 q0 -39 -41 -39 l-367 0 q-41 0 -41 39 q0 40 41 40 l367 0 q41 0 41 -40 ZM110 753 q0 48 48 48 l683 0 q48 0 48 -48 l0 -269 q0 -41 -61 -41 q-60 0 -60 41 l0 207 q0 26 -26 26 l-491 0 q-26 0 -26 -26 l0 -208 q0 -41 -58 -41 q-57 0 -57 41 l0 270 Z" /><glyph glyph-name="uni5199" unicode="&#x5199;" d="M355 425 q-5 -25 21 -25 l421 0 q49 0 46 -49 l-1 -11 q-16 -170 -36 -257 q-19 -87 -52 -121 q-32 -34 -99 -39 q-43 -5 -110 -2 q-55 1 -75 57 q-19 55 21 52 q38 -3 120 -3 q33 0 47 12 q39 31 55 214 q5 43 -21 43 l-428 0 q-60 0 -46 57 q30 105 58 279 q8 46 68 40 q60 -5 52 -45 l-8 -41 l371 0 q41 0 41 -51 q0 -51 -41 -51 l-391 0 l-13 -59 ZM601 228 q41 0 41 -55 q0 -55 -41 -55 l-472 0 q-41 0 -41 55 q0 55 41 55 l472 0 ZM68 753 q0 48 48 48 l769 0 q48 0 48 -48 l0 -136 q0 -41 -62 -41 q-62 0 -62 41 l0 48 q0 26 -26 26 l-571 0 q-26 0 -26 -26 l0 -48 q0 -41 -59 -41 q-59 0 -59 41 l0 136 Z" /><glyph glyph-name="uni519B" unicode="&#x519b;" d="M184 615 q0 -25 26 -25 l108 0 l27 79 q12 39 73 20 q61 -18 46 -56 l-18 -43 l339 0 q26 0 26 26 l0 68 q0 25 -26 25 l-575 0 q-26 0 -26 -26 l0 -68 ZM817 537 q0 -48 -48 -48 l-371 0 l-58 -102 q-13 -22 13 -22 l124 0 l0 46 q0 41 60 41 q60 0 60 -41 l0 -46 l210 0 q41 0 40 -52 q0 -52 -41 -52 l-209 0 l0 -97 l289 0 q41 0 41 -54 q0 -54 -41 -54 l-289 0 l0 -102 q0 -41 -60 -41 q-60 0 -60 41 l0 102 l-358 0 q-41 0 -41 54 q0 54 41 54 l358 0 l0 97 l-153 0 q-90 0 -84 -6 q-23 -9 -43 46 q-19 56 1 68 q17 -2 76 120 l-45 0 q-48 0 -48 48 l0 44 l-64 0 q-48 0 -48 48 l0 135 q0 48 48 48 l767 0 q48 0 48 -48 l0 -135 q0 -48 -48 -48 l-67 0 l0 -44 Z" /><glyph glyph-name="uni51A0" unicode="&#x51a0;" d="M167 504 q-48 0 -48 48 l0 57 q-47 0 -47 48 l0 100 q0 47 48 47 l762 0 q48 0 48 -48 l0 -100 q0 -47 -48 -47 l-34 0 l0 -73 l62 0 q41 0 41 -54 q0 -53 -41 -53 l-62 0 l0 -237 q0 -41 -10 -63 q-9 -22 -35 -34 q-39 -20 -90 -18 q-54 0 -72 51 q-18 51 19 50 q4 0 59 0 q17 0 17 16 l0 235 l-186 0 q-41 0 -41 53 q0 54 41 54 l186 0 l0 48 q0 48 48 48 l23 0 l0 36 q0 26 -26 26 l-566 0 q-26 0 -26 -26 l0 -29 q0 -26 26 -26 l219 0 q41 0 41 -55 q0 -54 -41 -54 l-267 0 ZM555 318 q-29 46 17 65 q46 19 77 -25 q28 -33 22 -34 q15 -38 -3 -67 q-18 -28 -67 -32 l-11 18 l-35 75 ZM453 40 l329 -8 q51 0 66 22 q16 23 16 52 q7 55 59 35 q53 -20 44 -74 q-5 -62 -42 -100 q-36 -38 -137 -38 l-261 0 q-118 0 -160 31 q-42 30 -42 116 l0 231 l-73 0 l0 -42 q0 -233 -117 -322 q-30 -27 -71 14 q-40 41 -10 68 q88 64 88 243 l0 39 l-53 0 q-41 0 -41 55 q0 55 41 55 l383 0 q41 0 41 -55 q0 -55 -41 -55 l-36 0 l0 -230 q0 -29 17 -37 Z" /><glyph glyph-name="uni51A2" unicode="&#x51a2;" d="M208 702 q-26 0 -26 -26 l0 -55 q0 -41 -58 -41 q-57 0 -57 41 l0 136 q0 48 48 48 l773 0 q48 0 48 -48 l0 -136 q0 -41 -60 -41 q-60 0 -60 41 l0 55 q0 26 -26 26 l-582 0 ZM773 493 q29 24 66 -18 q38 -42 6 -64 q-31 -23 -112 -72 q36 -83 95 -153 q59 -70 95 -89 q34 -21 -8 -70 q-41 -48 -71 -27 q-112 76 -198 290 l-33 -17 q21 -103 7 -191 q-14 -87 -55 -122 q-43 -49 -120 -50 l-40 0 q-41 0 -57 57 q-16 56 25 52 q4 -1 46 -1 q43 0 59 27 q15 16 24 55 l7 88 q-80 -66 -187 -125 q-106 -59 -170 -80 q-36 -14 -69 32 q-32 46 5 56 q85 21 209 89 q124 68 192 142 l-14 40 l-123 -73 l8 -11 q22 -34 -28 -58 q-50 -23 -70 12 l-6 9 q-75 -34 -96 -41 q-33 -12 -66 31 q-33 43 2 52 q24 6 102 37 l-10 11 q-27 30 19 50 q47 21 75 -9 l11 -11 q84 41 141 82 l-39 50 q-130 -69 -245 -105 q-40 -13 -76 32 q-35 45 6 55 q127 30 266 100 l-87 0 q-41 0 -41 48 q0 48 41 48 l484 0 q41 0 41 -48 q0 -48 -41 -48 l-216 0 l-44 -31 q62 -62 101 -155 q130 74 189 124 Z" /><glyph glyph-name="uni51A4" unicode="&#x51a4;" d="M280 325 q0 -26 26 -26 l115 0 l16 99 l-157 0 l0 -73 ZM511 536 q17 19 -9 19 l-143 0 l-66 -63 l181 0 l37 44 ZM709 299 q26 0 26 26 l0 47 q0 26 -26 26 l-150 0 l-14 -99 l164 0 ZM681 27 l139 0 q31 0 40 20 q10 21 9 42 q4 55 57 33 q54 -22 46 -76 q-3 -54 -34 -90 q-30 -36 -108 -36 l-162 0 q-94 0 -126 30 q-32 29 -32 111 l0 121 q-43 -99 -141 -166 q-98 -66 -229 -93 q-47 -12 -79 41 q-32 53 16 62 q100 19 183 64 q84 46 124 113 l-172 0 q-48 0 -48 48 l0 147 l-12 -7 q-35 -20 -76 25 q-40 46 0 66 q154 72 253 224 l-118 0 q-26 0 -26 -26 l0 -55 q0 -41 -58 -41 q-57 0 -57 41 l0 137 q0 48 48 48 l754 0 q48 0 48 -48 l0 -137 q0 -41 -60 -41 q-60 0 -60 41 l0 55 q0 26 -26 26 l-369 0 q63 -13 32 -58 l140 3 q41 0 80 -26 q39 -25 14 -57 l-60 -76 l199 0 q48 0 48 -48 l0 -193 q0 -48 -48 -48 l-67 0 q78 -62 85 -80 q19 -25 -23 -54 q-42 -29 -70 1 l-37 39 q-41 44 9 76 l27 18 l-109 0 l0 -141 q0 -23 10 -29 q10 -6 46 -6 Z" /><glyph glyph-name="uni51B2" unicode="&#x51b2;" d="M160 42 q-20 -36 -75 1 q-55 38 -31 75 q75 114 136 244 q19 38 66 1 q47 -37 27 -79 q-66 -141 -123 -242 ZM93 664 q-44 37 -2 78 q43 42 89 6 q77 -55 106 -95 q20 -23 -26 -69 q-45 -46 -65 -22 q-28 43 -102 102 ZM691 351 l128 0 l0 172 q0 26 -26 26 l-102 0 l0 -198 ZM450 351 l121 0 l0 198 l-95 0 q-26 0 -26 -26 l0 -172 ZM691 670 l203 0 q48 0 48 -48 l0 -390 q0 -41 -62 -41 q-61 0 -61 41 l0 0 l-128 0 l0 -278 q0 -41 -60 -41 q-60 0 -60 41 l0 278 l-121 0 l0 -4 q0 -41 -59 -41 q-58 0 -58 41 l0 394 q0 48 48 48 l190 0 l0 135 q0 41 60 41 q60 0 60 -41 l0 -135 Z" /><glyph glyph-name="uni51B3" unicode="&#x51b3;" d="M277 625 q19 -30 -33 -63 q-51 -32 -67 -3 q-20 45 -70 104 q-34 44 -27 80 q7 36 51 47 q3 18 37 -23 q85 -95 109 -142 ZM176 314 q21 46 66 10 q46 -36 26 -82 q-59 -139 -121 -250 q-17 -34 -69 2 q-51 36 -32 67 q68 109 130 253 ZM664 587 l-4 -186 l110 0 l0 161 q0 25 -26 25 l-80 0 ZM926 401 q41 0 41 -57 q0 -57 -41 -57 l-207 0 q78 -202 222 -251 q40 -15 0 -67 q-39 -53 -76 -35 q-154 62 -243 293 q-72 -203 -245 -293 q-39 -23 -83 25 q-43 48 0 69 q167 73 220 259 l-160 0 q-41 0 -41 57 q0 57 41 57 l181 0 l3 186 l-139 0 q-41 0 -41 56 q0 56 41 56 l139 0 l0 108 q0 41 63 41 q63 0 63 -41 l0 -108 l172 0 q48 0 48 -48 l0 -250 l42 0 Z" /><glyph glyph-name="uni51B5" unicode="&#x51b5;" d="M287 658 q25 -32 -19 -77 q-43 -45 -64 -17 q-2 9 -50 58 q-48 49 -67 62 q-30 26 11 66 q41 40 79 10 q80 -56 110 -102 ZM209 377 q26 43 64 1 q38 -42 12 -87 q-76 -137 -142 -233 q-19 -29 -64 14 q-45 44 -23 73 q76 100 153 232 ZM498 686 q-26 0 -26 -26 l0 -159 q0 -26 26 -26 l260 0 q26 0 26 26 l0 159 q0 26 -26 26 l-260 0 ZM792 32 l54 0 q15 0 20 27 q6 27 6 64 q2 57 53 33 q52 -23 47 -78 q-2 -67 -27 -110 q-25 -43 -88 -43 l-84 0 q-71 0 -95 30 q-24 30 -24 113 l0 293 l-83 0 q-8 -136 -31 -206 q-23 -70 -51 -109 q-62 -85 -135 -112 q-46 -22 -70 17 l-7 11 q-40 44 24 73 q67 21 109 112 q22 48 30 95 l12 119 l-47 0 q-48 0 -48 48 l0 342 q0 48 48 48 l453 0 q48 0 48 -48 l0 -342 q0 -48 -48 -48 l-89 0 l0 -292 q0 -25 4 -31 q4 -6 19 -6 Z" /><glyph glyph-name="uni51B7" unicode="&#x51b7;" d="M259 596 q14 -33 -44 -59 q-57 -26 -69 7 q-16 56 -56 119 q-27 47 -14 81 q14 34 60 40 q8 17 36 -28 q70 -107 87 -160 ZM164 6 q-17 -43 -78 -18 q-61 25 -42 63 q63 123 113 276 q15 42 69 17 q54 -25 41 -63 q-44 -137 -103 -275 ZM785 389 q41 0 84 -28 q43 -28 24 -58 q-56 -95 -208 -241 q71 -47 74 -51 q24 -18 -20 -59 q-44 -42 -64 -25 q-57 51 -220 160 q-50 34 -10 69 q41 36 75 14 l68 -44 l122 128 q17 18 -9 18 l-306 0 q-41 0 -41 55 q0 56 41 56 l390 6 ZM538 480 q-24 32 22 57 q47 25 74 -6 l47 -53 q26 -31 -23 -61 q-48 -30 -73 2 l-47 61 ZM563 815 q18 35 76 14 q59 -20 40 -57 l0 0 q53 -77 133 -152 q81 -74 127 -100 q33 -19 -13 -70 q-45 -51 -76 -28 q-111 80 -230 253 q-118 -171 -260 -259 q-35 -22 -79 26 q-43 49 -9 69 q76 41 167 138 q92 97 124 166 Z" /><glyph glyph-name="uni51C6" unicode="&#x51c6;" d="M258 602 q15 -32 -43 -60 q-58 -28 -72 6 q-18 56 -56 119 q-26 46 -12 81 q14 35 60 41 q8 18 35 -28 q69 -108 88 -159 ZM179 0 q-17 -42 -80 -16 q-62 26 -44 62 q57 109 113 263 q16 43 71 16 q55 -27 41 -66 q-46 -133 -101 -259 ZM458 180 l0 -97 l180 0 l0 97 l-180 0 ZM638 477 l0 96 l-180 0 l0 -96 l180 0 ZM638 282 l0 93 l-180 0 l0 -93 l180 0 ZM926 83 q41 0 41 -53 q0 -53 -41 -53 l-468 0 l0 -24 q0 -41 -55 -41 q-54 0 -54 41 l0 479 q-38 -50 -46 -57 q-25 -27 -67 16 q-41 44 -14 70 q49 43 111 150 q62 108 86 189 q13 40 68 26 q55 -13 41 -51 l-40 -100 l179 0 l-49 87 q-19 36 32 59 q51 23 72 -12 l39 -65 q25 -42 -27 -69 l176 0 q41 0 41 -51 q0 -51 -41 -51 l-156 0 l0 -96 l137 0 q41 0 41 -51 q0 -51 -41 -51 l-137 0 l0 -93 l135 0 q41 0 41 -51 q0 -51 -41 -51 l-135 0 l0 -97 l172 0 Z" /><glyph glyph-name="uni51CC" unicode="&#x51cc;" d="M911 615 q41 0 41 -50 q0 -50 -41 -50 l-573 0 q-40 0 -40 50 q0 50 41 50 l225 0 l0 61 l-171 0 q-41 0 -41 49 q0 49 41 49 l171 0 l0 32 q0 41 58 41 q59 0 59 -41 l0 -32 l169 0 q41 0 41 -49 q0 -49 -41 -49 l-169 0 l0 -61 l230 0 ZM732 413 q-48 24 -16 57 q33 34 84 11 q89 -38 135 -73 q27 -17 -8 -55 q-34 -37 -63 -17 q-49 39 -132 77 ZM446 482 q35 26 83 4 q48 -22 12 -51 q-65 -55 -118 -82 q-39 -20 -76 -10 q-37 11 -50 56 l19 14 q85 34 130 69 ZM262 582 q15 -35 -42 -61 q-56 -25 -69 11 q-21 69 -64 137 q-26 44 -13 76 q14 33 60 38 q6 17 32 -25 q72 -108 96 -176 ZM155 323 q17 47 67 23 q51 -24 35 -71 q-49 -149 -104 -273 q-15 -34 -72 -11 q-57 22 -41 55 q61 120 115 277 ZM556 231 q-26 0 -8 -18 l75 -77 l85 81 q19 17 -7 17 l-145 -3 ZM763 325 q41 1 79 -17 q39 -18 23 -57 q-29 -87 -138 -172 q108 -46 205 -57 q45 -5 10 -56 q-34 -51 -79 -42 q-125 18 -221 74 q-24 13 -49 2 q-111 -54 -251 -77 q-44 -9 -76 39 q-31 48 14 55 q124 17 241 67 l-72 82 q-53 -38 -61 -41 q-31 -18 -72 23 q-40 42 -4 60 q48 21 122 79 q75 59 96 93 q23 31 75 12 q52 -19 28 -52 l-14 -19 l144 4 Z" /><glyph glyph-name="uni51E0" unicode="&#x51e0;" d="M769 49 l59 0 q17 0 23 36 q6 37 7 95 q2 57 58 30 q56 -27 51 -82 q-3 -85 -31 -140 q-27 -55 -97 -55 l-93 0 q-72 0 -100 37 q-27 36 -27 136 l0 556 q0 26 -26 26 l-206 0 q-26 0 -26 -26 l0 -170 q0 -415 -203 -557 q-33 -27 -65 6 l-13 14 l-11 9 q-39 31 -3 65 l57 55 q39 50 60 97 q21 48 33 107 q18 88 18 205 l0 263 q0 48 48 48 l413 0 q48 0 48 -48 l4 -698 q5 -9 22 -9 Z" /><glyph glyph-name="uni51E1" unicode="&#x51e1;" d="M776 54 l58 0 q17 0 22 36 q6 36 7 94 q2 57 57 30 q55 -26 50 -81 q-3 -84 -30 -139 q-27 -55 -95 -55 l-92 0 q-70 0 -97 36 q-27 36 -27 135 l0 551 q0 26 -26 26 l-233 0 q-26 0 -26 -26 l0 -178 l46 36 q37 28 59 2 q14 -16 41 -45 q103 -116 118 -139 q15 -19 -34 -60 q-48 -41 -61 -22 q-27 44 -169 216 q-9 -397 -192 -538 q-32 -28 -64 6 l-12 12 l-12 10 q-38 31 -4 66 l54 56 q37 52 56 100 q20 49 32 109 q17 93 17 209 l0 257 q0 48 48 48 l436 0 q48 0 48 -48 l4 -695 q5 -9 21 -9 Z" /><glyph glyph-name="uni51E4" unicode="&#x51e4;" d="M632 613 l29 -10 q44 -15 34 -66 q-22 -139 -103 -279 q87 -87 108 -122 q19 -27 -23 -71 q-42 -44 -60 -17 q-16 31 -92 113 q-94 -112 -183 -156 q-35 -19 -70 27 q-35 47 0 64 q83 35 172 147 q-70 68 -120 105 q-33 27 5 64 q38 37 73 10 q43 -31 103 -85 q41 73 59 137 q8 27 -18 27 l-212 0 q-41 0 -41 54 q0 54 41 54 l298 4 ZM131 768 q0 48 48 48 l634 0 q49 0 47 -53 q-6 -225 0 -464 q7 -239 36 -239 q15 0 14 69 q3 70 35 21 q33 -48 26 -100 q-2 -42 -23 -83 q-20 -41 -60 -41 q-40 0 -65 26 q-25 25 -40 86 q-15 62 -24 117 q-9 56 -13 163 q-5 135 -5 355 q0 34 -26 34 l-439 0 q-26 0 -26 -26 l0 -161 q0 -419 -106 -582 q-18 -33 -57 -3 l-10 8 l-10 6 q-43 24 -21 63 l49 139 q26 107 31 186 q5 79 5 183 l0 248 Z" /><glyph glyph-name="uni51EF" unicode="&#x51ef;" d="M438 793 q50 0 50 -41 l0 -167 q0 -48 -48 -48 l-326 0 q-48 0 -48 48 l0 167 q0 41 47 41 q48 0 48 -41 l0 -97 q0 -26 26 -26 l39 0 l0 176 q0 41 50 41 q51 0 51 -41 l0 -176 l36 0 q26 0 26 26 l0 97 q0 41 49 41 ZM180 95 q0 -25 25 -20 l182 38 q40 8 45 -43 q6 -50 -53 -64 q-147 -32 -207 -47 l-42 -14 q-39 -12 -58 36 q-18 47 5 77 l4 29 l0 159 q0 48 48 48 l210 0 q26 0 26 26 l0 28 q0 26 -26 26 l-236 0 q-41 0 -41 52 q0 52 41 52 l320 0 q49 0 49 -49 l0 -192 q0 -48 -48 -48 l-218 0 q-26 0 -26 -26 l0 -68 ZM859 27 l16 0 q8 0 11 25 q3 26 3 49 q2 54 46 32 q45 -21 40 -74 q0 -42 -22 -80 q-21 -39 -68 -39 l-49 0 q-55 0 -74 28 q-19 28 -19 106 l0 600 q0 26 -26 26 l-33 0 q-26 0 -26 -26 l0 -190 q0 -394 -112 -541 q-22 -33 -63 7 q-46 33 -25 66 q73 95 87 343 q3 55 3 126 l0 267 q0 48 48 48 l204 0 q48 0 48 -48 l0 -717 q4 -8 11 -8 Z" /><glyph glyph-name="uni51FA" unicode="&#x51fa;" d="M774 307 q0 41 67 41 q67 0 67 -41 l0 -352 q0 -41 -67 -41 q-67 0 -67 41 l0 13 l-639 0 q-48 0 -48 48 l0 290 q0 41 67 41 q67 0 67 -41 l0 -194 q0 -26 26 -26 l184 0 l0 314 l-243 0 q-48 0 -48 48 l0 274 q0 41 63 41 q63 0 63 -41 l0 -181 q0 -26 25 -26 l140 0 l0 291 q0 41 66 41 q66 0 66 -41 l0 -291 l146 0 q26 0 26 26 l0 181 q0 41 66 41 q66 0 66 -41 l0 -274 q0 -48 -48 -48 l-256 0 l0 -314 l211 0 l0 221 Z" /><glyph glyph-name="uni51FB" unicode="&#x51fb;" d="M569 356 l0 -282 l174 0 l0 184 q0 41 62 41 q62 0 62 -41 l0 -305 q0 -41 -62 -41 q-62 0 -62 41 l0 6 l-560 0 q-48 0 -48 48 l0 249 q0 41 64 41 q64 0 64 -41 l0 -156 q0 -26 26 -26 l153 0 l0 282 l-348 0 q-41 0 -41 59 q0 60 41 60 l348 0 l0 116 l-277 0 q-41 0 -41 59 q0 59 41 59 l277 0 l0 97 q0 41 63 41 q64 0 64 -41 l0 -97 l273 0 q41 0 41 -59 q0 -59 -41 -59 l-273 0 l0 -116 l339 0 q41 0 41 -60 q0 -59 -41 -59 l-339 0 Z" /><glyph glyph-name="uni5200" unicode="&#x5200;" d="M86 686 q0 61 41 61 l735 0 q49 0 47 -68 q-7 -327 -22 -488 q-15 -161 -47 -203 q-22 -31 -47 -44 q-24 -13 -68 -20 q-44 -7 -108 -3 q-55 2 -77 67 q-22 65 10 62 q26 -2 128 -2 q31 0 47 17 q23 24 35 154 q13 130 19 372 q2 35 -24 35 l-260 0 q-5 -91 -14 -162 q-9 -70 -34 -157 q-24 -87 -63 -154 q-38 -67 -106 -134 q-67 -66 -120 -92 q-37 -21 -83 32 q-46 52 -5 72 q102 47 172 151 q71 107 92 216 q20 99 26 228 l-233 0 q-41 0 -41 60 Z" /><glyph glyph-name="uni5203" unicode="&#x5203;" d="M165 500 q12 55 65 42 q53 -13 43 -58 q-10 -61 -42 -138 q-32 -77 -61 -98 q-29 -28 -77 4 q-48 32 -23 56 q74 58 95 192 ZM136 636 q-41 0 -41 58 q0 58 41 58 l708 0 q49 0 49 -49 l-1 -11 q-12 -368 -28 -520 q-15 -151 -47 -194 q-22 -30 -45 -42 q-23 -13 -62 -19 q-38 -7 -99 -4 q-56 1 -77 65 q-20 64 22 61 q35 -3 105 -3 q27 0 45 18 q25 26 38 159 q14 133 20 387 q2 36 -24 36 l-190 0 q-14 -190 -63 -325 q-46 -126 -123 -219 q-92 -109 -193 -158 q-37 -21 -81 29 q-44 49 -4 69 q150 68 238 228 q67 124 86 288 l8 88 l-282 0 Z" /><glyph glyph-name="uni5206" unicode="&#x5206;" d="M592 759 q-16 34 39 55 q56 21 72 -13 q28 -59 108 -160 q80 -100 130 -141 q29 -24 -19 -75 q-48 -50 -77 -21 l-27 28 q-8 -231 -20 -329 q-11 -98 -37 -127 q-32 -42 -90 -48 q-47 -7 -100 -4 q-52 1 -71 61 q-19 60 17 57 q18 -2 95 -2 q26 0 40 13 q28 30 37 266 q3 45 -23 45 l-183 0 q-11 -78 -30 -139 q-19 -60 -57 -121 q-78 -127 -218 -176 q-44 -18 -82 35 q-37 53 9 69 q114 36 179 132 q32 48 47 94 l25 106 l-113 0 q-48 0 -48 48 l0 11 l-30 -28 q-30 -28 -81 18 q-50 47 -19 70 q56 39 128 138 q73 99 99 173 q16 39 80 21 q64 -17 48 -55 q-50 -133 -153 -255 q-18 -23 8 -23 l502 0 q-129 160 -185 277 Z" /><glyph glyph-name="uni5207" unicode="&#x5207;" d="M257 256 q0 -26 23 -16 l104 44 q38 15 47 -38 q9 -52 -55 -82 q-197 -89 -222 -113 q-12 -9 -38 43 q-26 53 8 82 q18 2 18 56 l0 221 l-60 -12 q-40 -7 -50 47 q-9 55 31 62 l79 16 l0 200 q0 41 57 41 q58 0 58 -41 l0 -178 l123 24 q40 7 50 -47 q10 -53 -30 -60 l-143 -29 l0 -220 ZM453 659 q-41 0 -41 57 q0 57 41 57 l446 0 q49 0 47 -70 q-7 -355 -20 -515 q-12 -160 -40 -200 q-20 -28 -40 -41 q-20 -13 -57 -19 q-36 -7 -84 -4 q-54 1 -74 62 q-19 60 18 57 q16 -1 87 -1 q24 0 38 20 q21 24 32 157 q11 133 17 404 q1 36 -25 36 l-127 0 q-2 -111 -8 -186 q-5 -75 -22 -167 q-17 -92 -46 -157 q-28 -65 -79 -130 q-51 -64 -83 -81 q-40 -29 -68 10 l-10 14 q-46 43 3 77 l96 104 q44 66 71 181 q17 74 21 168 q4 95 5 167 l-98 0 Z" /><glyph glyph-name="uni5211" unicode="&#x5211;" d="M258 461 l101 0 l0 221 l-101 0 l0 -221 ZM475 682 l0 -221 l61 0 q41 0 41 -57 q0 -57 -41 -57 l-61 0 l0 -380 q0 -41 -58 -41 q-58 0 -58 41 l0 380 l-102 0 q-3 -136 -35 -243 q-31 -106 -83 -161 q-27 -33 -70 6 q-43 38 -20 67 q89 103 96 331 l-65 0 q-41 0 -41 57 q0 57 41 57 l66 0 l0 221 l-46 0 q-41 0 -41 56 q0 57 41 57 l411 0 q41 0 41 -57 q0 -56 -41 -56 l-36 0 ZM614 698 q0 41 56 41 q56 0 56 -41 l0 -476 q0 -41 -56 -41 q-56 0 -56 41 l0 476 ZM808 788 q0 41 59 41 q59 0 59 -41 l0 -730 q0 -50 -12 -76 q-11 -27 -39 -42 q-46 -24 -126 -22 q-56 -2 -75 59 q-18 61 19 59 q19 0 91 0 q14 0 19 5 q5 5 5 18 l0 729 Z" /><glyph glyph-name="uni5212" unicode="&#x5212;" d="M497 730 q21 -25 -21 -61 q-42 -35 -70 -6 l-81 83 q-28 29 11 61 q39 33 84 -3 q56 -41 77 -74 ZM415 440 q17 37 73 20 q56 -17 38 -56 q-51 -119 -160 -246 q46 -118 92 -118 q32 0 34 92 q6 71 55 38 q49 -32 41 -87 q-6 -72 -38 -117 q-32 -45 -101 -45 q-98 0 -171 144 q-85 -81 -136 -109 q-31 -20 -73 27 q-41 46 -5 66 q79 42 168 131 q-37 127 -59 292 l-93 -11 q-41 -4 -47 52 q-5 57 36 61 l93 10 q-10 110 -12 215 q0 47 61 47 q61 0 60 -41 q0 -82 9 -208 l256 29 q40 4 45 -52 q6 -56 -34 -60 l-255 -29 q13 -102 35 -195 q64 91 88 150 ZM620 700 q0 41 57 41 q57 0 57 -41 l0 -468 q0 -41 -57 -41 q-57 0 -57 41 l0 468 ZM810 796 q0 41 58 41 q58 0 58 -41 l0 -744 q0 -50 -12 -76 q-11 -26 -39 -40 q-46 -23 -126 -21 q-56 -2 -75 57 q-18 59 18 57 q19 0 93 0 q14 1 19 6 q6 5 6 17 l0 744 Z" /><glyph glyph-name="uni5217" unicode="&#x5217;" d="M92 688 q-41 0 -41 57 q0 57 41 57 l438 0 q41 0 41 -57 q0 -57 -40 -57 l-227 0 l-29 -108 l163 4 q41 0 78 -11 q38 -11 30 -59 q-27 -209 -132 -369 q-104 -159 -242 -220 q-38 -20 -74 31 q-35 50 3 66 q101 37 191 156 q-24 26 -74 67 q-44 38 -9 83 q35 46 83 7 q48 -37 66 -52 q41 86 58 161 q7 27 -19 27 l-159 0 q-51 -126 -94 -177 q-22 -29 -67 12 q-45 41 -24 67 q82 89 131 315 l-92 0 ZM675 740 q59 0 59 -41 l0 -490 q0 -41 -59 -41 q-58 0 -58 41 l0 490 q0 41 58 41 ZM822 796 q0 41 60 41 q60 0 60 -41 l0 -743 q0 -49 -12 -74 q-11 -26 -39 -40 q-48 -23 -121 -20 q-54 -1 -73 56 q-19 57 47 55 q64 -3 73 6 q5 4 5 17 l0 743 Z" /><glyph glyph-name="uni5219" unicode="&#x5219;" d="M212 694 q-26 0 -26 -26 l0 -441 q0 -41 -55 -41 q-55 0 -55 41 l0 526 q0 48 48 48 l369 0 q48 0 48 -48 l0 -521 q0 -41 -58 -41 q-57 0 -57 41 l0 436 q0 26 -26 26 l-188 0 ZM314 113 l32 33 q33 33 87 -10 q88 -66 118 -101 q19 -18 -19 -60 q-37 -42 -56 -20 q-32 40 -167 149 q-62 -125 -166 -168 q-45 -24 -77 23 q-40 44 12 74 l48 28 q42 33 65 65 q23 33 36 74 q20 63 20 150 l0 246 q0 41 56 41 q57 0 57 -41 l0 -249 q0 -140 -46 -234 ZM620 714 q0 41 55 41 q55 0 55 -41 l0 -531 q0 -40 -55 -40 q-55 0 -55 40 l0 531 ZM806 794 q0 41 59 41 q59 0 59 -41 l0 -730 q0 -52 -13 -79 q-12 -28 -43 -44 q-51 -24 -142 -21 q-56 -1 -77 61 q-21 61 15 59 q29 -1 115 -1 q27 1 27 26 l0 729 Z" /><glyph glyph-name="uni521A" unicode="&#x521a;" d="M185 581 l0 -449 q57 94 108 233 q-59 129 -108 216 ZM441 -63 q-56 -2 -74 49 q-18 51 35 48 q35 -2 67 1 q22 0 22 22 l0 613 q0 26 -26 26 l-254 0 q-26 0 -26 -26 l0 -75 l29 17 q42 23 67 -23 q20 -34 54 -99 q24 86 34 132 q10 41 57 32 q47 -9 35 -54 q-28 -115 -68 -231 q56 -119 74 -182 q12 -34 -31 -59 q-42 -24 -53 10 q-6 24 -38 104 q-43 -108 -70 -149 q-23 -39 -64 -13 l-26 17 l0 -140 q0 -41 -56 -41 q-55 0 -55 41 l0 796 q0 48 48 48 l428 0 q48 0 48 -48 l0 -697 q0 -43 -11 -65 q-10 -23 -37 -36 q-40 -20 -109 -18 ZM665 702 q0 41 52 41 q52 0 52 -41 l0 -491 q0 -41 -52 -41 q-52 0 -52 41 l0 491 ZM825 788 q0 41 54 41 q54 0 54 -41 l0 -743 q0 -45 -11 -69 q-10 -24 -36 -37 q-40 -21 -111 -19 q-56 -2 -73 52 q-16 53 21 51 q14 0 80 0 q22 1 22 22 l0 743 Z" /><glyph glyph-name="uni521B" unicode="&#x521b;" d="M184 485 l275 0 q26 0 12 18 q-45 66 -137 170 q-62 -101 -150 -188 ZM352 832 q55 -17 39 -54 l-3 -6 q159 -167 196 -226 q18 -25 -15 -56 l-43 -41 q-11 -235 -41 -270 q-22 -27 -63 -33 q-41 -6 -64 -5 q-47 1 -61 51 q-14 50 23 46 q-5 0 40 0 q19 0 30 14 l17 106 q3 25 -23 25 l-106 0 q-26 0 -26 -26 l0 -279 q0 -31 9 -39 q9 -8 43 -8 l135 0 q30 0 39 22 q10 23 10 48 q5 55 56 33 q52 -21 44 -75 q-2 -52 -32 -90 q-30 -39 -106 -39 l-160 0 q-88 0 -121 31 q-33 30 -33 116 l0 365 l0 0 q-31 -24 -74 20 q-42 44 -10 67 q57 38 131 130 q75 93 99 154 q16 36 70 19 ZM616 692 q0 41 57 41 q57 0 57 -41 l0 -483 q0 -41 -57 -41 q-57 0 -57 41 l0 483 ZM807 787 q0 41 59 41 q59 0 59 -41 l0 -734 q0 -51 -13 -77 q-12 -26 -43 -39 q-47 -22 -142 -21 q-57 -1 -77 57 q-20 57 16 55 q27 -1 114 -1 q27 1 27 26 l0 734 Z" /></font>
</defs>
</svg>
